<svg xmlns="http://www.w3.org/2000/svg" viewBox="0 0 200 200"><defs><style>.a{fill:#d6d6d6;}.b{fill:#ededed;}</style></defs><title>CircleIcons</title><circle class="a" cx="98.5" cy="99.5" r="91.5"/><path class="b" d="M71.58,133.21c-9.31,0-17.85-3.11-22.89-11.26a22.9,22.9,0,0,1-2.52-6l11.93-2.52c1.36,6.79,7.47,10,14,10,5.43,0,11.73-1.94,11.73-8.44,0-14-35-8-35-30.56,0-14.25,10.86-19,23.47-19,8.44,0,16.39,2.82,21.24,9.9a18.69,18.69,0,0,1,2.43,4.85l-11.74,3.2c-1.65-5.34-6.59-8.25-12-8.25C67,75.1,61.4,76.85,61.4,83c0,14.55,35.4,7,35.4,30.85C96.8,129.23,84.87,133.21,71.58,133.21Z"/><path class="b" d="M127.26,105.56h-9.6v26.09H105.82V67H129.2c13.1,0,21.34,4.85,21.34,18.92C150.54,100.52,140.55,105.56,127.26,105.56Zm-1.07-29.1h-8.53V96h8c7,0,12.51-1.75,12.51-9.8S133.37,76.46,126.19,76.46Z"/><circle class="a" cx="98.5" cy="99.5" r="91.5"/><path class="b" d="M72.89,131.65H47.28V67H70.76c10.86,0,20.85,3.3,20.85,16,0,8.05-4,13-11.93,14.65,8.83,1.16,13.58,7.17,13.58,15.9C93.26,125.83,84.44,131.65,72.89,131.65ZM68.62,76.46h-9.5V93.53H68c6.11,0,11.55-1.74,11.55-8.82C79.59,77.92,74.44,76.46,68.62,76.46ZM69.21,103H59.12v19.11H69.3c6.7,0,11.55-2.14,11.55-9.61S75.9,103,69.21,103Z"/><path class="b" d="M128.76,133.21c-20.75,0-27.16-14.46-27.16-32.89,0-17.55,7-34.92,27.16-34.92,13.78,0,21.93,8.54,24.35,21.63L140.7,88.59C140.11,81.31,137,75,128.76,75c-12.61,0-14,15.32-14,24.73s1.55,23.86,14,23.86c8.25,0,11.35-6.69,12.13-13.87l12.42,1.46C151.07,124.57,142.73,133.21,128.76,133.21Z"/></svg>