<svg xmlns="http://www.w3.org/2000/svg" viewBox="0 0 200 200"><defs><style>.a{fill:#d6d6d6;}.b{fill:#ededed;}</style></defs><title>CircleIcons</title><circle class="a" cx="98.5" cy="99.5" r="91.5"/><path class="b" d="M98.26,131.65h-13l-8.83-38a85.28,85.28,0,0,1-1.84-14.84,96.3,96.3,0,0,1-1.94,14.84l-9.12,38H51L36.66,67H48.4l7.76,38a115.53,115.53,0,0,1,1.75,14.16A97.79,97.79,0,0,1,59.85,105l8.63-38h13L90,105A114,114,0,0,1,92,119.14,98.88,98.88,0,0,1,93.7,105l8-38H113.2Z"/><path class="b" d="M131.92,76.46V93.63h24.44v9.5H131.92v28.52H120.08V67h40.65v9.51Z"/></svg>