<svg xmlns="http://www.w3.org/2000/svg" viewBox="0 0 200 200"><defs><style>.a{fill:#d6d6d6;}.b{fill:#ededed;}</style></defs><title>CircleIcons</title><circle class="a" cx="98.5" cy="99.5" r="91.5"/><path class="b" d="M44.67,131.65H24V67H43c21.82,0,30.36,10.67,30.36,31.82C73.38,117.88,65.42,131.65,44.67,131.65ZM43.41,76.46H35.84v45.69h7.57c13.67,0,17-11.16,17-22.7C60.38,87.62,57.57,76.46,43.41,76.46Z"/><path class="b" d="M105,133.21c-9.31,0-17.85-3.11-22.89-11.26a22.9,22.9,0,0,1-2.52-6l11.93-2.52c1.35,6.79,7.47,10,14,10,5.44,0,11.74-1.94,11.74-8.44,0-14-35-8-35-30.56,0-14.25,10.87-19,23.48-19,8.44,0,16.39,2.81,21.24,9.9a19,19,0,0,1,2.43,4.85l-11.74,3.2C116,78,111,75.1,105.58,75.1c-5.14,0-10.77,1.75-10.77,7.86,0,14.55,35.41,7,35.41,30.84C130.22,129.23,118.29,133.21,105,133.21Z"/><path class="b" d="M151.07,76.46V93.63h24.45v9.5H151.07v28.52H139.24V67h40.64v9.51Z"/></svg>