<svg xmlns="http://www.w3.org/2000/svg" viewBox="0 0 200 200"><defs><style>.a{fill:#d6d6d6;}.b{fill:#ededed;}</style></defs><title>CircleIcons</title><circle class="a" cx="98.5" cy="99.5" r="91.5"/><path class="b" d="M71.58,133.21c-9.31,0-17.85-3.11-22.89-11.26a22.9,22.9,0,0,1-2.52-6l11.93-2.52c1.36,6.79,7.47,10,14,10,5.43,0,11.73-1.94,11.73-8.44,0-14-35-8-35-30.56,0-14.25,10.86-19,23.47-19,8.44,0,16.39,2.82,21.24,9.9a18.69,18.69,0,0,1,2.43,4.85l-11.74,3.2c-1.65-5.34-6.59-8.25-12-8.25C67,75.1,61.4,76.85,61.4,83c0,14.55,35.4,7,35.4,30.85C96.8,129.23,84.87,133.21,71.58,133.21Z"/><path class="b" d="M127.26,105.56h-9.6v26.09H105.82V67H129.2c13.1,0,21.34,4.85,21.34,18.92C150.54,100.52,140.55,105.56,127.26,105.56Zm-1.07-29.1h-8.53V96h8c7,0,12.51-1.75,12.51-9.8S133.37,76.46,126.19,76.46Z"/></svg>