<?xml version="1.0" encoding="utf-8"?>
<!-- Generator: Adobe Illustrator 23.0.4, SVG Export Plug-In . SVG Version: 6.00 Build 0)  -->
<svg version="1.1" id="Layer_1" xmlns="http://www.w3.org/2000/svg" xmlns:xlink="http://www.w3.org/1999/xlink" x="0px" y="0px"
	 viewBox="0 0 105.9 84.2" style="enable-background:new 0 0 105.9 84.2;" xml:space="preserve">
<style type="text/css">
	.st0{fill:#A2B53A;}
</style>
<path class="st0" d="M0.3,4.3l0.4-1.1C0.5,3.5,0.4,3.9,0.3,4.3z"/>
<path class="st0" d="M105.1,3.2c0.2,0.3,0.4,0.7,0.4,1.1C105.5,3.9,105.3,3.5,105.1,3.2z"/>
<path class="st0" d="M6,84.2h93.9c2,0,3.9-1,5-2.6c0.7-1,1-2.2,1-3.4l0,0V6c0-0.5-0.1-1-0.2-1.5c0-0.1,0-0.2-0.1-0.2l-0.4-1.1
	c-0.2-0.3-0.4-0.7-0.7-1c-0.2-0.3-0.5-0.6-0.8-0.8c-0.1-0.1-0.3-0.2-0.4-0.4c-1-0.7-2.2-1-3.4-1H6C4.8,0,3.6,0.4,2.6,1
	C2.5,1.1,2.3,1.3,2.2,1.4C1.9,1.6,1.6,1.9,1.4,2.2c-0.2,0.3-0.5,0.6-0.7,1C0.5,3.5,0.4,3.9,0.3,4.3C0.1,4.8,0,5.4,0,6v72.2l0,0
	c0,2.7,1.8,5.1,4.4,5.8C4.9,84.2,5.5,84.2,6,84.2z M99.6,3.7L51.7,54L6.6,4.5L99.6,3.7z M4.6,78.2V9L50,58.9
	c0.4,0.5,1.1,0.7,1.7,0.7l0,0c0.6,0,1.3-0.2,1.7-0.7l47.9-50.3v69.5c0,0.8-0.6,1.4-1.4,1.4H6C5.3,79.6,4.6,79,4.6,78.2
	C4.6,78.3,4.6,78.2,4.6,78.2z"/>
</svg>
