<?xml version="1.0" encoding="utf-8"?>
<!-- Generator: Adobe Illustrator 23.0.4, SVG Export Plug-In . SVG Version: 6.00 Build 0)  -->
<svg version="1.1" id="Layer_1" xmlns="http://www.w3.org/2000/svg" xmlns:xlink="http://www.w3.org/1999/xlink" x="0px" y="0px"
	 viewBox="0 0 88 90.2" style="enable-background:new 0 0 88 90.2;" xml:space="preserve">
<style type="text/css">
	.st0{fill:#A2B53A;}
</style>
<path class="st0" d="M70.3,66.2c-8-6.4-11.6-7.3-15.4-5.1c-1.8,1.2-3.5,2.6-5,4.3c-3.7,3.7-9.1,1-17.3-7.1S20.8,43.7,24.5,40
	c1.6-1.5,3.1-3.2,4.3-5.1c2.3-3.8,1.1-7.1-5.4-15c-5.4-6.6-9.1-8.3-13.2-6.5c-3.1,1.3-5.7,3.9-7.9,6.2c-5.9,6-1.4,26.3,20.6,48
	c21.9,21.8,41.9,26.1,47.8,20.2c2.4-2.4,5.1-5.3,6.3-8.7C78.4,75.1,76.6,71.3,70.3,66.2z"/>
<path class="st0" d="M61.5,53c-1,0-1.8-0.7-1.8-1.7c0,0,0,0,0,0c-0.9-20.6-21.5-22.6-22.4-22.7c-1-0.1-1.8-1-1.7-2
	c0.1-1,1-1.8,2-1.7l0,0c0.3,0,24.6,2.5,25.8,26.3c0,1-0.7,1.9-1.8,1.9H61.5z"/>
<path class="st0" d="M72.9,49.9c-1,0-1.8-0.7-1.8-1.7c0,0,0,0,0,0c-1.3-28.1-29.5-31-30.6-31.1c-1-0.1-1.8-1-1.7-2
	c0.1-1,1-1.8,2-1.7l0,0c0.3,0,32.5,3.3,34,34.6C74.8,49,74,49.8,72.9,49.9L72.9,49.9z"/>
<path class="st0" d="M86.2,47.6c-1,0-1.8-0.7-1.8-1.7c0,0,0,0,0,0C82.6,7.8,43.3,3.8,42.9,3.7c-1-0.1-1.8-1-1.7-2s1-1.8,2-1.7l0,0
	C43.6,0.1,86.1,4.3,88,45.6C88,46.6,87.2,47.5,86.2,47.6C86.2,47.6,86.2,47.6,86.2,47.6L86.2,47.6z"/>
</svg>
