<?xml version="1.0" encoding="utf-8"?>
<!-- Generator: Adobe Illustrator 23.0.4, SVG Export Plug-In . SVG Version: 6.00 Build 0)  -->
<svg version="1.1" id="Layer_1" xmlns="http://www.w3.org/2000/svg" xmlns:xlink="http://www.w3.org/1999/xlink" x="0px" y="0px"
	 viewBox="0 0 78.2 63" style="enable-background:new 0 0 78.2 63;" xml:space="preserve">
<style type="text/css">
	.st0{enable-background:new    ;}
	.st1{fill:#173459;}
</style>
<g>
	<g class="st0">
		<path class="st1" d="M9.4,14.8V8.5c0-0.7,0-1.3,0.1-2C9.3,7.2,9.1,8,8.9,8.7l-1.8,6H6.2l-1.9-6C4.1,8,3.9,7.3,3.7,6.5
			c0.1,0.7,0.1,1.3,0.1,2v6.3H3V5.7h1.2l1.9,6.2c0.2,0.7,0.4,1.3,0.5,2c0.1-0.7,0.3-1.4,0.5-2l1.8-6.2h1.3v9.1
			C10.2,14.8,9.4,14.8,9.4,14.8z"/>
		<path class="st1" d="M15,14.9c-2.2,0-2.8-1.9-2.8-3.7s0.7-3.6,2.8-3.6c1.9,0,2.5,1.5,2.5,3.1v0.5h-4.3c0,1.3,0.2,2.9,1.9,2.9
			c0.9,0,1.5-0.5,1.8-1.4l0.7,0.4C17.1,14.3,16.3,14.9,15,14.9z M15,8.3c-1.4,0-1.8,1.1-1.9,2.3h3.5C16.6,9.5,16.3,8.3,15,8.3z"/>
		<path class="st1" d="M23.4,14.8v-0.9c-0.5,0.6-1.1,1-1.9,1c-2,0-2.5-1.9-2.5-3.6c0-1.6,0.5-3.7,2.5-3.7c0.7,0,1.5,0.3,1.9,0.8V5.3
			h0.8v9.4h-0.8V14.8z M23.4,9.2c-0.5-0.5-1-0.8-1.7-0.8c-1.6,0-1.8,1.7-1.8,3s0.2,2.9,1.8,2.9c0.8,0,1.3-0.5,1.7-1.1V9.2z"/>
		<path class="st1" d="M26.5,6.6V5.3h1v1.3H26.5z M26.6,14.8v-7h0.8v7H26.6z"/>
		<path class="st1" d="M34.2,13.7c-0.5,0.8-1.3,1.2-2.2,1.2c-2,0-2.7-1.8-2.7-3.5s0.6-3.8,2.7-3.8c1,0,1.7,0.4,2.1,1.3
			c0.1,0.2,0.2,0.5,0.3,0.7l-0.8,0.2C33.5,9,32.9,8.3,32,8.3c-1.5,0-1.8,1.9-1.8,3c0,1.2,0.3,2.9,1.8,2.9c0.9,0,1.6-0.7,1.7-1.5
			l0.8,0.3C34.5,13.2,34.3,13.5,34.2,13.7z"/>
		<path class="st1" d="M39.5,14.8v-0.9c-0.4,0.6-1.4,1-2.1,1c-1.2,0-1.9-0.8-1.9-2c0-2,2.4-2.4,4-2.6V9.7c0-0.9-0.6-1.4-1.4-1.4
			c-0.7,0-1.4,0.4-1.8,1l-0.6-0.5c0.5-0.8,1.6-1.2,2.4-1.2c1.3,0,2.2,0.7,2.2,2v5.1h-0.8C39.5,14.7,39.5,14.8,39.5,14.8z M39.5,10.9
			c-1.1,0.2-3.1,0.4-3.1,1.9c0,0.7,0.4,1.3,1.2,1.3s1.5-0.5,1.9-1.1C39.5,13,39.5,10.9,39.5,10.9z"/>
		<path class="st1" d="M42.6,6.6V5.3h1v1.3H42.6z M42.7,14.8v-7h0.8v7H42.7z"/>
		<path class="st1" d="M49.8,14.8v-0.9c-0.5,0.6-1.1,1-1.9,1c-2,0-2.5-1.9-2.5-3.6c0-1.6,0.5-3.7,2.5-3.7c0.7,0,1.5,0.3,1.9,0.8V5.3
			h0.8v9.4h-0.8V14.8z M49.8,9.2c-0.5-0.5-1-0.8-1.7-0.8c-1.6,0-1.8,1.7-1.8,3s0.2,2.9,1.8,2.9c0.7,0,1.3-0.5,1.7-1.1V9.2z"/>
	</g>
	<g class="st0">
		<path class="st1" d="M9.4,30.5v-6.3c0-0.7,0-1.3,0.1-2c-0.2,0.7-0.4,1.5-0.6,2.2l-1.8,6H6.2l-1.9-6c-0.2-0.7-0.4-1.4-0.6-2.2
			c0.1,0.7,0.1,1.3,0.1,2v6.3H3v-9.1h1.2l2,6.1c0.2,0.7,0.4,1.3,0.5,2c0.1-0.7,0.3-1.4,0.5-2L9,21.3h1.3v9.2H9.4z"/>
		<path class="st1" d="M16.2,30.5v-0.9c-0.4,0.6-1.4,1-2.1,1c-1.2,0-1.9-0.8-1.9-2c0-2,2.4-2.4,4-2.6v-0.6c0-0.9-0.6-1.4-1.4-1.4
			c-0.7,0-1.4,0.4-1.8,1l-0.7-0.5c0.5-0.8,1.6-1.2,2.4-1.2c1.3,0,2.2,0.7,2.2,2v5.2H16.2z M16.1,26.6C15,26.8,13,27,13,28.5
			c0,0.7,0.4,1.3,1.2,1.3s1.5-0.5,1.9-1.1V26.6z"/>
		<path class="st1" d="M22,24.3c-0.9,0.2-1.5,1.1-1.9,1.9v4.3h-0.8v-7h0.8V25c0.6-1.1,1.2-1.6,2.5-1.6v0.9
			C22.4,24.2,22.2,24.2,22,24.3z"/>
		<path class="st1" d="M28.1,30.5l-2.4-3.7l-0.9,1v2.7H24v-9.4h0.8v5.7l3-3.3h0.9l-2.5,2.8l2.8,4.3L28.1,30.5L28.1,30.5z"/>
		<path class="st1" d="M32.5,30.6c-2.2,0-2.8-1.9-2.8-3.7s0.7-3.6,2.8-3.6c1.9,0,2.5,1.5,2.5,3.1v0.5h-4.3c0,1.3,0.2,2.9,1.9,2.9
			c0.9,0,1.5-0.5,1.8-1.4l0.7,0.4C34.5,30,33.7,30.6,32.5,30.6z M32.5,24c-1.4,0-1.8,1.1-1.9,2.3h3.5C34.1,25.2,33.8,24,32.5,24z"/>
		<path class="st1" d="M38.5,30.6c-1,0-1.4-0.4-1.4-1.4v-4.9h-1.2v-0.8h1.2v-1.9l0.8-0.3v2.2h1.8v0.8h-1.8v4.9
			c0,0.6,0.3,0.7,0.8,0.7c0.3,0,0.6-0.1,0.9-0.2l0.1,0.7C39.3,30.5,38.9,30.6,38.5,30.6z"/>
		<path class="st1" d="M40.8,22.3V21h1v1.3H40.8z M40.9,30.5v-7h0.8v7H40.9z"/>
		<path class="st1" d="M48,30.5v-5c0-0.9-0.2-1.4-1.2-1.4c-0.8,0-1.5,0.4-2,1v5.4H44v-7h0.8v0.9c0.5-0.5,1.4-1,2.1-1
			c1.6,0,1.9,0.9,1.9,2.2v4.9H48z"/>
		<path class="st1" d="M56.1,23.9c-0.3,0-0.6,0.1-0.9,0.3c0.3,0.4,0.5,1,0.5,1.6c0,1.5-1,2.5-2.5,2.5c-0.4,0-0.8-0.1-1.2-0.3
			c-0.2,0.1-0.5,0.3-0.5,0.6c0,0.4,0.9,0.6,1.2,0.7c0.5,0.1,1,0.2,1.5,0.3c0.9,0.2,2,0.6,2,1.7c0,1.6-1.7,1.8-2.9,1.8
			c-1.1,0-3-0.2-3-1.7c0-0.9,0.6-1.4,1.4-1.7c-0.5-0.2-1-0.5-1-1c0-0.6,0.4-0.9,0.9-1c-0.7-0.4-0.9-1.2-0.9-1.9c0-1.4,1-2.4,2.5-2.4
			c0.6,0,1.1,0.2,1.6,0.5c0.4-0.6,0.8-0.7,1.5-0.7V24C56.3,23.9,56.2,23.9,56.1,23.9z M53.7,30.2L52.5,30c-0.5,0.2-1.2,0.7-1.2,1.4
			c0,1,1.5,1,2.2,1s2.1-0.1,2.1-1C55.5,30.6,54.2,30.3,53.7,30.2z M53.3,24c-1.1,0-1.6,0.8-1.6,1.8s0.5,1.8,1.6,1.8
			c1,0,1.6-0.8,1.6-1.7C54.9,24.8,54.4,24,53.3,24z"/>
	</g>
	<g class="st0">
		<path class="st1" d="M9.5,46c-0.8-0.2-1.3-0.4-1.9-1c-0.6,0.7-1.5,1-2.4,1c-1.4,0-2.7-0.7-2.7-2.3c0-1.4,0.9-2.4,2.2-3
			C4.3,39.9,4,39.5,4,38.5c0-1.2,0.7-2,1.9-2c1.1,0,1.8,0.7,1.8,1.8c0,1.2-1,2.1-2,2.6c0.5,1,1.2,2.2,2,3c0.5-0.6,1-1.7,1.2-2.5
			l0.7,0.2c-0.2,0.9-0.7,2.1-1.3,2.8c0.5,0.5,0.9,0.7,1.6,0.9L9.5,46z M5,41.3c-0.9,0.5-1.6,1.2-1.6,2.3c0,1.2,0.8,1.7,1.9,1.7
			c0.7,0,1.3-0.3,1.8-0.8C6.3,43.5,5.6,42.5,5,41.3z M5.8,37.3c-0.8,0-1.1,0.7-1.1,1.4c0,0.5,0.2,1.3,0.6,1.7
			C6,40,6.8,39.3,6.8,38.5C6.8,37.8,6.5,37.3,5.8,37.3z"/>
		<path class="st1" d="M20.9,45.9v-6.4c0-0.7,0-1.3,0.1-2c-0.2,0.7-0.4,1.5-0.6,2.2l-1.8,6h-0.9l-1.9-6c-0.2-0.7-0.4-1.4-0.6-2.2
			c0.1,0.7,0.1,1.3,0.1,2v6.3h-0.8v-9.1h1.2l1.9,6.2c0.2,0.7,0.4,1.3,0.5,2c0.1-0.7,0.3-1.4,0.5-2l1.8-6.2h1.3v9.1L20.9,45.9
			L20.9,45.9z"/>
		<path class="st1" d="M26.5,46c-2.2,0-2.8-1.9-2.8-3.7c0-1.8,0.7-3.6,2.8-3.6c1.9,0,2.5,1.5,2.5,3.1v0.5h-4.3
			c0,1.3,0.2,2.9,1.9,2.9c0.9,0,1.5-0.5,1.8-1.4l0.7,0.4C28.5,45.4,27.7,46,26.5,46z M26.5,39.4c-1.4,0-1.8,1.1-1.9,2.3h3.5
			C28.1,40.6,27.8,39.4,26.5,39.4z"/>
		<path class="st1" d="M38.6,45.9v-4.7c0-0.8-0.1-1.7-1.1-1.7c-0.8,0-1.5,0.7-1.9,1.3v5.1h-0.8V41c0-0.8-0.3-1.5-1.2-1.5
			c-0.8,0-1.5,0.7-1.9,1.2v5.2h-0.8v-7h0.8v1c0.4-0.7,1.4-1.2,2.1-1.2c0.8,0,1.5,0.4,1.7,1.2c0.5-0.7,1.3-1.2,2.2-1.2
			c1.4,0,1.8,1,1.8,2.2v4.9L38.6,45.9L38.6,45.9z"/>
		<path class="st1" d="M44.5,46c-0.7,0-1.4-0.4-1.9-1v0.9h-0.8v-9.4h0.8v3.1c0.5-0.5,1.4-0.8,2.1-0.8c2,0,2.4,2.1,2.4,3.7
			C47.1,44.1,46.5,46,44.5,46z M44.5,39.4c-0.7,0-1.3,0.3-1.8,0.8v3.9c0.4,0.5,1,1.1,1.6,1.1c1.6,0,1.9-1.6,1.9-2.9
			C46.2,41.3,46,39.4,44.5,39.4z"/>
		<path class="st1" d="M51.4,46c-2.2,0-2.8-1.9-2.8-3.7c0-1.8,0.7-3.6,2.8-3.6c1.9,0,2.5,1.5,2.5,3.1v0.5h-4.3
			c0,1.3,0.2,2.9,1.9,2.9c0.9,0,1.5-0.5,1.8-1.4l0.7,0.4C53.4,45.4,52.6,46,51.4,46z M51.3,39.4c-1.4,0-1.8,1.1-1.9,2.3h3.5
			C53,40.6,52.7,39.4,51.3,39.4z"/>
		<path class="st1" d="M58.4,39.7c-0.9,0.2-1.5,1.1-1.9,1.9v4.3h-0.8v-7h0.8v1.5c0.6-1.1,1.2-1.6,2.5-1.6v0.9
			C58.8,39.6,58.6,39.6,58.4,39.7z"/>
	</g>
	<g class="st0">
		<path class="st1" d="M7.5,56.9c-0.4,1.1-1.2,1.6-2.3,1.6c-2.1,0-2.7-1.7-2.7-3.6c0-1.8,0.6-3.8,2.7-3.8c1.1,0,1.9,0.5,2.2,1.5
			c0.1,0.3,0.2,0.6,0.2,0.8l-0.9,0.1c0-0.2,0-0.4-0.1-0.5c-0.2-0.7-0.7-1.2-1.5-1.2c-1.6,0-1.8,1.9-1.8,3.1s0.2,2.9,1.8,2.9
			c0.8,0,1.3-0.5,1.5-1.2c0.1-0.2,0.1-0.4,0.1-0.5l0.9,0.1C7.6,56.4,7.6,56.7,7.5,56.9z"/>
		<path class="st1" d="M10.8,58.5c-1.8,0-2.2-1.4-2.2-2.9s0.5-2.9,2.2-2.9c1.8,0,2.2,1.4,2.2,2.9C13.1,57.2,12.6,58.5,10.8,58.5z
			 M10.9,53.4c-1.2,0-1.4,1.3-1.4,2.2c0,1,0.1,2.2,1.4,2.2s1.4-1.2,1.4-2.2C12.2,54.7,12.2,53.4,10.9,53.4z"/>
		<path class="st1" d="M20.6,58.4v-3.6c0-0.6-0.1-1.3-0.8-1.3c-0.6,0-1.1,0.5-1.4,0.9v4h-0.8v-3.8c0-0.6-0.2-1.1-0.9-1.1
			c-0.6,0-1.1,0.5-1.4,0.9v4h-0.8v-5.5h0.8v0.8c0.4-0.5,1.1-0.9,1.7-0.9c0.7,0,1.1,0.3,1.3,0.9c0.4-0.5,1-0.9,1.7-0.9
			c1.1,0,1.4,0.8,1.4,1.7v3.9H20.6z"/>
		<path class="st1" d="M29.2,58.4v-3.6c0-0.6-0.1-1.3-0.8-1.3c-0.6,0-1.1,0.5-1.4,0.9v4h-0.8v-3.8c0-0.6-0.2-1.1-0.9-1.1
			c-0.6,0-1.1,0.5-1.4,0.9v4h-0.8v-5.5h0.8v0.8c0.4-0.5,1.1-0.9,1.7-0.9c0.7,0,1.1,0.3,1.3,0.9c0.4-0.5,1-0.9,1.7-0.9
			c1.1,0,1.4,0.8,1.4,1.7v3.9H29.2z"/>
		<path class="st1" d="M34.8,58.4v-0.6c-0.4,0.3-1,0.7-1.6,0.7c-1.2,0-1.5-0.7-1.5-1.8v-3.8h0.8v3.9c0,0.6,0.1,1,0.8,1
			c0.5,0,1.1-0.4,1.5-0.7v-4.2h0.8v5.5H34.8z"/>
		<path class="st1" d="M40.4,58.4v-3.9c0-0.6-0.1-1-0.8-1c-0.5,0-1.1,0.4-1.5,0.7v4.2h-0.8v-5.5h0.8v0.7c0.4-0.4,1-0.7,1.6-0.7
			c1.2,0,1.5,0.7,1.5,1.8v3.8L40.4,58.4L40.4,58.4z"/>
		<path class="st1" d="M43,52.1V51h0.9v1.1H43z M43,58.4v-5.5h0.8v5.5H43z"/>
		<path class="st1" d="M49.3,57.5c-0.4,0.7-1,1-1.8,1c-1.6,0-2.2-1.4-2.2-2.8s0.5-3,2.2-3c0.8,0,1.4,0.3,1.8,1.1
			c0.1,0.2,0.2,0.4,0.2,0.6l-0.8,0.2c-0.1-0.6-0.5-1.1-1.2-1.1c-1.2,0-1.3,1.4-1.3,2.2c0,0.9,0.2,2.2,1.3,2.2c0.6,0,1.1-0.5,1.2-1.1
			l0.8,0.2C49.5,57.1,49.4,57.3,49.3,57.5z"/>
		<path class="st1" d="M53.4,58.4v-0.7c-0.4,0.6-0.9,0.8-1.6,0.8c-0.9,0-1.5-0.6-1.5-1.6c0-1.6,1.9-1.9,3.1-2.1v-0.3
			c0-0.7-0.5-1.1-1.1-1.1c-0.5,0-1,0.3-1.3,0.8l-0.7-0.4c0.4-0.7,1.3-1,2-1c1.1,0,1.9,0.5,1.9,1.7v4L53.4,58.4L53.4,58.4z
			 M53.4,55.4c-0.8,0.1-2.3,0.3-2.3,1.4c0,0.6,0.3,1,0.9,1c0.7,0,1-0.3,1.4-0.8C53.4,57,53.4,55.4,53.4,55.4z"/>
		<path class="st1" d="M57.4,58.5c-0.9,0-1.3-0.4-1.3-1.3v-3.6h-0.9v-0.7h0.9v-1.5l0.8-0.2v1.7h1.3v0.7h-1.3v3.6
			c0,0.5,0.2,0.6,0.6,0.6c0.2,0,0.5-0.1,0.7-0.1l0.1,0.7C58,58.4,57.7,58.5,57.4,58.5z"/>
		<path class="st1" d="M59.2,52.1V51h0.9v1.1H59.2z M59.3,58.4v-5.5h0.8v5.5H59.3z"/>
		<path class="st1" d="M63.7,58.5c-1.8,0-2.2-1.4-2.2-2.9s0.5-2.9,2.2-2.9c1.8,0,2.2,1.4,2.2,2.9C66,57.2,65.5,58.5,63.7,58.5z
			 M63.7,53.4c-1.2,0-1.4,1.3-1.4,2.2c0,1,0.1,2.2,1.4,2.2c1.3,0,1.4-1.2,1.4-2.2C65.1,54.7,65,53.4,63.7,53.4z"/>
		<path class="st1" d="M70.5,58.4v-3.9c0-0.6-0.1-1-0.8-1c-0.5,0-1.1,0.4-1.5,0.7v4.2h-0.8v-5.5h0.8v0.7c0.4-0.4,1-0.7,1.6-0.7
			c1.2,0,1.5,0.7,1.5,1.8v3.8L70.5,58.4L70.5,58.4z"/>
		<path class="st1" d="M74.4,58.5c-0.7,0-1.3-0.2-1.8-0.8c-0.1-0.1-0.2-0.3-0.3-0.4l0.7-0.4c0.2,0.5,0.7,0.9,1.3,0.9
			c0.5,0,1.2-0.2,1.2-0.8c0-1.2-2.9-1-2.9-2.9c0-1.1,0.9-1.4,1.8-1.4c0.6,0,1.2,0.2,1.6,0.7c0.1,0.1,0.2,0.2,0.2,0.3L75.5,54
			c-0.2-0.4-0.7-0.7-1.1-0.7c-0.5,0-1,0.1-1,0.7c0,1.2,2.9,1,2.9,2.8C76.4,58.2,75.5,58.5,74.4,58.5z"/>
	</g>
</g>
</svg>
