<?xml version="1.0" encoding="utf-8"?>
<!-- Generator: Adobe Illustrator 23.0.4, SVG Export Plug-In . SVG Version: 6.00 Build 0)  -->
<svg version="1.1" id="Layer_1" xmlns="http://www.w3.org/2000/svg" xmlns:xlink="http://www.w3.org/1999/xlink" x="0px" y="0px"
	 viewBox="0 0 111 94.1" style="enable-background:new 0 0 111 94.1;" xml:space="preserve">
<style type="text/css">
	.st0{fill:#E6E7E8;stroke:#FFFFFF;stroke-width:0.72;stroke-miterlimit:10;}
	.st1{stroke:#FFFFFF;stroke-width:0.25;stroke-miterlimit:10;}
	.st2{clip-path:url(#SVGID_2_);}
	.st3{fill:#FFFFFF;}
	.st4{clip-path:url(#SVGID_4_);}
	.st5{clip-path:url(#SVGID_6_);}
	.st6{clip-path:url(#SVGID_8_);}
	.st7{fill:#A2B427;stroke:#FFFFFF;stroke-width:0.25;stroke-miterlimit:10;}
	.st8{fill:#BB1C84;stroke:#FFFFFF;stroke-width:0.25;stroke-miterlimit:10;}
	.st9{fill:#51ACE1;stroke:#FFFFFF;stroke-width:0.25;stroke-miterlimit:10;}
	.st10{enable-background:new    ;}
	.st11{fill:#606060;}
	.st12{fill:none;}
</style>
<title>mapLedgend</title>
<rect x="0.4" y="0.4" class="st0" width="110.3" height="93.4"/>
<rect x="8.2" y="72.4" class="st1" width="13.9" height="13.9"/>
<g>
	<g>
		<defs>
			<rect id="SVGID_1_" x="8.6" y="72.8" width="13.1" height="13.1"/>
		</defs>
		<clipPath id="SVGID_2_">
			<use xlink:href="#SVGID_1_"  style="overflow:visible;"/>
		</clipPath>
		<g class="st2">
			<circle class="st3" cx="15.2" cy="85.9" r="1"/>
			<circle class="st3" cx="21.7" cy="85.9" r="1"/>
			<circle class="st3" cx="15.2" cy="79.4" r="1"/>
			<circle class="st3" cx="21.7" cy="79.4" r="1"/>
			<circle class="st3" cx="18.5" cy="82.6" r="1"/>
			<circle class="st3" cx="11.9" cy="82.6" r="1"/>
			<circle class="st3" cx="18.5" cy="76.1" r="1"/>
			<circle class="st3" cx="11.9" cy="76.1" r="1"/>
		</g>
	</g>
</g>
<g>
	<g>
		<defs>
			<rect id="SVGID_3_" x="8.6" y="72.8" width="13.1" height="13.1"/>
		</defs>
		<clipPath id="SVGID_4_">
			<use xlink:href="#SVGID_3_"  style="overflow:visible;"/>
		</clipPath>
		<g class="st4">
			<circle class="st3" cx="8.6" cy="85.9" r="1"/>
			<circle class="st3" cx="8.6" cy="79.4" r="1"/>
		</g>
	</g>
</g>
<g>
	<g>
		<defs>
			<rect id="SVGID_5_" x="8.6" y="72.8" width="13.1" height="13.1"/>
		</defs>
		<clipPath id="SVGID_6_">
			<use xlink:href="#SVGID_5_"  style="overflow:visible;"/>
		</clipPath>
		<g class="st5">
			<circle class="st3" cx="15.2" cy="72.8" r="1"/>
			<circle class="st3" cx="21.7" cy="72.8" r="1"/>
		</g>
	</g>
</g>
<g>
	<g>
		<defs>
			<rect id="SVGID_7_" x="8.6" y="72.8" width="13.1" height="13.1"/>
		</defs>
		<clipPath id="SVGID_8_">
			<use xlink:href="#SVGID_7_"  style="overflow:visible;"/>
		</clipPath>
		<g class="st6">
			<circle class="st3" cx="8.6" cy="72.8" r="1"/>
		</g>
	</g>
</g>
<rect x="8.2" y="7.7" class="st7" width="13.9" height="13.9"/>
<rect x="8.2" y="29.3" class="st8" width="13.9" height="13.9"/>
<rect x="8.2" y="50.8" class="st9" width="13.9" height="13.9"/>
<g>
	<g class="st10">
		<path class="st11" d="M33.6,15.2h-3.7v3h4.3v0.9h-5.4v-8.5h5.4v0.9H30v2.7h3.7L33.6,15.2L33.6,15.2z"/>
		<path class="st11" d="M39.3,19.2c-0.1-0.1-0.1-0.3-0.2-0.7c-0.5,0.5-1.1,0.8-1.8,0.8c-0.6,0-1.1-0.2-1.5-0.5s-0.6-0.8-0.6-1.3
			c0-0.7,0.3-1.2,0.8-1.5s1.2-0.5,2.1-0.5h1.1V15c0-0.4-0.1-0.7-0.3-0.9s-0.6-0.3-1-0.3s-0.7,0.1-1,0.3s-0.4,0.4-0.4,0.7h-1.1
			c0-0.3,0.1-0.6,0.3-0.9s0.5-0.5,0.9-0.7s0.8-0.3,1.3-0.3c0.7,0,1.3,0.2,1.7,0.5s0.6,0.9,0.6,1.5v2.9c0,0.6,0.1,1,0.2,1.4v0.1h-1.1
			V19.2z M37.5,18.4c0.3,0,0.7-0.1,1-0.3s0.5-0.4,0.7-0.7v-1.3h-0.8c-1.3,0-2,0.4-2,1.2c0,0.3,0.1,0.6,0.3,0.8S37.2,18.4,37.5,18.4z
			"/>
		<path class="st11" d="M45.6,17.5c0-0.3-0.1-0.5-0.3-0.7s-0.6-0.3-1.2-0.4s-1-0.3-1.3-0.4s-0.6-0.4-0.7-0.6s-0.2-0.5-0.2-0.8
			c0-0.5,0.2-1,0.7-1.3s1-0.5,1.7-0.5s1.3,0.2,1.7,0.6s0.7,0.8,0.7,1.4h-1.1c0-0.3-0.1-0.6-0.4-0.8s-0.6-0.3-1-0.3s-0.7,0.1-0.9,0.3
			S43,14.3,43,14.5c0,0.3,0.1,0.5,0.3,0.6s0.6,0.3,1.1,0.4s1,0.3,1.3,0.4s0.6,0.4,0.7,0.6s0.2,0.5,0.2,0.9c0,0.6-0.2,1-0.7,1.4
			s-1,0.5-1.8,0.5c-0.5,0-1-0.1-1.3-0.3s-0.7-0.4-0.9-0.8s-0.3-0.7-0.3-1h1.1c0,0.4,0.2,0.7,0.4,0.9s0.6,0.3,1.1,0.3
			c0.4,0,0.7-0.1,1-0.2S45.6,17.8,45.6,17.5z"/>
		<path class="st11" d="M49.6,11.3v1.5h1.2v0.8h-1.2v3.9c0,0.3,0.1,0.4,0.2,0.6s0.3,0.2,0.5,0.2c0.1,0,0.3,0,0.5-0.1v0.9
			c-0.3,0.1-0.6,0.1-0.8,0.1c-0.5,0-0.8-0.1-1.1-0.4s-0.4-0.7-0.4-1.2v-3.9h-1.2v-0.8h1.2v-1.5h1.1V11.3z"/>
		<path class="st11" d="M58.3,15.7h-2v3.5h-1.1v-8.5H58c1,0,1.7,0.2,2.2,0.7s0.8,1.1,0.8,1.9c0,0.5-0.1,1-0.4,1.4s-0.7,0.7-1.2,0.9
			l2,3.6v0.1h-1.2L58.3,15.7z M56.3,14.8H58c0.6,0,1-0.1,1.3-0.4c0.3-0.3,0.5-0.7,0.5-1.2s-0.2-0.9-0.5-1.2s-0.8-0.4-1.4-0.4h-1.7
			v3.2H56.3z"/>
		<path class="st11" d="M65,19.3c-0.9,0-1.6-0.3-2.1-0.8s-0.8-1.3-0.8-2.3V16c0-0.6,0.1-1.2,0.4-1.7s0.6-0.9,1-1.2s0.9-0.4,1.4-0.4
			c0.8,0,1.5,0.3,1.9,0.8s0.7,1.3,0.7,2.3v0.5h-4.3c0,0.6,0.2,1.1,0.5,1.5s0.8,0.6,1.3,0.6c0.4,0,0.7-0.1,1-0.2s0.5-0.4,0.7-0.6
			l0.7,0.5C66.9,18.9,66.1,19.3,65,19.3z M64.9,13.6c-0.4,0-0.8,0.2-1.1,0.5s-0.5,0.8-0.6,1.3h3.2v-0.1c0-0.6-0.2-1-0.4-1.3
			S65.3,13.6,64.9,13.6z"/>
		<path class="st11" d="M68.5,16c0-1,0.2-1.8,0.7-2.4s1.1-0.9,1.8-0.9c0.8,0,1.4,0.3,1.8,0.8l0.1-0.7h1V19c0,0.8-0.2,1.5-0.7,1.9
			s-1.1,0.7-2,0.7c-0.5,0-0.9-0.1-1.3-0.3s-0.8-0.5-1-0.8l0.6-0.7c0.5,0.6,1,0.9,1.7,0.9c0.5,0,0.9-0.1,1.2-0.4s0.4-0.7,0.4-1.3
			v-0.5c-0.4,0.5-1,0.8-1.8,0.8c-0.7,0-1.3-0.3-1.8-0.9S68.5,17,68.5,16z M69.6,16.1c0,0.7,0.1,1.3,0.4,1.7s0.7,0.6,1.2,0.6
			c0.7,0,1.2-0.3,1.5-0.9v-2.9c-0.3-0.6-0.8-0.9-1.5-0.9c-0.5,0-0.9,0.2-1.2,0.6S69.6,15.3,69.6,16.1z"/>
		<path class="st11" d="M75.5,11.2c0-0.2,0.1-0.3,0.2-0.4s0.3-0.2,0.5-0.2s0.4,0.1,0.5,0.2s0.2,0.3,0.2,0.4s-0.1,0.3-0.2,0.4
			s-0.3,0.2-0.5,0.2s-0.4-0.1-0.5-0.2S75.5,11.3,75.5,11.2z M76.7,19.2h-1.1v-6.3h1.1V19.2z"/>
		<path class="st11" d="M78.1,16c0-0.6,0.1-1.2,0.4-1.7s0.6-0.9,1-1.1s0.9-0.4,1.5-0.4c0.9,0,1.6,0.3,2.1,0.9s0.8,1.4,0.8,2.4v0.1
			c0,0.6-0.1,1.2-0.4,1.7s-0.6,0.9-1,1.1s-0.9,0.4-1.5,0.4c-0.9,0-1.6-0.3-2.1-0.9S78.1,17,78.1,16L78.1,16z M79.2,16.1
			c0,0.7,0.2,1.3,0.5,1.7s0.8,0.6,1.3,0.6c0.6,0,1-0.2,1.3-0.6s0.5-1,0.5-1.8c0-0.7-0.2-1.3-0.5-1.7s-0.8-0.6-1.3-0.6
			s-1,0.2-1.3,0.6S79.2,15.3,79.2,16.1z"/>
		<path class="st11" d="M86.3,12.8v0.8c0.5-0.6,1.1-0.9,1.9-0.9c1.3,0,2,0.8,2,2.3v4.2h-1.1V15c0-0.5-0.1-0.8-0.3-1s-0.5-0.3-1-0.3
			c-0.4,0-0.7,0.1-0.9,0.3s-0.5,0.4-0.6,0.7v4.5h-1.1v-6.3h1.1V12.8z"/>
	</g>
</g>
<g>
	<g class="st10">
		<path class="st11" d="M35,38.3c-0.1,0.9-0.4,1.6-1,2.1s-1.3,0.7-2.2,0.7c-1,0-1.8-0.4-2.4-1.1s-0.9-1.7-0.9-2.9v-0.8
			c0-0.8,0.1-1.5,0.4-2.1s0.7-1.1,1.2-1.4s1.1-0.5,1.8-0.5c0.9,0,1.6,0.3,2.2,0.8s0.9,1.2,1,2.1H34c-0.1-0.7-0.3-1.2-0.6-1.5
			s-0.8-0.5-1.4-0.5c-0.7,0-1.3,0.3-1.7,0.8c-0.4,0.5-0.6,1.3-0.6,2.3v0.8c0,0.9,0.2,1.7,0.6,2.2s0.9,0.8,1.6,0.8
			c0.6,0,1.1-0.1,1.4-0.4s0.6-0.8,0.7-1.5h1V38.3z"/>
		<path class="st11" d="M38.9,41.1c-0.9,0-1.6-0.3-2.1-0.8S36,38.9,36,38v-0.2c0-0.6,0.1-1.2,0.4-1.7s0.6-0.9,1-1.2s0.9-0.4,1.4-0.4
			c0.8,0,1.5,0.3,1.9,0.8s0.7,1.3,0.7,2.3v0.5h-4.3c0,0.6,0.2,1.1,0.5,1.5s0.8,0.6,1.3,0.6c0.4,0,0.7-0.1,1-0.2s0.5-0.4,0.7-0.6
			l0.7,0.5C40.8,40.7,40,41.1,38.9,41.1z M38.8,35.4c-0.4,0-0.8,0.2-1.1,0.5s-0.5,0.8-0.6,1.3h3.2v-0.1c0-0.6-0.2-1-0.4-1.3
			S39.2,35.4,38.8,35.4z"/>
		<path class="st11" d="M43.5,34.7v0.8c0.5-0.6,1.1-0.9,1.9-0.9c1.3,0,2,0.8,2,2.3v4.2h-1.1v-4.2c0-0.5-0.1-0.8-0.3-1
			s-0.5-0.3-1-0.3c-0.4,0-0.7,0.1-0.9,0.3s-0.5,0.4-0.6,0.7v4.5h-1.1v-6.3L43.5,34.7L43.5,34.7z"/>
		<path class="st11" d="M50.5,33.1v1.5h1.2v0.8h-1.2v3.9c0,0.3,0.1,0.4,0.2,0.6s0.3,0.2,0.5,0.2c0.1,0,0.3,0,0.5-0.1v0.9
			C51.4,41,51.1,41,50.9,41c-0.5,0-0.8-0.1-1.1-0.4s-0.4-0.7-0.4-1.2v-3.9h-1.2v-0.8h1.2v-1.5L50.5,33.1L50.5,33.1z"/>
	</g>
	<g class="st10">
		<path class="st11" d="M56.1,35.6c-0.2,0-0.3,0-0.5,0c-0.7,0-1.2,0.3-1.4,0.9V41H53v-6.3h1v0.7c0.4-0.6,0.9-0.8,1.5-0.8
			c0.2,0,0.4,0,0.5,0.1L56.1,35.6L56.1,35.6z"/>
	</g>
	<g class="st10">
		<path class="st11" d="M60.7,41c-0.1-0.1-0.1-0.3-0.2-0.7c-0.5,0.5-1.1,0.8-1.8,0.8c-0.6,0-1.1-0.2-1.5-0.5
			c-0.4-0.4-0.6-0.8-0.6-1.3c0-0.7,0.3-1.2,0.8-1.5c0.5-0.4,1.2-0.5,2.1-0.5h1.1v-0.7c0-0.4-0.1-0.7-0.3-0.9s-0.6-0.3-1-0.3
			s-0.7,0.1-1,0.3s-0.4,0.4-0.4,0.7h-1.1c0-0.3,0.1-0.6,0.3-0.9c0.2-0.3,0.5-0.5,0.9-0.7s0.8-0.3,1.3-0.3c0.7,0,1.3,0.2,1.7,0.5
			s0.6,0.9,0.6,1.5v2.9c0,0.6,0.1,1,0.2,1.4v0.1h-1.1V41z M58.9,40.2c0.3,0,0.7-0.1,1-0.3s0.5-0.4,0.7-0.7v-1.3h-0.8
			c-1.3,0-2,0.4-2,1.2c0,0.3,0.1,0.6,0.3,0.8S58.5,40.2,58.9,40.2z"/>
		<path class="st11" d="M64.3,41h-1.1v-9h1.1V41z"/>
		<path class="st11" d="M72.1,37.5h-2V41H69v-8.5h2.8c1,0,1.7,0.2,2.2,0.7s0.8,1.1,0.8,1.9c0,0.5-0.1,1-0.4,1.4s-0.7,0.7-1.2,0.9
			l2,3.6v0.1H74L72.1,37.5z M70.1,36.6h1.7c0.6,0,1-0.1,1.3-0.4c0.3-0.3,0.5-0.7,0.5-1.2s-0.2-0.9-0.5-1.2s-0.8-0.4-1.4-0.4H70
			L70.1,36.6L70.1,36.6z"/>
		<path class="st11" d="M78.7,41.1c-0.9,0-1.6-0.3-2.1-0.8S75.8,39,75.8,38v-0.2c0-0.6,0.1-1.2,0.4-1.7s0.6-0.9,1-1.2
			s0.9-0.4,1.4-0.4c0.8,0,1.5,0.3,1.9,0.8s0.7,1.3,0.7,2.3v0.5h-4.3c0,0.6,0.2,1.1,0.5,1.5s0.8,0.6,1.3,0.6c0.4,0,0.7-0.1,1-0.2
			s0.5-0.4,0.7-0.6l0.7,0.5C80.6,40.7,79.8,41.1,78.7,41.1z M78.6,35.4c-0.4,0-0.8,0.2-1.1,0.5s-0.5,0.8-0.6,1.3h3.2v-0.1
			c0-0.6-0.2-1-0.4-1.3S79,35.4,78.6,35.4z"/>
		<path class="st11" d="M82,37.8c0-1,0.2-1.8,0.7-2.4s1.1-0.9,1.8-0.9c0.8,0,1.4,0.3,1.8,0.8l0.1-0.7h1v6.2c0,0.8-0.2,1.5-0.7,1.9
			s-1.1,0.7-2,0.7c-0.5,0-0.9-0.1-1.3-0.3s-0.8-0.5-1-0.8l0.6-0.7c0.5,0.6,1,0.9,1.7,0.9c0.5,0,0.9-0.1,1.2-0.4s0.4-0.7,0.4-1.3
			v-0.5c-0.4,0.5-1,0.8-1.8,0.8c-0.7,0-1.3-0.3-1.8-0.9S82,38.8,82,37.8z M83.1,37.9c0,0.7,0.1,1.3,0.4,1.7s0.7,0.6,1.2,0.6
			c0.7,0,1.2-0.3,1.5-0.9v-2.9c-0.3-0.6-0.8-0.9-1.5-0.9c-0.5,0-0.9,0.2-1.2,0.6S83.1,37.1,83.1,37.9z"/>
		<path class="st11" d="M88.9,33c0-0.2,0.1-0.3,0.2-0.4s0.3-0.2,0.5-0.2s0.4,0.1,0.5,0.2c0.1,0.1,0.2,0.3,0.2,0.4s-0.1,0.3-0.2,0.4
			s-0.3,0.2-0.5,0.2s-0.4-0.1-0.5-0.2S88.9,33.1,88.9,33z M90.1,41H89v-6.3h1.1V41z"/>
		<path class="st11" d="M91.4,37.8c0-0.6,0.1-1.2,0.4-1.7s0.6-0.9,1-1.1s0.9-0.4,1.5-0.4c0.9,0,1.6,0.3,2.1,0.9s0.8,1.4,0.8,2.4V38
			c0,0.6-0.1,1.2-0.4,1.7s-0.6,0.9-1,1.1s-0.9,0.4-1.5,0.4c-0.9,0-1.6-0.3-2.1-0.9S91.4,38.8,91.4,37.8L91.4,37.8z M92.5,37.9
			c0,0.7,0.2,1.3,0.5,1.7s0.8,0.6,1.3,0.6c0.6,0,1-0.2,1.3-0.6s0.5-1,0.5-1.8c0-0.7-0.2-1.3-0.5-1.7s-0.8-0.6-1.3-0.6
			s-1,0.2-1.3,0.6S92.5,37.1,92.5,37.9z"/>
		<path class="st11" d="M99.5,34.7v0.8c0.5-0.6,1.1-0.9,1.9-0.9c1.3,0,2,0.8,2,2.3v4.2h-1.1v-4.2c0-0.5-0.1-0.8-0.3-1
			s-0.5-0.3-1-0.3c-0.4,0-0.7,0.1-0.9,0.3s-0.5,0.4-0.6,0.7v4.5h-1.1v-6.3L99.5,34.7L99.5,34.7z"/>
	</g>
</g>
<rect x="28.6" y="53.5" class="st12" width="78.9" height="13.1"/>
<g>
	<g class="st10">
		<path class="st11" d="M31.4,59.3l0.2,1.1l0.2-1l1.7-6h0.9l1.6,6l0.2,1l0.2-1.1l1.3-5.8H39L36.9,62h-1l-1.8-6.2L34,55.1l-0.1,0.7
			L32,62h-1l-2.1-8.5H30L31.4,59.3z"/>
	</g>
	<g class="st10">
		<path class="st11" d="M42.5,62.1c-0.9,0-1.6-0.3-2.1-0.8S39.6,60,39.6,59v-0.2c0-0.6,0.1-1.2,0.4-1.7s0.6-0.9,1-1.2
			s0.9-0.4,1.4-0.4c0.8,0,1.5,0.3,1.9,0.8s0.7,1.3,0.7,2.3v0.5h-4.3c0,0.6,0.2,1.1,0.5,1.5s0.8,0.6,1.3,0.6c0.4,0,0.7-0.1,1-0.2
			s0.5-0.4,0.7-0.6l0.7,0.5C44.4,61.7,43.6,62.1,42.5,62.1z M42.4,56.4c-0.4,0-0.8,0.2-1.1,0.5s-0.5,0.8-0.6,1.3h3.2v-0.1
			c0-0.6-0.2-1-0.4-1.3S42.8,56.4,42.4,56.4z"/>
		<path class="st11" d="M49.9,60.3c0-0.3-0.1-0.5-0.3-0.7s-0.6-0.3-1.2-0.4s-1-0.3-1.3-0.4s-0.6-0.4-0.7-0.6s-0.2-0.5-0.2-0.8
			c0-0.5,0.2-1,0.7-1.3s1-0.5,1.7-0.5s1.3,0.2,1.7,0.6S51,57,51,57.6h-1.1c0-0.3-0.1-0.6-0.4-0.8s-0.6-0.3-1-0.3s-0.7,0.1-0.9,0.3
			s-0.3,0.4-0.3,0.7s0.1,0.5,0.3,0.6s0.6,0.3,1.1,0.4s1,0.3,1.3,0.4s0.6,0.4,0.7,0.6s0.2,0.5,0.2,0.9c0,0.6-0.2,1-0.7,1.4
			s-1,0.5-1.8,0.5c-0.5,0-1-0.1-1.3-0.3s-0.7-0.4-0.9-0.8S46,60.4,46,60.1h1c0,0.4,0.2,0.7,0.4,0.9s0.6,0.3,1.1,0.3
			c0.4,0,0.7-0.1,1-0.2S49.9,60.6,49.9,60.3z"/>
		<path class="st11" d="M53.9,54.1v1.5h1.2v0.8h-1.2v4c0,0.3,0.1,0.4,0.2,0.6s0.3,0.2,0.5,0.2c0.1,0,0.3,0,0.5-0.1V62
			c-0.3,0.1-0.6,0.1-0.8,0.1c-0.5,0-0.8-0.1-1.1-0.4s-0.4-0.7-0.4-1.2v-3.9h-1.2v-0.8h1.2v-1.5h1.1V54.1z"/>
		<path class="st11" d="M62.6,58.6h-2v3.5h-1.1v-8.5h2.8c1,0,1.7,0.2,2.2,0.7s0.8,1.1,0.8,1.9c0,0.5-0.1,1-0.4,1.4s-0.7,0.7-1.2,0.9
			l2,3.6v0.1h-1.2L62.6,58.6z M60.6,57.6h1.7c0.6,0,1-0.1,1.3-0.4c0.3-0.3,0.5-0.7,0.5-1.2s-0.2-0.9-0.5-1.2s-0.8-0.4-1.4-0.4h-1.7
			v3.2H60.6z"/>
		<path class="st11" d="M69.3,62.1c-0.9,0-1.6-0.3-2.1-0.8S66.4,60,66.4,59v-0.2c0-0.6,0.1-1.2,0.4-1.7s0.6-0.9,1-1.2
			s0.9-0.4,1.4-0.4c0.8,0,1.5,0.3,1.9,0.8s0.7,1.3,0.7,2.3v0.5h-4.3c0,0.6,0.2,1.1,0.5,1.5s0.8,0.6,1.3,0.6c0.4,0,0.7-0.1,1-0.2
			s0.5-0.4,0.7-0.6l0.7,0.5C71.2,61.7,70.4,62.1,69.3,62.1z M69.2,56.4c-0.4,0-0.8,0.2-1.1,0.5s-0.5,0.8-0.6,1.3h3.2v-0.1
			c0-0.6-0.2-1-0.4-1.3S69.6,56.4,69.2,56.4z"/>
		<path class="st11" d="M72.8,58.8c0-1,0.2-1.8,0.7-2.4s1.1-0.9,1.8-0.9c0.8,0,1.4,0.3,1.8,0.8l0.1-0.7h1v6.2c0,0.8-0.2,1.5-0.7,1.9
			c-0.5,0.4-1.1,0.7-2,0.7c-0.5,0-0.9-0.1-1.3-0.3c-0.4-0.2-0.8-0.5-1-0.8l0.6-0.7c0.5,0.6,1,0.9,1.7,0.9c0.5,0,0.9-0.1,1.2-0.4
			s0.4-0.7,0.4-1.3v-0.4c-0.4,0.5-1,0.8-1.8,0.8c-0.7,0-1.3-0.3-1.8-0.9S72.8,59.8,72.8,58.8z M73.9,58.9c0,0.7,0.1,1.3,0.4,1.7
			s0.7,0.6,1.2,0.6c0.7,0,1.2-0.3,1.5-0.9v-2.9c-0.3-0.6-0.8-0.9-1.5-0.9c-0.5,0-0.9,0.2-1.2,0.6S73.9,58.1,73.9,58.9z"/>
		<path class="st11" d="M79.8,54c0-0.2,0.1-0.3,0.2-0.4s0.3-0.2,0.5-0.2s0.4,0.1,0.5,0.2s0.2,0.3,0.2,0.4s-0.2,0.3-0.3,0.4
			s-0.3,0.2-0.5,0.2s-0.4-0.1-0.5-0.2S79.8,54.2,79.8,54z M81,62h-1.1v-6.3H81V62z"/>
		<path class="st11" d="M82.4,58.8c0-0.6,0.1-1.2,0.4-1.7s0.6-0.9,1-1.1s0.9-0.4,1.5-0.4c0.9,0,1.6,0.3,2.1,0.9s0.8,1.4,0.8,2.4V59
			c0,0.6-0.1,1.2-0.4,1.7s-0.6,0.9-1,1.1s-0.9,0.4-1.5,0.4c-0.9,0-1.6-0.3-2.1-0.9S82.4,59.8,82.4,58.8L82.4,58.8z M83.5,58.9
			c0,0.7,0.2,1.3,0.5,1.7s0.8,0.6,1.3,0.6c0.6,0,1-0.2,1.3-0.6s0.5-1,0.5-1.8c0-0.7-0.2-1.3-0.5-1.7s-0.8-0.7-1.3-0.7
			s-1,0.2-1.3,0.6S83.5,58.1,83.5,58.9z"/>
		<path class="st11" d="M90.6,55.7v0.8c0.5-0.6,1.1-0.9,1.9-0.9c1.3,0,2,0.8,2,2.3v4.2h-1.1v-4.2c0-0.5-0.1-0.8-0.3-1
			s-0.5-0.3-1-0.3c-0.4,0-0.7,0.1-0.9,0.3s-0.5,0.4-0.6,0.7v4.5h-1.1v-6.3L90.6,55.7L90.6,55.7z"/>
	</g>
</g>
<rect x="29.8" y="72.7" class="st12" width="78.9" height="13.1"/>
<g class="st10">
	<path class="st11" d="M35.5,81.6h-3.6l-0.8,2.2h-1.2l3.3-8.5h1l3.3,8.5h-1.2L35.5,81.6z M32.2,80.7h2.9l-1.5-4L32.2,80.7z"/>
	<path class="st11" d="M39.6,83.8h-1.1v-9h1.1V83.8z"/>
	<path class="st11" d="M42.5,83.8h-1.1v-9h1.1V83.8z"/>
	<path class="st11" d="M44.2,75.8c0-0.2,0.1-0.3,0.2-0.4s0.3-0.2,0.5-0.2s0.4,0.1,0.5,0.2s0.2,0.3,0.2,0.4s-0.1,0.3-0.2,0.4
		s-0.3,0.2-0.5,0.2s-0.4-0.1-0.5-0.2S44.2,76,44.2,75.8z M45.4,83.8h-1.1v-6.3h1.1V83.8z"/>
	<path class="st11" d="M51,83.8c-0.1-0.1-0.1-0.3-0.2-0.7c-0.5,0.5-1.1,0.8-1.8,0.8c-0.6,0-1.1-0.2-1.5-0.5S47,82.6,47,82.1
		c0-0.7,0.3-1.2,0.8-1.5s1.2-0.5,2.1-0.5H51v-0.5c0-0.4-0.1-0.7-0.3-0.9s-0.6-0.3-1-0.3s-0.7,0.1-1,0.3s-0.4,0.4-0.4,0.7h-1.1
		c0-0.3,0.1-0.6,0.3-0.9s0.5-0.5,0.9-0.7s0.8-0.3,1.3-0.3c0.7,0,1.3,0.2,1.7,0.5s0.6,0.9,0.6,1.5v2.9c0,0.6,0.1,1,0.2,1.4v0.1
		L51,83.8L51,83.8z M49.2,83c0.3,0,0.7-0.1,1-0.3s0.5-0.4,0.7-0.7v-1.3H50c-1.3,0-2,0.4-2,1.2c0,0.3,0.1,0.6,0.3,0.8
		S48.9,83,49.2,83z"/>
	<path class="st11" d="M54.7,77.5v0.8c0.5-0.6,1.1-0.9,1.9-0.9c1.3,0,2,0.8,2,2.3v4.2h-1.1v-4.2c0-0.5-0.1-0.8-0.3-1s-0.5-0.3-1-0.3
		c-0.4,0-0.7,0.1-0.9,0.3s-0.5,0.4-0.6,0.7v4.5h-1.1v-6.3L54.7,77.5L54.7,77.5z"/>
	<path class="st11" d="M62.8,83.1c0.4,0,0.7-0.1,1-0.4s0.4-0.5,0.5-0.9h1c0,0.4-0.1,0.7-0.4,1s-0.5,0.6-0.9,0.8s-0.8,0.3-1.2,0.3
		c-0.9,0-1.5-0.3-2.1-0.9S60,81.7,60,80.7v-0.2c0-0.6,0.1-1.2,0.3-1.6s0.6-0.9,1-1.1s0.9-0.4,1.5-0.4c0.7,0,1.3,0.2,1.8,0.6
		s0.7,1,0.8,1.7h-1c0-0.4-0.2-0.7-0.5-1s-0.6-0.4-1-0.4c-0.6,0-1,0.2-1.3,0.6s-0.5,1-0.5,1.7v0.2c0,0.7,0.2,1.3,0.5,1.7
		S62.3,83.1,62.8,83.1z"/>
	<path class="st11" d="M69.2,83.9c-0.9,0-1.6-0.3-2.1-0.8s-0.8-1.3-0.8-2.3v-0.2c0-0.6,0.1-1.2,0.4-1.7s0.6-0.9,1-1.2
		s0.9-0.4,1.4-0.4c0.8,0,1.5,0.3,1.9,0.8s0.7,1.3,0.7,2.3V81h-4.3c0,0.6,0.2,1.1,0.5,1.5s0.8,0.6,1.3,0.6c0.4,0,0.7-0.1,1-0.2
		s0.5-0.4,0.7-0.6l0.7,0.5C71.1,83.5,70.3,83.9,69.2,83.9z M69.1,78.3c-0.4,0-0.8,0.2-1.1,0.5s-0.5,0.8-0.6,1.3h3.2V80
		c0-0.6-0.2-1-0.4-1.3S69.5,78.3,69.1,78.3z"/>
</g>
</svg>
