<?xml version="1.0" encoding="utf-8"?>
<!-- Generator: Adobe Illustrator 23.0.4, SVG Export Plug-In . SVG Version: 6.00 Build 0)  -->
<svg version="1.1" id="Layer_1" xmlns="http://www.w3.org/2000/svg" xmlns:xlink="http://www.w3.org/1999/xlink" x="0px" y="0px"
	 viewBox="0 0 846 264" style="enable-background:new 0 0 846 264;" xml:space="preserve">
<style type="text/css">
	.st0{fill:#DBDBDB;}
	.st1{fill:#E7E7E7;}
	.st2{fill:#C1C1C1;}
	.st3{opacity:0.47;}
	.st4{fill:none;stroke:#A0B227;stroke-width:14;stroke-miterlimit:10;}
	.st5{fill:#A0B227;}
	.st6{fill:#FFFFFF;stroke:#0072BA;stroke-width:9;stroke-miterlimit:10;}
	.st7{clip-path:url(#SVGID_2_);}
	.st8{clip-path:url(#SVGID_4_);fill:#FFFFFF;}
	.st9{clip-path:url(#SVGID_6_);fill:#FFFFFF;}
	.st10{clip-path:url(#SVGID_8_);fill:#FFFFFF;}
	.st11{clip-path:url(#SVGID_10_);fill:#FFFFFF;}
	.st12{clip-path:url(#SVGID_12_);fill:#FFFFFF;}
	.st13{clip-path:url(#SVGID_14_);fill:#FFFFFF;}
	.st14{clip-path:url(#SVGID_16_);fill:#FFFFFF;}
	.st15{clip-path:url(#SVGID_18_);fill:#FFFFFF;}
	.st16{clip-path:url(#SVGID_20_);fill:#FFFFFF;}
	.st17{clip-path:url(#SVGID_22_);fill:#FFFFFF;}
	.st18{clip-path:url(#SVGID_24_);fill:#FFFFFF;}
	.st19{clip-path:url(#SVGID_26_);fill:#FFFFFF;}
	.st20{clip-path:url(#SVGID_28_);fill:#FFFFFF;}
	.st21{clip-path:url(#SVGID_30_);fill:#FFFFFF;}
	.st22{clip-path:url(#SVGID_32_);fill:#FFFFFF;}
	.st23{clip-path:url(#SVGID_34_);fill:#FFFFFF;}
	.st24{clip-path:url(#SVGID_36_);fill:#FFFFFF;}
	.st25{clip-path:url(#SVGID_38_);fill:#FFFFFF;}
	.st26{clip-path:url(#SVGID_40_);fill:#FFFFFF;}
	.st27{clip-path:url(#SVGID_42_);fill:#FFFFFF;}
	.st28{clip-path:url(#SVGID_44_);fill:#FFFFFF;}
	.st29{clip-path:url(#SVGID_46_);fill:#FFFFFF;}
	.st30{clip-path:url(#SVGID_48_);fill:#FFFFFF;}
	.st31{clip-path:url(#SVGID_50_);fill:#FFFFFF;}
	.st32{clip-path:url(#SVGID_52_);fill:#FFFFFF;}
	.st33{clip-path:url(#SVGID_54_);fill:#FFFFFF;}
	.st34{clip-path:url(#SVGID_56_);fill:#FFFFFF;}
	.st35{clip-path:url(#SVGID_58_);fill:#FFFFFF;}
	.st36{clip-path:url(#SVGID_60_);fill:#FFFFFF;}
	.st37{clip-path:url(#SVGID_62_);fill:#FFFFFF;}
	.st38{clip-path:url(#SVGID_64_);fill:#FFFFFF;}
	.st39{clip-path:url(#SVGID_66_);fill:#FFFFFF;}
	.st40{clip-path:url(#SVGID_68_);fill:#FFFFFF;}
	.st41{clip-path:url(#SVGID_70_);fill:#0072BA;}
	.st42{clip-path:url(#SVGID_72_);fill:#0072BA;}
	.st43{clip-path:url(#SVGID_74_);fill:#0072BA;}
	.st44{fill:#0072BA;}
	.st45{fill:#FFFFFF;}
	.st46{fill:none;stroke:#DBDBDB;stroke-width:3;stroke-linecap:round;stroke-miterlimit:10;}
</style>
<g>
	<g>
		<g>
			<path class="st0" d="M510.8,36.8l-30.7,28.3V108h0.1c23.3,0,42.2-18.9,42.2-42.2C522.4,54.6,518,44.4,510.8,36.8"/>
			<path class="st1" d="M480.1,23.6c-23.3,0-42.1,18.9-42.1,42.2s18.8,42.1,42.1,42.2V65.2V23.6z"/>
			<path class="st2" d="M488.7,17.2c7.8,0.8,15.1,3.9,21,9l-21,19.4V17.2 M484.9,13.1C484.9,13.1,484.8,13.1,484.9,13.1l-0.1,41.5
				l30.7-28.3C507.8,18.1,497,13.1,484.9,13.1"/>
		</g>
	</g>
</g>
<g class="st3">
	<g>
		<g>
			<path class="st2" d="M282.8,77.8c0-0.1,0-0.2,0-0.3h-11.1c0,0.1,0,0.2,0,0.3c0,18.3-14.9,33.2-33.2,33.2s-33.2-15-33.2-33.2
				c0-18.3,14.9-33.2,33.2-33.2c0.3,0,0.6,0,0.8,0V33.5c-0.3,0-0.6,0-0.8,0c-24.4,0-44.2,19.8-44.2,44.2s19.8,44.2,44.2,44.2
				S282.8,102.2,282.8,77.8"/>
			<path class="st0" d="M271.7,77.4h11.1c-0.2-24-19.5-43.4-43.4-43.9v11.1C257.1,45,271.5,59.5,271.7,77.4"/>
		</g>
	</g>
</g>
<g>
	<g>
		<polyline class="st4" points="125.5,166.5 192.5,228.5 316.5,100.5 446.5,200.5 598.5,67.5 701.5,165.5 814,53.3 		"/>
		<g>
			<polygon class="st5" points="818.4,95.1 810.4,94.8 811.9,55.4 772.6,56.8 772.3,48.8 820.2,47.2 			"/>
		</g>
	</g>
</g>
<circle class="st6" cx="91" cy="117" r="75"/>
<g>
	<g>
		<g>
			<defs>
				<rect id="SVGID_1_" x="331" y="12" width="153.2" height="153.2"/>
			</defs>
			<clipPath id="SVGID_2_">
				<use xlink:href="#SVGID_1_"  style="overflow:visible;"/>
			</clipPath>
			<g class="st7">
				<g>
					<defs>
						<rect id="SVGID_3_" x="331" y="12" width="153.2" height="153.2"/>
					</defs>
					<clipPath id="SVGID_4_">
						<use xlink:href="#SVGID_3_"  style="overflow:visible;"/>
					</clipPath>
					<path class="st8" d="M409.1,102.6h9.2c-0.7-2.2-1.2-4.4-1.7-6.5h-9.2C407.8,98.2,408.4,100.4,409.1,102.6"/>
				</g>
				<g>
					<defs>
						<rect id="SVGID_5_" x="331" y="12" width="153.2" height="153.2"/>
					</defs>
					<clipPath id="SVGID_6_">
						<use xlink:href="#SVGID_5_"  style="overflow:visible;"/>
					</clipPath>
					<path class="st9" d="M426,75.6c0-2.5,0-4.8,0.1-6.9h-9.3c-0.1,2.1-0.2,4.5-0.2,6.9H426z"/>
				</g>
				<g>
					<defs>
						<rect id="SVGID_7_" x="331" y="12" width="153.2" height="153.2"/>
					</defs>
					<clipPath id="SVGID_8_">
						<use xlink:href="#SVGID_7_"  style="overflow:visible;"/>
					</clipPath>
					<path class="st10" d="M417.5,87c0.1,0.9,0.2,1.7,0.4,2.6c0.2,1.3,0.4,2.6,0.7,3.9h4.9h4.3c-0.2-1.1-0.4-2.3-0.6-3.4
						s-0.3-2.1-0.4-3.2h-4.1L417.5,87L417.5,87z"/>
				</g>
				<g>
					<defs>
						<rect id="SVGID_9_" x="331" y="12" width="153.2" height="153.2"/>
					</defs>
					<clipPath id="SVGID_10_">
						<use xlink:href="#SVGID_9_"  style="overflow:visible;"/>
					</clipPath>
					<path class="st11" d="M416.8,78c0.1,1.6,0.2,3.4,0.3,5.1c0,0.5,0.1,1,0.1,1.4h1.9h7.3c-0.2-2.3-0.4-4.4-0.4-6.5H416.8z"/>
				</g>
				<g>
					<defs>
						<rect id="SVGID_11_" x="331" y="12" width="153.2" height="153.2"/>
					</defs>
					<clipPath id="SVGID_12_">
						<use xlink:href="#SVGID_11_"  style="overflow:visible;"/>
					</clipPath>
					<path class="st12" d="M419.1,96c0.5,2.2,1.1,4.3,1.8,6.5h9.2c-0.6-1.8-1.1-3.7-1.5-5.5c-0.1-0.4-0.2-0.7-0.2-1.1H427L419.1,96
						L419.1,96z"/>
				</g>
				<g>
					<defs>
						<rect id="SVGID_13_" x="331" y="12" width="153.2" height="153.2"/>
					</defs>
					<clipPath id="SVGID_14_">
						<use xlink:href="#SVGID_13_"  style="overflow:visible;"/>
					</clipPath>
					<path class="st13" d="M405.7,87c0.3,2.2,0.6,4.4,1.1,6.5h9.2c-0.4-2-0.7-3.9-0.9-5.8c0-0.2-0.1-0.5-0.1-0.7h-0.9H405.7z"/>
				</g>
				<g>
					<defs>
						<rect id="SVGID_15_" x="331" y="12" width="153.2" height="153.2"/>
					</defs>
					<clipPath id="SVGID_16_">
						<use xlink:href="#SVGID_15_"  style="overflow:visible;"/>
					</clipPath>
					<path class="st14" d="M397.4,102.6h9.2c-0.7-2.1-1.2-4.3-1.7-6.5h-9.2C396.1,98.2,396.7,100.4,397.4,102.6"/>
				</g>
				<g>
					<defs>
						<rect id="SVGID_17_" x="331" y="12" width="153.2" height="153.2"/>
					</defs>
					<clipPath id="SVGID_18_">
						<use xlink:href="#SVGID_17_"  style="overflow:visible;"/>
					</clipPath>
					<path class="st15" d="M405.5,84.6h5.1h4.2c-0.1-1.1-0.2-2.2-0.3-3.2c-0.1-1.1-0.1-2.2-0.2-3.3h-4.6H405c0,0.9,0.1,1.9,0.1,2.8
						C405.2,82.1,405.3,83.3,405.5,84.6"/>
				</g>
				<g>
					<defs>
						<rect id="SVGID_19_" x="331" y="12" width="153.2" height="153.2"/>
					</defs>
					<clipPath id="SVGID_20_">
						<use xlink:href="#SVGID_19_"  style="overflow:visible;"/>
					</clipPath>
					<path class="st16" d="M437.7,75.6c0-2.5,0-4.8,0.1-6.9h-9.3c-0.1,2.1-0.2,4.5-0.2,6.9H437.7z"/>
				</g>
				<g>
					<defs>
						<rect id="SVGID_21_" x="331" y="12" width="153.2" height="153.2"/>
					</defs>
					<clipPath id="SVGID_22_">
						<use xlink:href="#SVGID_21_"  style="overflow:visible;"/>
					</clipPath>
					<polygon class="st17" points="364.8,127.7 455.7,127.7 460.5,122.9 369.6,122.9 					"/>
				</g>
				<g>
					<defs>
						<rect id="SVGID_23_" x="331" y="12" width="153.2" height="153.2"/>
					</defs>
					<clipPath id="SVGID_24_">
						<use xlink:href="#SVGID_23_"  style="overflow:visible;"/>
					</clipPath>
					<path class="st18" d="M395,93.6h9.3c-0.4-2.1-0.8-4.3-1-6.5H394C394.3,89.2,394.6,91.4,395,93.6"/>
				</g>
				<g>
					<defs>
						<rect id="SVGID_25_" x="331" y="12" width="153.2" height="153.2"/>
					</defs>
					<clipPath id="SVGID_26_">
						<use xlink:href="#SVGID_25_"  style="overflow:visible;"/>
					</clipPath>
					<path class="st19" d="M357.2,54.3l-3.7,3.7c-1,4.9-6.8,36.6,6.2,67.9l5.9-5.9C354,93.4,355.4,67,357.2,54.3"/>
				</g>
				<g>
					<defs>
						<rect id="SVGID_27_" x="331" y="12" width="153.2" height="153.2"/>
					</defs>
					<clipPath id="SVGID_28_">
						<use xlink:href="#SVGID_27_"  style="overflow:visible;"/>
					</clipPath>
					<path class="st20" d="M440.7,84.6h7.9c-0.3-2.3-0.5-4.5-0.6-6.5h-7.7C440.3,80.1,440.5,82.3,440.7,84.6"/>
				</g>
				<g>
					<defs>
						<rect id="SVGID_29_" x="331" y="12" width="153.2" height="153.2"/>
					</defs>
					<clipPath id="SVGID_30_">
						<use xlink:href="#SVGID_29_"  style="overflow:visible;"/>
					</clipPath>
					<path class="st21" d="M442,93.6h7.9c-0.4-2.3-0.8-4.4-1-6.5h-0.1H441C441.2,89.2,441.6,91.3,442,93.6"/>
				</g>
				<g>
					<defs>
						<rect id="SVGID_31_" x="331" y="12" width="153.2" height="153.2"/>
					</defs>
					<clipPath id="SVGID_32_">
						<use xlink:href="#SVGID_31_"  style="overflow:visible;"/>
					</clipPath>
					<path class="st22" d="M447.8,75.6c-0.1-2.6-0.2-4.9-0.1-6.9h-7.4c-0.1,2.1-0.2,4.5-0.2,6.9H447.8z"/>
				</g>
				<g>
					<defs>
						<rect id="SVGID_33_" x="331" y="12" width="153.2" height="153.2"/>
					</defs>
					<clipPath id="SVGID_34_">
						<use xlink:href="#SVGID_33_"  style="overflow:visible;"/>
					</clipPath>
					<path class="st23" d="M428.5,78c0.1,2.1,0.2,4.3,0.4,6.5h9.3c-0.2-2.3-0.4-4.4-0.4-6.5H428.5z"/>
				</g>
				<g>
					<defs>
						<rect id="SVGID_35_" x="331" y="12" width="153.2" height="153.2"/>
					</defs>
					<clipPath id="SVGID_36_">
						<use xlink:href="#SVGID_35_"  style="overflow:visible;"/>
					</clipPath>
					<path class="st24" d="M430,92.2c0.1,0.5,0.2,0.9,0.3,1.4h1.8h7.5c-0.4-2.2-0.8-4.4-1-6.5h-9.3C429.4,88.7,429.7,90.4,430,92.2"
						/>
				</g>
				<g>
					<defs>
						<rect id="SVGID_37_" x="331" y="12" width="153.2" height="153.2"/>
					</defs>
					<clipPath id="SVGID_38_">
						<use xlink:href="#SVGID_37_"  style="overflow:visible;"/>
					</clipPath>
					<path class="st25" d="M430.8,96c0.2,1.1,0.5,2.1,0.8,3.2s0.6,2.2,1,3.3h3.8h5.4c-0.3-0.9-0.6-1.9-0.8-2.8
						c-0.3-1.3-0.6-2.5-0.9-3.7h-4.5H430.8z"/>
				</g>
				<g>
					<defs>
						<rect id="SVGID_39_" x="331" y="12" width="153.2" height="153.2"/>
					</defs>
					<clipPath id="SVGID_40_">
						<use xlink:href="#SVGID_39_"  style="overflow:visible;"/>
					</clipPath>
					<path class="st26" d="M383.3,93.6h9.2c-0.4-2.1-0.8-4.3-1-6.5h-9.3C382.5,89.2,382.9,91.4,383.3,93.6"/>
				</g>
				<g>
					<defs>
						<rect id="SVGID_41_" x="331" y="12" width="153.2" height="153.2"/>
					</defs>
					<clipPath id="SVGID_42_">
						<use xlink:href="#SVGID_41_"  style="overflow:visible;"/>
					</clipPath>
					<path class="st27" d="M421.7,105c0.7,2,1.5,4.1,2.4,6.1h9.1c-0.9-2-1.6-4.1-2.3-6.1H421.7z"/>
				</g>
				<g>
					<defs>
						<rect id="SVGID_43_" x="331" y="12" width="153.2" height="153.2"/>
					</defs>
					<clipPath id="SVGID_44_">
						<use xlink:href="#SVGID_43_"  style="overflow:visible;"/>
					</clipPath>
					<path class="st28" d="M398.2,105c0.7,2.1,1.5,4.1,2.4,6.1h9.1c-0.9-2-1.6-4-2.3-6.1H398.2z"/>
				</g>
				<g>
					<defs>
						<rect id="SVGID_45_" x="331" y="12" width="153.2" height="153.2"/>
					</defs>
					<clipPath id="SVGID_46_">
						<use xlink:href="#SVGID_45_"  style="overflow:visible;"/>
					</clipPath>
					<path class="st29" d="M442.6,105h-2.7h-6.5c0.7,2,1.5,4.1,2.4,6.1h9.1c-0.5-1.2-1-2.4-1.5-3.6
						C443.1,106.6,442.8,105.8,442.6,105"/>
				</g>
				<g>
					<defs>
						<rect id="SVGID_47_" x="331" y="12" width="153.2" height="153.2"/>
					</defs>
					<clipPath id="SVGID_48_">
						<use xlink:href="#SVGID_47_"  style="overflow:visible;"/>
					</clipPath>
					<path class="st30" d="M409.9,105c0.7,2.1,1.5,4.1,2.4,6.1h9.1c-0.9-2-1.6-4.1-2.3-6.1H409.9z"/>
				</g>
				<g>
					<defs>
						<rect id="SVGID_49_" x="331" y="12" width="153.2" height="153.2"/>
					</defs>
					<clipPath id="SVGID_50_">
						<use xlink:href="#SVGID_49_"  style="overflow:visible;"/>
					</clipPath>
					<path class="st31" d="M442.6,96c0.5,2,1,4,1.6,6c0.1,0.2,0.1,0.4,0.2,0.6h0.6h6.9c-0.6-2.2-1.1-4.4-1.5-6.5L442.6,96L442.6,96z
						"/>
				</g>
				<g>
					<defs>
						<rect id="SVGID_51_" x="331" y="12" width="153.2" height="153.2"/>
					</defs>
					<clipPath id="SVGID_52_">
						<use xlink:href="#SVGID_51_"  style="overflow:visible;"/>
					</clipPath>
					<path class="st32" d="M455.9,49.5h-87.2h-5.8c-0.1,0.5-0.2,1.1-0.3,1.7c-1.6,9.9-4.8,38.7,7.5,66.8h88.5h4.5
						c-0.4-1.2-0.7-2.4-1.1-3.6C452.7,82.1,454.8,57.7,455.9,49.5 M370.1,56.8h0.6h8.6h25c1.4,0,2.5,1.1,2.5,2.5s-1.1,2.4-2.5,2.4
						h-17.9h-8.6h-7.6c-1.4,0-2.4-1.1-2.4-2.4C367.6,57.9,368.7,56.8,370.1,56.8 M454.1,104.9c-0.1,0.1-0.2,0.1-0.3,0.1
						c-0.1,0-0.2,0-0.3,0c-0.1,0-0.1,0-0.2,0h-4.8h-3.3c0.6,1.7,1.2,3.3,1.9,5c0.3,0.6,0.5,1.2,0.8,1.8l0,0v0.1c0,0.1,0,0.1,0,0.2
						l0,0c0,0.1,0,0.1,0,0.2l0,0l0,0c0,0.1,0,0.1,0,0.2c0,0,0,0,0,0.1s0,0.1,0,0.2c0,0,0,0,0,0.1c0,0,0,0.1-0.1,0.1c0,0,0,0,0,0.1
						l-0.1,0.1c0,0,0,0-0.1,0.1l-0.1,0.1c0,0-0.1,0-0.1,0.1c0,0-0.1,0-0.1,0.1l0,0c-0.1,0-0.1,0-0.2,0.1c0,0,0,0-0.1,0s-0.1,0-0.2,0
						l0,0l0,0H435h-11.7h-11.7h-11.7h-11.7h-11.3c-0.5,0-0.9-0.3-1.1-0.7c-5-10.9-7.7-23-7.9-36l0,0v-0.1v-0.1v-0.1v-0.1
						c0,0,0-0.1,0.1-0.1c0,0,0-0.1,0.1-0.1c0,0,0-0.1,0.1-0.1l0.1-0.1c0,0,0.1,0,0.1-0.1l0.1-0.1h0.1c0,0,0.1,0,0.1-0.1h0.1h0.1h0.1
						h0.1l0,0h28.6h8.6h8c0-3,0.1-5.7,0.2-8.2c0,0,0,0,0-0.1v-0.1v-0.1v-0.1v-0.1c0,0,0-0.1,0.1-0.1c0,0,0,0,0.1-0.1l0.1-0.1l0,0
						c0,0,0.1-0.1,0.2-0.1l0,0c0.1,0,0.1-0.1,0.2-0.1l0,0c0.1,0,0.1,0,0.2,0c0,0,0,0,0.1,0h0.1h33.2c0.3,0,0.6,0.1,0.9,0.4
						c0.2,0.2,0.4,0.6,0.3,0.9c-0.2,7.9,0.4,20.6,4.4,35.7c0.1,0.2,0.2,0.4,0.2,0.6C454.7,104.2,454.5,104.6,454.1,104.9"/>
				</g>
				<g>
					<defs>
						<rect id="SVGID_53_" x="331" y="12" width="153.2" height="153.2"/>
					</defs>
					<clipPath id="SVGID_54_">
						<use xlink:href="#SVGID_53_"  style="overflow:visible;"/>
					</clipPath>
					<path class="st33" d="M379.1,78h-8.8c0.1,2.2,0.2,4.4,0.4,6.5h8.8C379.3,82.4,379.2,80.2,379.1,78"/>
				</g>
				<g>
					<defs>
						<rect id="SVGID_55_" x="331" y="12" width="153.2" height="153.2"/>
					</defs>
					<clipPath id="SVGID_56_">
						<use xlink:href="#SVGID_55_"  style="overflow:visible;"/>
					</clipPath>
					<path class="st34" d="M391.2,84.6c-0.2-2.2-0.3-4.3-0.4-6.5h-9.3c0.1,2.2,0.2,4.4,0.4,6.5H391.2z"/>
				</g>
				<g>
					<defs>
						<rect id="SVGID_57_" x="331" y="12" width="153.2" height="153.2"/>
					</defs>
					<clipPath id="SVGID_58_">
						<use xlink:href="#SVGID_57_"  style="overflow:visible;"/>
					</clipPath>
					<path class="st35" d="M403,84.6c-0.2-1.8-0.3-3.7-0.4-5.5c0-0.3,0-0.7,0-1h-1.4h-7.9c0.1,2.2,0.2,4.4,0.4,6.5H403z"/>
				</g>
				<g>
					<defs>
						<rect id="SVGID_59_" x="331" y="12" width="153.2" height="153.2"/>
					</defs>
					<clipPath id="SVGID_60_">
						<use xlink:href="#SVGID_59_"  style="overflow:visible;"/>
					</clipPath>
					<path class="st36" d="M385.6,102.6h9.2c-0.7-2.1-1.2-4.3-1.7-6.5h-9.2C384.3,98.2,384.9,100.4,385.6,102.6"/>
				</g>
				<g>
					<defs>
						<rect id="SVGID_61_" x="331" y="12" width="153.2" height="153.2"/>
					</defs>
					<clipPath id="SVGID_62_">
						<use xlink:href="#SVGID_61_"  style="overflow:visible;"/>
					</clipPath>
					<path class="st37" d="M386.4,105c0.7,2.1,1.5,4.1,2.4,6.1h9.1c-0.9-2-1.6-4-2.3-6.1H386.4z"/>
				</g>
				<g>
					<defs>
						<rect id="SVGID_63_" x="331" y="12" width="153.2" height="153.2"/>
					</defs>
					<clipPath id="SVGID_64_">
						<use xlink:href="#SVGID_63_"  style="overflow:visible;"/>
					</clipPath>
					<path class="st38" d="M381.3,96h-8.8c0.5,2.2,1.1,4.4,1.8,6.5h8.7C382.4,100.4,381.8,98.2,381.3,96"/>
				</g>
				<g>
					<defs>
						<rect id="SVGID_65_" x="331" y="12" width="153.2" height="153.2"/>
					</defs>
					<clipPath id="SVGID_66_">
						<use xlink:href="#SVGID_65_"  style="overflow:visible;"/>
					</clipPath>
					<path class="st39" d="M375.2,105c0.7,2.1,1.5,4.1,2.4,6.1h8.6c-0.9-2-1.6-4-2.3-6.1H375.2z"/>
				</g>
				<g>
					<defs>
						<rect id="SVGID_67_" x="331" y="12" width="153.2" height="153.2"/>
					</defs>
					<clipPath id="SVGID_68_">
						<use xlink:href="#SVGID_67_"  style="overflow:visible;"/>
					</clipPath>
					<path class="st40" d="M379.8,87H371c0.3,2.2,0.6,4.4,1.1,6.6c0.1,0,0.2-0.1,0.3-0.1h8.4C380.4,91.4,380,89.2,379.8,87"/>
				</g>
				<g>
					<defs>
						<rect id="SVGID_69_" x="331" y="12" width="153.2" height="153.2"/>
					</defs>
					<clipPath id="SVGID_70_">
						<use xlink:href="#SVGID_69_"  style="overflow:visible;"/>
					</clipPath>
					<path class="st41" d="M370.1,61.7h7.6h8.6h17.9c1.4,0,2.4-1.1,2.4-2.5s-1.1-2.5-2.4-2.5h-25h-8.6H370c-1.4,0-2.5,1.1-2.5,2.5
						C367.6,60.6,368.7,61.7,370.1,61.7"/>
				</g>
				<g>
					<defs>
						<rect id="SVGID_71_" x="331" y="12" width="153.2" height="153.2"/>
					</defs>
					<clipPath id="SVGID_72_">
						<use xlink:href="#SVGID_71_"  style="overflow:visible;"/>
					</clipPath>
					<path class="st42" d="M468.8,119.7c-13.6-41.4-7.6-71.9-7.6-72.2c0.1-0.7,0-1.5-0.5-2c-0.5-0.6-1.2-0.9-1.9-0.9h-97.9h-0.1
						c-0.1,0-0.1,0-0.2,0s-0.2,0-0.2,0c-0.1,0-0.1,0-0.2,0s-0.1,0.1-0.2,0.1s-0.1,0-0.2,0.1c-0.1,0-0.1,0.1-0.2,0.1
						s-0.1,0.1-0.1,0.1c-0.1,0-0.1,0.1-0.2,0.2c0,0-0.1,0-0.1,0.1l-9.7,9.7c-0.3,0.3-0.5,0.7-0.7,1.2c-0.4,1.6-8.9,38.5,7.8,75
						c0.1,0.1,0.1,0.2,0.2,0.3l0,0c0.1,0.1,0.2,0.2,0.3,0.3l0,0l0,0c0.1,0.1,0.2,0.2,0.3,0.3l0,0c0.1,0.1,0.2,0.1,0.4,0.2h0.1
						c0.1,0,0.2,0.1,0.3,0.1h0.1c0.1,0,0.3,0,0.4,0h97.9c0.7,0,1.3-0.3,1.7-0.7l9.7-9.7c0.1-0.1,0.1-0.1,0.1-0.2l0.1-0.1
						c0,0,0,0,0-0.1c0.1-0.1,0.1-0.2,0.2-0.3c0-0.1,0.1-0.1,0.1-0.2s0.1-0.2,0.1-0.4c0-0.1,0-0.1,0-0.2s0-0.3,0-0.4V120l0,0
						C468.9,120.1,468.8,119.9,468.8,119.7L468.8,119.7 M353.5,58l3.7-3.7c-1.7,12.7-3.1,39.2,8.5,65.7l-5.9,5.9
						C346.7,94.5,352.4,62.9,353.5,58 M455.7,127.7h-91l4.8-4.8h91L455.7,127.7z M458.6,118h-88.5c-12.3-28.1-9.2-56.9-7.5-66.8
						c0.1-0.7,0.2-1.2,0.3-1.7h5.8h87.2c-1.2,8.2-3.2,32.6,6.1,64.9c0.3,1.2,0.7,2.4,1.1,3.6C463.1,118,458.6,118,458.6,118z"/>
				</g>
				<g>
					<defs>
						<rect id="SVGID_73_" x="331" y="12" width="153.2" height="153.2"/>
					</defs>
					<clipPath id="SVGID_74_">
						<use xlink:href="#SVGID_73_"  style="overflow:visible;"/>
					</clipPath>
					<path class="st43" d="M450.2,67.5c0-0.3-0.1-0.6-0.3-0.9c-0.2-0.2-0.5-0.4-0.9-0.4h-33.2h-0.1c0,0,0,0-0.1,0s-0.1,0-0.2,0l0,0
						c-0.1,0-0.1,0.1-0.2,0.1l0,0c-0.1,0-0.1,0.1-0.2,0.1l0,0l-0.1,0.1c0,0,0,0-0.1,0.1l-0.1,0.1v0.1v0.1V67v0.1c0,0,0,0,0,0.1
						c-0.2,2.5-0.3,5.3-0.2,8.2h-8h-8.6H369l0,0h-0.1h-0.1h-0.1h-0.1c0,0-0.1,0-0.1,0.1h-0.1l-0.1,0.1c0,0-0.1,0-0.1,0.1l-0.1,0.1
						c0,0,0,0.1-0.1,0.1c0,0,0,0.1-0.1,0.1c0,0,0,0.1-0.1,0.1v0.1v0.1v0.1v0.1l0,0c0.3,13,2.9,25.1,7.9,36c0.2,0.4,0.6,0.7,1.1,0.7
						h11.3h11.7h11.7h11.7H435h11.7l0,0l0,0c0.1,0,0.1,0,0.2,0c0,0,0,0,0.1,0s0.1,0,0.2-0.1l0,0c0,0,0.1,0,0.1-0.1
						c0,0,0.1,0,0.1-0.1l0.1-0.1c0,0,0,0,0.1-0.1l0.1-0.1c0,0,0,0,0-0.1l0.1-0.1c0,0,0,0,0-0.1s0-0.1,0-0.2c0,0,0,0,0-0.1
						s0-0.1,0-0.2l0,0l0,0c0-0.1,0-0.1,0-0.2l0,0c0-0.1,0-0.1,0-0.2v-0.1l0,0c-0.3-0.6-0.5-1.2-0.8-1.8c-0.7-1.7-1.4-3.3-1.9-5h3.3
						h4.8c0.1,0,0.1,0,0.2,0s0.2,0,0.3,0c0.1,0,0.2-0.1,0.3-0.1c0.4-0.2,0.6-0.6,0.6-1.1c0-0.2-0.1-0.4-0.2-0.6
						C450.6,88,450,75.4,450.2,67.5 M448.9,87c0.3,2.1,0.6,4.3,1,6.5H442c-0.4-2.2-0.8-4.4-1.1-6.5h7.8C448.8,87,448.8,87,448.9,87
						 M448.6,84.6h-7.9c-0.2-2.3-0.4-4.4-0.4-6.5h7.7C448.1,80.1,448.3,82.3,448.6,84.6 M440.3,68.7h7.4c0,2,0,4.4,0.1,6.9h-7.6
						C440.2,73.1,440.2,70.8,440.3,68.7 M441,99.8c0.2,0.9,0.5,1.9,0.8,2.8h-5.4h-3.8c-0.4-1.1-0.7-2.2-1-3.3
						c-0.3-1.1-0.6-2.2-0.8-3.2h4.8h4.5C440.3,97.3,440.6,98.5,441,99.8 M439.5,93.6H432h-1.8c-0.1-0.5-0.2-0.9-0.3-1.4
						c-0.3-1.7-0.6-3.4-0.8-5.1h9.3C438.8,89.2,439.1,91.3,439.5,93.6 M428.9,84.6c-0.2-2.3-0.4-4.4-0.4-6.5h9.3
						c0.1,2.1,0.2,4.3,0.4,6.5H428.9z M428.6,68.7h9.3c-0.1,2.1-0.2,4.5-0.1,6.9h-9.3C428.4,73.1,428.5,70.8,428.6,68.7 M428.5,97.1
						c0.4,1.8,0.9,3.6,1.5,5.5h-9.2c-0.7-2.2-1.3-4.4-1.8-6.5h7.9h1.3C428.4,96.4,428.5,96.7,428.5,97.1 M427.2,90.2
						c0.2,1.1,0.4,2.2,0.6,3.4h-4.3h-4.9c-0.3-1.3-0.5-2.6-0.7-3.9c-0.1-0.9-0.3-1.8-0.4-2.6h5.2h4.1
						C426.9,88.1,427,89.1,427.2,90.2 M419.1,84.6h-1.9c0-0.5-0.1-1-0.1-1.4c-0.2-1.8-0.3-3.5-0.3-5.1h9.3c0.1,2.1,0.2,4.3,0.4,6.5
						H419.1z M416.9,68.7h9.3c-0.1,2.1-0.2,4.5-0.1,6.9h-9.3C416.7,73.1,416.7,70.8,416.9,68.7 M418.3,102.6h-9.2
						c-0.7-2.1-1.3-4.3-1.8-6.5h9.2C417.1,98.2,417.6,100.4,418.3,102.6 M415,87c0,0.2,0.1,0.5,0.1,0.7c0.3,1.9,0.6,3.8,0.9,5.8
						h-9.2c-0.4-2.1-0.8-4.3-1.1-6.5h8.3H415z M409.7,78h4.6c0,1.1,0.1,2.2,0.2,3.3c0.1,1.1,0.2,2.1,0.3,3.2h-4.2h-5.1
						c-0.1-1.2-0.2-2.5-0.3-3.8c-0.1-0.9-0.1-1.9-0.1-2.8h4.6V78z M406.5,102.6h-9.2c-0.7-2.1-1.3-4.3-1.8-6.5h9.2
						C405.3,98.2,405.9,100.4,406.5,102.6 M404.3,93.6H395c-0.4-2.1-0.8-4.3-1.1-6.5h9.3C403.5,89.2,403.9,91.4,404.3,93.6
						 M401.2,78h1.4c0,0.3,0,0.7,0,1c0.1,1.9,0.2,3.7,0.4,5.5h-9.3c-0.2-2.2-0.4-4.3-0.4-6.5H401.2z M394.8,102.6h-9.2
						c-0.7-2.1-1.3-4.3-1.8-6.5h9.2C393.6,98.2,394.1,100.4,394.8,102.6 M392.5,93.6h-9.2c-0.4-2.1-0.8-4.3-1.1-6.5h9.3
						C391.8,89.2,392.1,91.4,392.5,93.6 M390.8,78c0.1,2.2,0.2,4.4,0.4,6.5H382c-0.2-2.2-0.4-4.3-0.4-6.5H390.8z M370.3,78h8.8
						c0.1,2.2,0.2,4.4,0.4,6.5h-8.8C370.5,82.4,370.3,80.3,370.3,78 M372,93.6c-0.4-2.2-0.8-4.4-1.1-6.6h8.8c0.3,2.2,0.6,4.4,1,6.5
						h-8.4C372.3,93.6,372.1,93.6,372,93.6 M372.6,96h8.8c0.5,2.2,1.1,4.4,1.7,6.5h-8.7C373.7,100.4,373.1,98.2,372.6,96
						 M377.6,111.1c-0.9-2-1.7-4-2.4-6.1h8.7c0.7,2.1,1.5,4.1,2.3,6.1H377.6z M388.9,111.1c-0.9-2-1.7-4-2.4-6.1h9.1
						c0.7,2.1,1.5,4.1,2.3,6.1H388.9z M400.6,111.1c-0.9-2-1.7-4-2.4-6.1h9.2c0.7,2.1,1.5,4.1,2.3,6.1H400.6z M412.3,111.1
						c-0.9-2-1.7-4-2.4-6.1h9.2c0.7,2,1.5,4.1,2.3,6.1H412.3z M424.1,111.1c-0.9-2-1.7-4.1-2.4-6.1h9.2c0.7,2,1.5,4.1,2.3,6.1H424.1
						z M435.8,111.1c-0.9-2-1.7-4.1-2.4-6.1h6.5h2.7c0.3,0.8,0.6,1.6,0.9,2.5c0.5,1.2,0.9,2.4,1.5,3.6H435.8z M445,102.6h-0.6
						c-0.1-0.2-0.1-0.4-0.2-0.6c-0.6-2-1.1-4-1.6-6h7.8c0.4,2.1,0.9,4.3,1.5,6.5L445,102.6L445,102.6z"/>
				</g>
			</g>
		</g>
	</g>
</g>
<g>
	<g>
		<g>
			<path class="st5" d="M291.6,196.5c-0.4,0-0.9-0.1-1.2-0.4c-0.6-0.4-0.9-1.1-0.9-1.9c0-0.1,0-0.1,0-0.2l0.9-6.4
				c-5.4-3.9-8.5-9.5-8.5-15.2c0-11.5,11.8-20.8,26.3-20.8s26.3,9.3,26.3,20.8s-11.8,20.8-26.3,20.8c-2.9,0-5.9-0.4-8.7-1.2
				l-6.8,4.2C292.4,196.4,292,196.5,291.6,196.5 M291.6,194.2v0.1l7.3-4.4c0.3-0.2,0.6-0.2,0.8-0.1c2.8,0.8,5.7,1.2,8.6,1.2
				c13.4,0,24.2-8.4,24.2-18.7s-10.9-18.7-24.2-18.7s-24.2,8.4-24.2,18.7c0,5.3,3,10.3,8.1,13.9c0.3,0.2,0.5,0.6,0.4,1L291.6,194.2z
				"/>
		</g>
	</g>
</g>
<g>
	<g>
		<g>
			<path class="st0" d="M729,111.4c0,1.5-1.2,2.7-2.7,2.7h-43.5c-1.5,0-2.7-1.2-2.7-2.7V54.8c0-1.5,1.2-2.7,2.7-2.7h10
				c0.1-0.6,0.3-1.3,0.5-1.9h-10.5c-2.5,0-4.5,2-4.5,4.5v56.6c0,2.5,2,4.5,4.5,4.5h43.5c2.5,0,4.5-2,4.5-4.5V86.2
				c-0.6,0.2-1.2,0.4-1.9,0.6v24.6H729z"/>
			<path class="st0" d="M688.4,105H721c0.5,0,0.9-0.4,0.9-0.9s-0.4-0.9-0.9-0.9h-32.6c-0.5,0-0.9,0.4-0.9,0.9
				C687.4,104.5,687.8,105,688.4,105"/>
			<path class="st0" d="M687.4,63c0,0.5,0.4,0.9,0.9,0.9h4.3c-0.1-0.6-0.2-1.2-0.3-1.9h-4.1C687.8,62.1,687.4,62.5,687.4,63"/>
			<path class="st0" d="M687.4,73.3c0,0.5,0.4,0.9,0.9,0.9h8.4c-0.4-0.6-0.8-1.2-1.1-1.9h-7.3C687.8,72.3,687.4,72.8,687.4,73.3"/>
			<path class="st0" d="M688.4,94.7H721c0.5,0,0.9-0.4,0.9-0.9s-0.4-0.9-0.9-0.9h-32.6c-0.5,0-0.9,0.4-0.9,0.9
				S687.8,94.7,688.4,94.7"/>
			<path class="st0" d="M687.4,83.5c0,0.5,0.4,0.9,0.9,0.9H708c-1.1-0.6-2.1-1.2-3.1-1.9h-16.6C687.8,82.6,687.4,83,687.4,83.5"/>
			<path class="st0" d="M735.6,47.3v30.1c1.4-1,2.6-2.2,3.7-3.4V47.3c0-3-2.5-5.5-5.5-5.5h-29.3c-1.1,1.1-2.1,2.4-3,3.7h32.3
				C734.8,45.6,735.6,46.4,735.6,47.3"/>
			<path class="st0" d="M729,54.3c0-1-0.8-1.9-1.9-1.9h-28.7c-0.3,1.2-0.5,2.5-0.6,3.7h29.3C728.2,56.2,729,55.3,729,54.3"/>
			<path class="st0" d="M729,65.2c0-1-0.8-1.9-1.9-1.9h-28.9c0.3,1.3,0.7,2.5,1.1,3.7h27.8C728.2,67.1,729,66.2,729,65.2"/>
			<path class="st0" d="M729,76.1c0-1-0.8-1.9-1.9-1.9h-23.4c1.3,1.4,2.7,2.7,4.2,3.7h19.2C728.2,77.9,729,77.1,729,76.1"/>
			<path class="st0" d="M767.2,98.9l-22.5-22.5c3.8-5,6.1-11.2,6.1-17.9c0-16.2-13.1-29.3-29.3-29.3c-13.4,0-24.6,8.9-28.2,21.2
				c-0.2,0.6-0.3,1.2-0.5,1.9c-0.4,2-0.7,4.1-0.7,6.3c0,1.2,0.1,2.5,0.2,3.7c0.1,0.6,0.2,1.2,0.3,1.9c0.6,3,1.6,5.8,3,8.4
				c0.3,0.6,0.7,1.3,1.1,1.9c2.1,3.3,4.9,6.2,8.1,8.4c1,0.7,2,1.3,3.1,1.9c4,2.1,8.6,3.3,13.4,3.3c2.6,0,5.1-0.3,7.6-1
				c0.6-0.2,1.3-0.4,1.9-0.6c2.1-0.7,4.2-1.7,6.1-2.9c0,0,0,0,0,0.1l22.8,22.8c1,1,2.3,1.5,3.7,1.5c1.3,0,2.6-0.5,3.7-1.5
				C769.2,104.2,769.2,100.9,767.2,98.9 M695.9,58.4c0-14.1,11.5-25.6,25.6-25.6s25.6,11.5,25.6,25.6S735.6,84,721.5,84
				S695.9,72.5,695.9,58.4"/>
		</g>
	</g>
</g>
<g>
	<g>
		<g>
			<path class="st5" d="M67.4,70.5c-0.9-0.8-2.3-0.6-3.1,0.3L35.6,104c-0.8,0.9-0.7,2.4,0.2,3.2l7.4,6.4c-0.9,2.7-0.8,7,3.5,10.7
				c0.1,0.1,0.3,0.2,0.4,0.4l1.4-1.4c0.1-0.1,0.1-0.1,0.2-0.2c0.6-0.5,1.2-1,1.9-1.3c-0.4-0.3-0.7-0.6-1-0.8
				c-3.7-3.2-2.1-6.2-1.8-6.7c0.6-0.9,0.4-2.2-0.4-2.9l-6.9-6l25.8-29.8c1.9,1.5,5.3,4.3,9.6,7.7c0.4-0.7,0.8-1.3,1.1-2
				c0,0,0-0.1,0.1-0.1c0.3-0.6,0.7-1.2,1.1-1.8C72.3,74.4,68.1,71,67.4,70.5"/>
			<path class="st5" d="M133.2,126.3c-0.2-0.7-0.4-1.4-0.9-2.2c-0.3-0.6-0.8-1.2-1.3-1.8c-0.4-0.5-0.9-0.9-1.4-1.4
				c-2-1.7-15.3-12.5-29.1-23.7c-0.8,0.5-2,0.5-2.7-0.2c-0.6-0.6-1.4-0.8-2.2-0.9c-0.9-0.1-1.9,0.1-3.1,0.4
				c15.4,12.5,32,25.8,34.2,27.8c0.4,0.3,0.7,0.6,1,1c0.6,0.7,1,1.3,1.1,2c0.1,0.3,0.1,0.6,0.1,0.8c0,1.2-0.7,2.2-1,2.5
				c-0.6,0.7-3.3,2.7-5.3,1.9c-0.2-0.1-0.4-0.2-0.5-0.3l-8-6.7c-0.9-0.8-2.4-0.7-3.2,0.3c-0.8,0.9-0.7,2.4,0.3,3.2l11.9,10.1l0,0
				c2.2,1.9,0.7,4.8-0.3,6.1c-0.3,0.4-3.1,3.4-5.8,1c-0.1,0-0.1-0.1-0.2-0.1l-11.6-9.8c-0.9-0.8-2.4-0.7-3.2,0.3
				c-0.8,0.9-0.7,2.4,0.3,3.2l11.8,9.9c0,0,0.1,0,0.1,0.1c1,0.9,1.3,1.9,1.1,3.2c-0.4,1.8-2,3.7-3.8,4.3c-1.3,0.4-2.4,0.2-3.4-0.6
				l0,0l0,0l0,0l0,0l0,0l0,0l0,0l0,0l0,0l0,0l0,0l0,0l0,0l0,0l0,0l0,0l0,0l0,0l0,0l0,0l0,0l0,0c-0.2-0.1-11.7-9.8-11.7-9.8
				c-0.9-0.8-2.4-0.7-3.2,0.3c-0.5,0.6-0.6,1.5-0.4,2.2c0.6,0.4,1.2,0.8,1.7,1.3l1,1c0.3,0.3,0.6,0.6,0.8,1c0,0.1,0.1,0.1,0.1,0.2
				l3.9,3.3c1.6,1.7,0.1,3.6-0.3,4c-0.6,0.7-1.9,1.6-3.1,1.5c-0.4,0.7-0.8,1.3-1.4,1.9l-0.1,0.1l-1.5,1.5c1.1,0.6,2.2,0.9,3.3,0.9
				c2.4,0,4.7-1.2,6.2-3c0.7-0.9,1.3-1.9,1.7-2.9c0.1,0.1,0.3,0.2,0.4,0.3c2.1,1.6,4.8,2,7.4,1.1c3.4-1.2,6.1-4.3,6.7-7.7
				c0.1-0.7,0.2-1.5,0.1-2.2c2.4-0.2,4.8-1.5,6.4-3.4c2.7-3.2,3.8-8.1,0.7-11.6c1.9-0.7,3.5-1.9,4.4-3c1.4-1.6,2.1-3.6,2.1-5.6
				C133.4,127.4,133.3,126.9,133.2,126.3"/>
			<path class="st44" d="M146.7,103.9L118,70.8c-0.8-0.9-2.1-1-3.1-0.3l-7.7,6c-1.8-1.1-5.1-2.9-8.8-3.8c0,0,0,0-0.1,0
				c-0.2,0-0.3-0.1-0.5-0.1c0,0,0,0-0.1,0c-5.8-1.3-15,0.4-19.6,6.6c-0.4,0.6-0.8,1.2-1.1,1.8c0,0,0,0.1-0.1,0.1
				c-0.3,0.6-0.7,1.3-1.1,2c-1.8,2.9-4.4,5.6-7.7,5.3c-6.5-0.5-10.9,2.4-11.3,7.4c-0.4,6.1,4.9,9.8,10.2,10.1c0.3,0,0.7,0,1,0
				c0.7,0,1.4-0.1,2.1-0.2c1.6-0.2,3.2-0.7,4.9-1.3c2.4-0.9,4.8-2,7.2-3.3c0.6-0.3,1.1-0.6,1.7-0.9c3.1-1.6,6.1-3.2,8.6-3.9
				c1.1-0.3,2.2-0.5,3.1-0.4s1.6,0.3,2.2,0.9c0.8,0.7,1.9,0.8,2.7,0.2c0.2-0.1,0.3-0.2,0.4-0.3c0.8-0.9,0.8-2.3-0.1-3.2
				c-0.6-0.5-1.1-0.9-1.7-1.2c-1.6-0.9-3.5-1-5.4-0.8c-0.9,0.1-1.8,0.3-2.8,0.6c-0.2,0.1-0.4,0.1-0.6,0.2c-0.6,0.2-1.3,0.5-1.9,0.7
				c-0.4,0.1-0.7,0.3-1.1,0.5c-1.8,0.8-3.7,1.8-5.5,2.7c-0.7,0.4-1.4,0.7-2.1,1.1c-4.4,2.2-8.7,4.2-12.4,3.9c-2.6-0.2-6.3-1.8-6-5.3
				c0.2-3.4,5-3.3,6.5-3.2c3.1,0.2,7.5-0.9,11.6-7c0.4-0.6,0.8-1.2,1.2-1.9c0.2-0.3,0.3-0.6,0.5-0.9c0.2-0.4,0.4-0.7,0.6-1
				c1.1-1.6,2.8-2.9,4.7-3.7c0.8-0.4,1.7-0.7,2.5-0.9c2.9-0.8,6-0.9,8.3-0.3c0.2,0.1,0.5,0.1,0.7,0.1v0.1c3.4,0.9,6.6,2.8,8,3.9
				c0.8,0.6,1.9,0.6,2.7,0l7.3-5.7l25.9,29.9l-6.9,6c-0.8,0.7-1,2-0.4,2.9c0.3,0.6,1.9,3.6-1.8,6.7l-1.7,1.5c0.5,0.6,1,1.2,1.3,1.8
				c0.4,0.8,0.7,1.5,0.9,2.2l2.5-2.1c4.3-3.7,4.4-8,3.5-10.7l7.4-6.4C147.4,106.3,147.5,104.9,146.7,103.9"/>
			<path class="st44" d="M97.3,154.4c-0.2-0.6-0.6-1.2-1-1.8c0-0.1-0.1-0.1-0.1-0.2c-0.3-0.3-0.5-0.7-0.8-1l-1-1
				c-0.5-0.5-1.1-1-1.7-1.3c-1.3-0.8-2.8-1.2-4.3-1.2c-0.1,0-0.2,0-0.3,0c-0.1-0.1-0.1-0.2-0.2-0.3l0,0c0.3-2.7-0.6-5.5-2.6-7.5
				c-1.7-1.7-4-2.7-6.5-2.7c-0.1,0-0.2,0-0.3,0c0.1-0.5,0.1-1,0.1-1.4c0-2.5-1-4.8-2.7-6.5c-3.3-3.3-8.6-3.6-12.2-0.7
				c-0.3-1.4-1-2.8-2.1-3.9l-1.8-1.8c-0.4-0.4-0.9-0.8-1.5-1.1c-0.7-0.4-1.5-0.8-2.3-1c-1.1-0.3-2.2-0.3-3.3-0.1
				c-0.7,0.1-1.4,0.4-2,0.7c-0.7,0.3-1.3,0.8-1.9,1.3c-0.1,0.1-0.1,0.1-0.2,0.2l-1.4,1.4l-0.1,0.1c-1.5,1.5-2.3,3.5-2.3,5.6
				c0,2.1,0.8,4.1,2.3,5.6l1.8,1.8l0,0c1.4,1.4,3.1,2.1,4.9,2.3c-0.1,0.7-0.2,1.4-0.1,2.1c-0.2,2.5,0.7,5.2,2.7,7.1
				c1.7,1.7,4,2.6,6.3,2.7c0,0.6,0,1.2,0.1,1.8c0.1,0.5,0.3,1.1,0.5,1.6c0.4,1.7,1.2,3.2,2.5,4.5l0,0c1.8,1.8,4.1,2.7,6.5,2.7
				c1.3,0,2.6-0.3,3.7-0.8c0.2,1.9,1.1,3.6,2.4,5l1,1c1.6,1.6,3.7,2.5,6,2.5s4.4-0.9,6-2.5L94,165l1.5-1.5l0.1-0.1
				c0.6-0.6,1-1.2,1.4-1.9c0.7-1.4,1-3,0.9-4.5C97.8,156.1,97.7,155.2,97.3,154.4 M88.1,164.4c-1.5,1.5-4.2,1.5-5.7,0l0,0l-1-1
				c-0.8-0.8-1.2-1.8-1.2-2.8c0-1.1,0.4-2.1,1.2-2.8l4.2-4.2c0.3-0.3,0.6-0.5,0.9-0.7c0.6-0.3,1.2-0.5,1.8-0.5
				c1.1,0,2.1,0.4,2.8,1.2c0,0,1.4,1.5,1.6,1.7c0.5,0.8,0.6,1.6,0.6,2.5c0,0.3-0.1,0.5-0.2,0.8C93,159.3,88.1,164.4,88.1,164.4
				 M51.6,134.1c-0.1-0.1-1.4-1.4-1.4-1.4c-0.6-0.6-1-1.5-1-2.4c0-0.1,0-0.1,0-0.2c0-0.9,0.4-1.6,1-2.2c0,0,1.8-1.8,2-1.9
				c0.7-0.5,1.6-0.7,2.4-0.6c0.2,0,0.3,0,0.4,0.1c0.6,0.1,3.3,2.6,3.3,2.6c0.2,0.2,0.4,0.5,0.5,0.7c0.3,0.5,0.5,1.1,0.5,1.7
				c0,0.5-0.1,1-0.3,1.4c-0.1,0.3-2.2,2.5-2.2,2.5l-0.1,0.1c-1.1,1-2.7,1.2-4,0.4C52.3,134.7,51.9,134.4,51.6,134.1 M66,132.7
				c0.9-0.9,2.1-1.4,3.3-1.4c1.2,0,2.4,0.5,3.3,1.4s1.4,2.1,1.4,3.3c0,1.3-0.5,2.4-1.4,3.3l-6.6,6.6c-1.8,1.8-4.8,1.8-6.7,0
				c-1-1-1.5-2.4-1.3-3.8c0.1-1.1,0.5-2.1,1.3-2.9L66,132.7z M82.1,143.3c1.6,1.6,1.8,4.2,0.5,6h-0.1l0,0c-0.1,0.2-7.1,7.2-7.1,7.2
				c-1.8,1.8-4.8,1.8-6.7,0l0,0c-0.7-0.7-1.2-1.7-1.3-2.7c-0.2-1.4,0.2-2.9,1.3-4l6.6-6.6c0,0,0.1,0,0.1-0.1
				C77.3,141.6,80.3,141.6,82.1,143.3"/>
		</g>
	</g>
</g>
<g>
	<rect x="203.5" y="148.5" class="st45" width="62" height="78"/>
	<g>
		<g>
			<g>
				<path class="st44" d="M215.8,169.8H252c1,0,1.9-0.8,1.9-1.9c0-1-0.8-1.9-1.9-1.9h-36.2c-1,0-1.9,0.8-1.9,1.9
					C213.9,169,214.7,169.8,215.8,169.8"/>
				<path class="st44" d="M215.8,183.8H252c1,0,1.9-0.8,1.9-1.9s-0.8-1.9-1.9-1.9h-36.2c-1,0-1.9,0.8-1.9,1.9
					S214.7,183.8,215.8,183.8"/>
				<path class="st44" d="M215.8,197.8h21.7c1,0,1.9-0.8,1.9-1.9c0-1-0.8-1.9-1.9-1.9h-21.7c-1,0-1.9,0.8-1.9,1.9
					C213.9,196.9,214.7,197.8,215.8,197.8"/>
				<path class="st44" d="M215.8,211.8h11.1c1,0,1.9-0.8,1.9-1.9c0-1-0.8-1.9-1.9-1.9h-11.1c-1,0-1.9,0.8-1.9,1.9
					C213.9,210.9,214.7,211.8,215.8,211.8"/>
				<path class="st44" d="M270.2,204.7v-49.1c0-2.3-1.9-4.3-4.2-4.4c-0.1-2.3-2-4.2-4.4-4.2h-8.4v-1c0-1-0.8-1.8-1.8-1.8h-9.8
					c-2.1,0-1-5.2-7.4-5.2s-5.1,5.2-7.4,5.2H217c-1,0-1.8,0.8-1.8,1.8v1h-8.4c-2.4,0-4.4,2-4.4,4.4v71.2c0,2.3,1.9,4.3,4.2,4.4
					c0.1,2.3,2,4.2,4.4,4.2h32.3c0.1,0.1,0.2,0.2,0.3,0.3c0.5,0.4,1,0.8,1.5,1.1c0.3,0.2,0.5,0.3,0.8,0.5c0.5,0.3,1.1,0.6,1.6,0.9
					c0.3,0.1,0.6,0.3,0.8,0.4c0.6,0.2,1.2,0.5,1.7,0.6c0.6,0.2,1.2,0.3,1.8,0.5c0.6,0.1,1.2,0.2,1.9,0.3c0.6,0.1,1.3,0.1,1.9,0.1
					c2,0,3.9-0.3,5.7-0.9c0.6-0.2,1.2-0.4,1.7-0.6c1.1-0.5,2.2-1.1,3.2-1.8c0.5-0.3,1-0.7,1.5-1.1c1.6-1.4,3.1-3,4.2-4.8
					c0.3-0.5,0.6-1.1,0.9-1.6c0.1-0.3,0.3-0.6,0.4-0.8c0.2-0.6,0.5-1.2,0.6-1.7c0.2-0.6,0.3-1.2,0.5-1.8c0.1-0.6,0.2-1.2,0.3-1.9
					c0.1-0.6,0.1-1.3,0.1-1.9C274.6,212.2,273,208,270.2,204.7 M234.2,142.6c1.2,0,2.2,1,2.2,2.2s-1,2.2-2.2,2.2s-2.2-1-2.2-2.2
					S233,142.6,234.2,142.6 M206.5,223.2c-0.2-0.1-0.4-0.3-0.4-0.6v-71.2c0-0.3,0.3-0.6,0.6-0.6h8.4v0.4v0.7c0,1,0.8,1.8,1.8,1.8
					h34.6c1,0,1.8-0.8,1.8-1.8v-0.7v-0.4h8.4c0.3,0,0.5,0.2,0.6,0.4c0,0.1,0,0.1,0,0.2V199c-2.1-0.8-4.3-1.2-6.7-1.2
					c-0.7,0-1.3,0-1.9,0.1c-0.6,0.1-1.3,0.2-1.9,0.3c-0.6,0.1-1.2,0.3-1.8,0.5s-1.2,0.4-1.7,0.6c-0.3,0.1-0.6,0.2-0.8,0.4
					c-0.6,0.3-1.1,0.6-1.6,0.9c-1.8,1.1-3.5,2.5-4.8,4.2c-0.4,0.5-0.8,1-1.1,1.5c-0.7,1-1.3,2.1-1.8,3.2c-0.2,0.6-0.5,1.2-0.6,1.7
					c-0.6,1.8-0.9,3.7-0.9,5.7c0,0.7,0,1.3,0.1,1.9c0.1,0.6,0.2,1.3,0.3,1.9c0.1,0.6,0.3,1.2,0.5,1.8c0.1,0.3,0.2,0.5,0.3,0.8h-31
					C206.6,223.3,206.5,223.2,206.5,223.2 M270.2,220.3c-1.2,5.2-5.2,9.3-10.2,10.9c-1.4,0.4-2.9,0.7-4.5,0.7s-3-0.2-4.5-0.7
					c-2.6-0.8-4.8-2.3-6.6-4.2c-1-1.1-1.9-2.4-2.6-3.8c-0.9-2-1.5-4.1-1.5-6.5c0-8.3,6.8-15.1,15.1-15.1c2.4,0,4.7,0.6,6.7,1.6
					c1.4,0.7,2.7,1.6,3.8,2.7c2,2,3.5,4.5,4.2,7.3c0.3,1.1,0.4,2.3,0.4,3.5C270.6,218,270.5,219.2,270.2,220.3"/>
				<path class="st44" d="M262.3,211.2c-0.5,0-1,0.2-1.3,0.5l-7.7,7.7l-3.1-3.1c-0.7-0.7-1.9-0.7-2.7,0c-0.7,0.7-0.7,1.9,0,2.7
					l4.2,4.2l0.2,0.2c0.4,0.4,0.8,0.6,1.3,0.6s1-0.2,1.3-0.6l0.2-0.2l7.5-7.5l1.3-1.3c0.7-0.7,0.7-1.9,0-2.7
					C263.2,211.4,262.8,211.2,262.3,211.2"/>
			</g>
		</g>
	</g>
</g>
<circle class="st45" cx="501" cy="182.5" r="40.5"/>
<g>
	<g>
		<g>
			<path class="st44" d="M500.7,143.6c20.5,0,37.1,16.6,37.1,37.1s-16.6,37.1-37.1,37.1c-20.5,0-37.1-16.6-37.1-37.1
				S480.2,143.6,500.7,143.6 M500.7,136.1c-24.6,0-44.5,19.9-44.5,44.5s19.9,44.5,44.5,44.5c24.6,0,44.5-19.9,44.5-44.5
				S525.3,136.1,500.7,136.1"/>
			<path class="st44" d="M494.1,200.7c-1.4,0-2.7-0.5-3.8-1.6l-12.5-12.5c-2.1-2.1-2.1-5.5,0-7.6s5.5-2.1,7.6,0l8.7,8.7l21.8-21.8
				c2.1-2.1,5.5-2.1,7.6,0s2.1,5.5,0,7.6l-25.6,25.6C496.9,200.2,495.5,200.7,494.1,200.7"/>
		</g>
	</g>
</g>
<g>
	<g>
		<g>
			<path class="st44" d="M620.3,128.1c3.4,0,6.3,2.6,6.6,5.9c3.1,1.9,5.5,4.2,7.2,7c0.8-1.9,1.3-4,1.3-6.2c0-8.4-6.8-15.2-15.2-15.2
				s-15.2,6.8-15.2,15.2s6.8,15.2,15.2,15.2c2.9,0,5.7-0.9,8-2.3c-0.8-3-3-5.1-5.4-6.7c-0.8,0.3-1.7,0.5-2.6,0.5
				c-3.7,0-6.7-3-6.7-6.7C613.5,131.1,616.6,128.1,620.3,128.1"/>
			<path class="st44" d="M645.1,56.2c-1.2-0.7-2.3-1.2-3.4-1.6c-0.2-0.7-0.6-1.3-1.1-1.5c-1.6-0.7-6.9-2.3-9.6-2.7
				c-1.3-0.2-3.1,2.2-3.2,4.7c-0.1,2.5,1.3,5,3.1,5c3.6-0.1,7.8-0.7,9-0.8c0.3-0.2,0.6-0.4,0.8-0.6c0.7,0.3,1.4,0.6,2.1,1
				c0.4,0.9,0.6,4.8-1.7,11.9c-3.4,10.4-11.3,24-22.2,27.9c-10.2,3.7-20.8,3.5-28.2,2.5c-4.4-0.8-7.7-2.9-10-5.3
				c-1.8-1.8-3-3.7-3.6-5.3c-1.1-4.2-2.1-9.5-2.2-15.4c0-0.8,0-1.7,0-2.5c0.1-3.4,0.5-7,1.3-10.6c2.6-11.3,15.2-20.8,25.1-25.4l0,0
				c0.8-0.4,1.5-0.7,2.2-1c0.2-0.1,0.4-0.2,0.7-0.3c0.5-0.2,0.9-0.4,1.3-0.5c0.2-0.1,0.4-0.2,0.7-0.2c0.4-0.1,0.8-0.3,1.2-0.4
				c0.2-0.1,0.4-0.1,0.5-0.2c0.4-0.1,0.8-0.2,1.2-0.3c0.1,0,0.2,0,0.2-0.1c0.4-0.1,0.8-0.2,1.2-0.2c0.1,0,0.2,0,0.3,0
				c0.2,0,0.5-0.1,0.7-0.1c0.1,0,0.2,0,0.3,0c0.2,0,0.3,0,0.5,0c0.1,0,0.1,0,0.2,0c0.2,0,0.3,0,0.4,0.1l0,0c0.8,1,1.3,2,1.7,2.9
				c-0.3,0.3-0.5,0.7-0.7,1.1c0.1,0.8,0.1,2.7,0.3,5c0.1,1.4,0.2,2.9,0.3,4.2c0.2,1.8,3.3,2.8,5.7,2.1c2.4-0.6,4.1-2.9,3.7-4.2
				c-0.5-1.5-1.4-3.7-2.3-5.5c-0.7-1.4-1.3-2.6-1.7-3.2c-0.3-0.4-0.8-0.7-1.4-0.9c-0.5-1.3-1.3-2.8-2.5-4.3
				c-0.2-0.2-0.4-0.4-0.6-0.6c-0.1-0.1-0.2-0.1-0.2-0.2c-0.2-0.1-0.4-0.2-0.6-0.3c-0.1,0-0.2-0.1-0.3-0.1c-0.3-0.1-0.5-0.2-0.9-0.2
				c-0.1,0-0.1,0-0.2,0c-0.4-0.1-0.8-0.1-1.2-0.1h-0.1c-0.1,0-0.2,0-0.2,0c-0.4,0-0.8,0-1.2,0.1c-0.1,0-0.3,0-0.4,0.1
				c-0.5,0.1-1.1,0.2-1.7,0.3C598,32.9,576,44.8,572,62c-0.7,2.8-1.1,5.6-1.3,8.3c-0.1,1.6-0.2,3.2-0.2,4.8c0,6.6,1.1,12.6,2.3,17.3
				c0.6,3.1,0.8,6,0.6,8.5c0,0.3,0,0.5-0.1,0.8c-0.2,2.6-0.8,4.8-1.5,6.5c-1.5,2.9-3.2,6.6-4.6,10.6c-0.3,1-0.7,2.1-1,3.1
				c-0.1,0.2-0.1,0.4-0.2,0.5c-0.6,2.3-1.2,4.8-1.5,7.3c0,0.2-0.1,0.4-0.1,0.6c-0.2,1.3-0.3,2.5-0.3,3.8c0,0.7-0.1,1.4-0.1,2
				c0,0.7,0,1.3,0,2c0.2,4.7,1.2,9.5,3.4,14.1c6.1,12.8,15.9,18.3,23,20.8c4.3,1.5,8.9,2.2,13.4,2.2c5.8,0,11.5-1.2,16.2-3.6
				c7.7-3.8,13.3-11.5,14.2-19.1c0.1-0.5,0.1-1,0.1-1.5s0-1.1,0-1.6c-0.1-1.8-0.5-3.4-1.1-5c-0.2-0.5-0.4-1-0.7-1.5
				c-1.3-2.6-3.4-4.9-6.2-6.8c-0.3,1.4-1.1,2.7-2.2,3.6c1.3,0.9,2.4,1.9,3.3,3c0.2,0.3,0.4,0.6,0.6,0.8c0.6,0.9,1,1.8,1.4,2.8
				c0.2,0.5,0.3,1.1,0.4,1.6c0.1,0.5,0.2,1.1,0.2,1.7c0,0.4,0,0.9,0,1.3c-0.3,6.5-5.2,13.5-12,16.9l0,0c-1,0.5-2,0.9-3.1,1.3
				c-0.4,0.1-0.7,0.2-1.1,0.3c-0.7,0.2-1.5,0.4-2.2,0.6c-0.4,0.1-0.9,0.2-1.4,0.3c-0.7,0.1-1.4,0.3-2.1,0.3c-0.5,0.1-1,0.1-1.5,0.1
				c-0.7,0.1-1.4,0.1-2.1,0.1c-0.6,0-1.2,0-1.8,0c-0.4,0-0.9,0-1.3-0.1c-0.7,0-1.3-0.1-2-0.2c-0.4,0-0.8-0.1-1.3-0.2
				c-0.7-0.1-1.5-0.3-2.2-0.4c-0.4-0.1-0.7-0.1-1.1-0.2c-1.1-0.3-2.1-0.6-3.2-0.9c-6.4-2.2-15.1-7.2-20.6-18.6
				c-1.9-4-2.8-8.3-3-12.4c0-0.6,0-1.2,0-1.8c0-0.7,0-1.3,0.1-2c0.1-1.4,0.2-2.8,0.4-4.2c0.2-1.1,0.3-2.1,0.6-3.1
				c0.1-0.3,0.1-0.7,0.2-1c0.9-3.7,2.1-7.2,3.4-10.3c0.6-1.3,1.1-2.6,1.7-3.8c0.2-0.5,0.5-1,0.7-1.4s0.4-0.8,0.6-1.2
				c0.7-1,1.9-1.9,3.7-2.6s4.4-1.1,7.9-0.7c3.3,0.5,7.3,1,11.8,1c6.3,0,13.4-0.8,20.5-3.4c16.6-6,25.8-29.3,26.9-39.8
				C647.5,59.7,646.8,57.2,645.1,56.2"/>
		</g>
	</g>
</g>
<rect x="785.9" y="124.5" class="st44" width="18.1" height="58"/>
<rect x="761.6" y="139" class="st44" width="18.1" height="44"/>
<rect x="737.3" y="156" class="st44" width="18.1" height="27"/>
<rect x="713" y="171" class="st44" width="18.1" height="12"/>
<rect x="808" y="108.2" class="st1" width="8" height="2.7"/>
<rect x="808" y="113.3" class="st1" width="8" height="2.7"/>
<rect x="808" y="118.5" class="st1" width="8" height="2.7"/>
<rect x="808" y="123.6" class="st1" width="8" height="2.7"/>
<rect x="808" y="128.8" class="st0" width="12" height="2.7"/>
<rect x="808" y="133.9" class="st1" width="8" height="2.7"/>
<rect x="808" y="139.1" class="st1" width="8" height="2.7"/>
<rect x="808" y="144.2" class="st1" width="8" height="2.7"/>
<rect x="808" y="149.4" class="st1" width="8" height="2.7"/>
<rect x="808" y="154.5" class="st0" width="12" height="2.7"/>
<rect x="808" y="159.7" class="st1" width="8" height="2.7"/>
<rect x="808" y="164.8" class="st1" width="8" height="2.7"/>
<rect x="808" y="170" class="st1" width="8" height="2.7"/>
<rect x="808" y="175.1" class="st1" width="8" height="2.7"/>
<rect x="808" y="103" class="st0" width="12" height="2.7"/>
<rect x="808" y="180.3" class="st0" width="12" height="2.7"/>
<rect x="192" y="73" class="st45" width="14" height="14"/>
<g>
	<g>
		<polygon class="st5" points="237.8,65.6 237.8,70.4 246.8,76.1 246.8,71.2 		"/>
		<polygon class="st5" points="237.9,86.6 246.7,81 246.8,76.1 237.8,81.7 		"/>
		<polygon class="st44" points="248.8,79.7 254.5,76.1 247.9,71.9 246.8,71.2 246.8,76.1 246.8,76.1 246.8,76.1 246.7,81 		"/>
		<g>
			<path class="st5" d="M173.5,76.1c0,4.1,2.8,7.7,6.9,9.4c1.7,0.7,3.6,1.1,5.6,1.1l0,0v-21v-0.1c-3.2,0-6.3,1-8.6,2.9
				C174.8,70.5,173.5,73.2,173.5,76.1"/>
			<polygon class="st44" points="185.9,86.6 237.9,86.6 237.8,81.7 185.9,81.8 			"/>
			<polygon class="st44" points="185.9,65.6 185.9,77.4 237.8,77.4 237.8,65.6 			"/>
		</g>
	</g>
</g>
<g>
	<line class="st46" x1="297" y1="51" x2="332" y2="51"/>
	<line class="st46" x1="297" y1="57.6" x2="332" y2="57.6"/>
	<line class="st46" x1="297" y1="64.3" x2="332" y2="64.3"/>
	<line class="st46" x1="297" y1="70.9" x2="332" y2="70.9"/>
	<line class="st46" x1="297" y1="77.6" x2="321" y2="77.6"/>
</g>
<line class="st46" x1="342.5" y1="171.5" x2="377.5" y2="171.5"/>
<line class="st46" x1="382.5" y1="171.5" x2="387.5" y2="171.5"/>
<line class="st46" x1="338.5" y1="179.5" x2="373.5" y2="179.5"/>
<line class="st46" x1="378.5" y1="179.5" x2="383.5" y2="179.5"/>
<g>
	<line class="st46" x1="143.2" y1="205.5" x2="108.2" y2="205.5"/>
	<line class="st46" x1="103.5" y1="205.5" x2="98.5" y2="205.5"/>
	<line class="st46" x1="143.2" y1="212.5" x2="108.2" y2="212.5"/>
	<line class="st46" x1="103.5" y1="212.5" x2="98.5" y2="212.5"/>
	<line class="st46" x1="143.2" y1="219.5" x2="108.2" y2="219.5"/>
	<line class="st46" x1="103.5" y1="219.5" x2="98.5" y2="219.5"/>
</g>
<g>
	<line class="st46" x1="532.5" y1="32.5" x2="560.5" y2="32.5"/>
	<line class="st46" x1="565.5" y1="32.5" x2="570.5" y2="32.5"/>
	<line class="st46" x1="529.5" y1="40.5" x2="564.5" y2="40.5"/>
	<line class="st46" x1="561.5" y1="40.5" x2="566.5" y2="40.5"/>
</g>
</svg>
