<svg id="Layer_1" data-name="Layer 1" xmlns="http://www.w3.org/2000/svg" viewBox="0 0 200 200"><defs><style>.cls-1{fill:#d6d6d6;}.cls-2{fill:#ededed;}</style></defs><title>partner-image_quality</title><circle class="cls-1" cx="98.5" cy="99.5" r="91.5"/><path class="cls-2" d="M121.34,143.78a28.26,28.26,0,0,1-13.19-12.42,30.06,30.06,0,0,1-9.7,1.85c-19.88,0-27.55-16.2-27.55-33.86S78.57,65.4,98.45,65.4c20.57,0,27.65,15.72,27.65,33.95,0,9.41-1.85,18-8.35,25.12,2.43,4.18,6.7,6.89,11,8.93ZM98.45,75C86.23,75,84.29,90,84.29,99.35c0,9.12,2.33,24.25,14.16,24.25,12.22,0,14.26-14.94,14.26-24.25S110.77,75,98.45,75Z"/></svg>