<svg id="Layer_1" data-name="Layer 1" xmlns="http://www.w3.org/2000/svg" viewBox="0 0 200 200"><defs><style>.cls-1{fill:#d6d6d6;}.cls-2{fill:#ededed;}</style></defs><title>partner-image_medicaid-alliances</title><circle class="cls-1" cx="98.5" cy="99.5" r="91.5"/><path class="cls-2" d="M91,131.65V95.76c0-6.5.39-13,.59-19.49-1.46,6-3,11.93-4.66,17.84L76.14,131.65H65.57L53.74,91c-1.46-4.85-2.24-9.8-3.4-14.74.2,6.5.58,13,.58,19.49v35.89H40V67H58.39l10.38,38.42c1.17,4.26,2,8.53,2.81,12.8a116.15,116.15,0,0,1,2.62-12.8L84.58,67h17.27v64.7Z"/><path class="cls-2" d="M150.64,131.65l-4.56-15.9H125.32l-4.46,15.9H108.44L128.23,67H144l19.79,64.7Zm-12.42-45.3A88.94,88.94,0,0,1,135.7,75.2a86.9,86.9,0,0,1-2.43,11.15l-5.81,19.89H144Z"/></svg>