<svg id="Layer_1" data-name="Layer 1" xmlns="http://www.w3.org/2000/svg" viewBox="0 0 200 200"><defs><style>.cls-1{fill:#d6d6d6;}.cls-2{fill:#ededed;}</style></defs><title>partner-image_local-medicai-marketing</title><circle class="cls-1" cx="98.5" cy="99.5" r="91.5"/><path class="cls-2" d="M19.38,128V70.61H29.87v48.94H55.24V128Z"/><path class="cls-2" d="M106.41,128V96.16c0-5.77.35-11.53.52-17.29-1.29,5.33-2.67,10.58-4.13,15.82L93.25,128H83.88l-10.49-36c-1.29-4.3-2-8.68-3-13.07.17,5.76.52,11.52.52,17.29V128H61.18V70.61H77.52l9.2,34.06c1,3.78,1.8,7.57,2.49,11.35a102.38,102.38,0,0,1,2.32-11.35l9.21-34.06H116V128Z"/><path class="cls-2" d="M168,128V96.16c0-5.77.34-11.53.51-17.29-1.29,5.33-2.66,10.58-4.12,15.82L154.83,128h-9.37l-10.5-36c-1.29-4.3-2-8.68-3-13.07.18,5.76.52,11.52.52,17.29V128h-9.72V70.61h16.34l9.2,34.06c1,3.78,1.81,7.57,2.5,11.35a102.38,102.38,0,0,1,2.32-11.35l9.2-34.06h15.31V128Z"/></svg>