<svg id="Layer_1" data-name="Layer 1" xmlns="http://www.w3.org/2000/svg" viewBox="0 0 200 200"><defs><style>.cls-1{fill:#d6d6d6;}.cls-2{fill:#ededed;}</style></defs><title>partner-image_maternal-child-services</title><circle class="cls-1" cx="98.5" cy="99.5" r="91.5"/><path class="cls-2" d="M65.78,128V96.16c0-5.77.34-11.53.51-17.29C65,84.2,63.63,89.45,62.17,94.69L52.62,128H43.25l-10.5-36c-1.29-4.3-2-8.68-3-13.07.18,5.76.52,11.52.52,17.29V128H20.54V70.61H36.88l9.2,34.06c1,3.78,1.81,7.57,2.5,11.35a102.38,102.38,0,0,1,2.32-11.35l9.2-34.06H75.41V128Z"/><path class="cls-2" d="M109.38,129.35C91,129.35,85.3,116.54,85.3,100.2c0-15.57,6.19-31,24.08-31,12.21,0,19.43,7.57,21.58,19.18l-11,1.37c-.52-6.45-3.27-12-10.58-12C98.2,77.75,97,91.34,97,99.68s1.38,21.16,12.39,21.16c7.31,0,10.06-5.94,10.75-12.3l11,1.29C129.16,121.7,121.76,129.35,109.38,129.35Z"/><path class="cls-2" d="M158,129.35c-8.26,0-15.83-2.75-20.3-10a20.92,20.92,0,0,1-2.23-5.34L146,111.81c1.21,6,6.63,8.86,12.39,8.86,4.81,0,10.4-1.72,10.4-7.49,0-12.38-31-7.14-31-27.09,0-12.64,9.63-16.85,20.81-16.85,7.48,0,14.53,2.49,18.83,8.77a16.81,16.81,0,0,1,2.15,4.3l-10.4,2.84c-1.46-4.73-5.85-7.31-10.67-7.31-4.55,0-9.54,1.55-9.54,7,0,12.9,31.39,6.2,31.39,27.35C180.33,125.83,169.75,129.35,158,129.35Z"/></svg>