<svg id="Layer_1" data-name="Layer 1" xmlns="http://www.w3.org/2000/svg" viewBox="0 0 200 200"><defs><style>.cls-1{fill:#d6d6d6;}.cls-2{fill:#ededed;}</style></defs><title>partner-image_document-control-center</title><circle class="cls-1" cx="98.5" cy="99.5" r="91.5"/><path class="cls-2" d="M43.29,128H25V70.61H41.83c19.35,0,26.92,9.46,26.92,28.21C68.75,115.76,61.69,128,43.29,128ZM42.17,79H35.46v40.51h6.71c12.13,0,15-9.89,15-20.13C57.22,88.93,54.73,79,42.17,79Z"/><path class="cls-2" d="M100.74,129.35c-18.41,0-24.08-12.81-24.08-29.15,0-15.57,6.19-31,24.08-31,12.21,0,19.43,7.57,21.58,19.18l-11,1.37c-.52-6.45-3.27-12-10.58-12-11.18,0-12.39,13.59-12.39,21.93s1.38,21.16,12.39,21.16c7.31,0,10.06-5.94,10.75-12.3l11,1.29C120.52,121.7,113.12,129.35,100.74,129.35Z"/><path class="cls-2" d="M153.45,129.35c-18.4,0-24.08-12.81-24.08-29.15,0-15.57,6.19-31,24.08-31,12.21,0,19.44,7.57,21.59,19.18l-11,1.37c-.52-6.45-3.27-12-10.58-12-11.18,0-12.38,13.59-12.38,21.93s1.37,21.16,12.38,21.16c7.31,0,10.06-5.94,10.75-12.3l11,1.29C173.23,121.7,165.84,129.35,153.45,129.35Z"/></svg>