<svg id="Layer_1" data-name="Layer 1" xmlns="http://www.w3.org/2000/svg" viewBox="0 0 200 200"><defs><style>.cls-1{fill:#d6d6d6;}.cls-2{fill:#ededed;}</style></defs><title>partner-image_business-development</title><circle class="cls-1" cx="98.5" cy="99.5" r="91.5"/><path class="cls-2" d="M72,131.65H46.37V67H69.84c10.87,0,20.86,3.3,20.86,16,0,8.05-4,13-11.93,14.65,8.83,1.16,13.58,7.17,13.58,15.9C92.35,125.83,83.52,131.65,72,131.65ZM67.71,76.46H58.2V93.53h8.93c6.11,0,11.54-1.74,11.54-8.82C78.67,77.92,73.53,76.46,67.71,76.46ZM68.29,103H58.2v19.11H68.39c6.69,0,11.54-2.14,11.54-9.61S75,103,68.29,103Z"/><path class="cls-2" d="M124.15,131.65H103.49V67h19c21.83,0,30.36,10.67,30.36,31.82C152.86,117.88,144.91,131.65,124.15,131.65Zm-1.26-55.19h-7.57v45.69h7.57c13.68,0,17-11.16,17-22.7C139.86,87.62,137.05,76.46,122.89,76.46Z"/></svg>