<svg id="Layer_1" data-name="Layer 1" xmlns="http://www.w3.org/2000/svg" viewBox="0 0 200 200"><defs><style>.cls-1{fill:#d6d6d6;}.cls-2{fill:#ededed;}</style></defs><title>partner-image_specialty-product-team</title><circle class="cls-1" cx="98.5" cy="99.5" r="91.5"/><path class="cls-2" d="M51.89,129.35c-8.25,0-15.82-2.75-20.29-10A20.6,20.6,0,0,1,29.36,114l10.58-2.23c1.2,6,6.62,8.86,12.38,8.86,4.82,0,10.41-1.72,10.41-7.49,0-12.38-31-7.14-31-27.09,0-12.64,9.64-16.85,20.82-16.85C60,69.24,67,71.73,71.33,78a16.81,16.81,0,0,1,2.15,4.3L63.07,85.15c-1.46-4.73-5.84-7.31-10.66-7.31-4.56,0-9.55,1.55-9.55,7,0,12.9,31.39,6.2,31.39,27.35C74.25,125.83,63.68,129.35,51.89,129.35Z"/><path class="cls-2" d="M101.26,104.84H92.74V128H82.25V70.61H103c11.61,0,18.92,4.3,18.92,16.77C121.9,100.37,113,104.84,101.26,104.84Zm-1-25.8H92.74V96.33h7.14c6.19,0,11.1-1.55,11.1-8.69S106.68,79,100.31,79Z"/><path class="cls-2" d="M152.84,79V128H142.35V79H126.1V70.61h43V79Z"/></svg>