<svg id="Layer_1" data-name="Layer 1" xmlns="http://www.w3.org/2000/svg" viewBox="0 0 200 200"><defs><style>.cls-1{fill:#d6d6d6;}.cls-2{fill:#ededed;}</style></defs><title>partner-image_medicaid-digital-solutions</title><circle class="cls-1" cx="98.5" cy="99.5" r="91.5"/><path class="cls-2" d="M65.22,128V96.16c0-5.77.34-11.53.51-17.29-1.29,5.33-2.66,10.58-4.12,15.82L52.06,128H42.69l-10.49-36c-1.29-4.3-2-8.68-3-13.07.17,5.76.51,11.52.51,17.29V128H20V70.61H36.32l9.21,34.06c1,3.78,1.8,7.57,2.49,11.35a102.38,102.38,0,0,1,2.32-11.35l9.2-34.06H74.85V128Z"/><path class="cls-2" d="M105,128H86.72V70.61h16.85c19.35,0,26.92,9.46,26.92,28.21C130.49,115.76,123.44,128,105,128ZM103.92,79H97.21v40.51h6.71c12.12,0,15-9.89,15-20.13C119,88.93,116.47,79,103.92,79Z"/><path class="cls-2" d="M158.53,129.35c-8.26,0-15.83-2.75-20.3-10A20.92,20.92,0,0,1,136,114l10.57-2.23c1.21,6,6.63,8.86,12.39,8.86,4.81,0,10.4-1.72,10.4-7.49,0-12.38-31-7.14-31-27.09,0-12.64,9.63-16.85,20.81-16.85,7.48,0,14.53,2.49,18.83,8.77a16.81,16.81,0,0,1,2.15,4.3l-10.4,2.84c-1.46-4.73-5.85-7.31-10.67-7.31-4.55,0-9.54,1.55-9.54,7,0,12.9,31.39,6.2,31.39,27.35C180.89,125.83,170.31,129.35,158.53,129.35Z"/></svg>