<svg id="Layer_1" data-name="Layer 1" xmlns="http://www.w3.org/2000/svg" viewBox="0 0 200 200"><defs><style>.cls-1{fill:#d6d6d6;}.cls-2{fill:#ededed;}</style></defs><title>partner-image_case-management</title><circle class="cls-1" cx="98.5" cy="99.5" r="91.5"/><path class="cls-2" d="M62.85,133.21c-20.75,0-27.16-14.46-27.16-32.89,0-17.55,7-34.92,27.16-34.92C76.63,65.4,84.78,73.94,87.2,87L74.78,88.59C74.2,81.31,71.1,75,62.85,75c-12.61,0-14,15.32-14,24.73s1.55,23.86,14,23.86c8.25,0,11.35-6.69,12.13-13.87l12.41,1.46C85.16,124.57,76.82,133.21,62.85,133.21Z"/><path class="cls-2" d="M148.21,131.65V95.76c0-6.5.39-13,.58-19.49-1.45,6-3,11.93-4.65,17.84l-10.77,37.54H122.8L111,91c-1.45-4.85-2.23-9.8-3.39-14.74.19,6.5.58,13,.58,19.49v35.89h-11V67h18.43L126,105.37c1.16,4.26,2,8.53,2.81,12.8a116.15,116.15,0,0,1,2.62-12.8L141.81,67h17.27v64.7Z"/></svg>