<svg id="Layer_1" data-name="Layer 1" xmlns="http://www.w3.org/2000/svg" viewBox="0 0 200 200"><defs><style>.cls-1{fill:#d6d6d6;}.cls-2{fill:#ededed;}</style></defs><title>partner-image_implementation-management-office </title><circle class="cls-1" cx="98.5" cy="99.5" r="91.5"/><path class="cls-2" d="M28.12,131.65V67H40v64.7Z"/><path class="cls-2" d="M100.87,131.65V95.76c0-6.5.38-13,.58-19.49-1.46,6-3,11.93-4.66,17.84L86,131.65H75.45L63.62,91c-1.46-4.85-2.23-9.8-3.4-14.74.2,6.5.58,13,.58,19.49v35.89h-11V67H68.27l10.38,38.42c1.17,4.26,2,8.53,2.82,12.8a113.84,113.84,0,0,1,2.61-12.8L94.46,67h17.27v64.7Z"/><path class="cls-2" d="M145.46,133.21c-19.88,0-27.55-16.2-27.55-33.86,0-17.85,7.47-33.95,27.55-33.95,20.66,0,27.65,15.72,27.65,33.95C173.11,117.1,165.44,133.21,145.46,133.21Zm0-58.2c-12.41,0-14.16,14.93-14.16,24.34s1.94,24.25,14.16,24.25,14.26-14.84,14.26-24.25S157.68,75,145.46,75Z"/></svg>