<svg id="Layer_1" data-name="Layer 1" xmlns="http://www.w3.org/2000/svg" viewBox="0 0 200 200"><defs><style>.cls-1{fill:#d6d6d6;}.cls-2{fill:#ededed;}</style></defs><title>partner-image_document-management</title><circle class="cls-1" cx="98.5" cy="99.5" r="91.5"/><path class="cls-2" d="M62.51,128H44.19V70.61H61.05C80.4,70.61,88,80.07,88,98.82,88,115.76,80.91,128,62.51,128ZM61.39,79H54.68v40.51h6.71c12.13,0,15-9.89,15-20.13C76.44,88.93,74,79,61.39,79Z"/><path class="cls-2" d="M143.18,128V96.16c0-5.77.34-11.53.51-17.29-1.29,5.33-2.66,10.58-4.13,15.82L130,128h-9.38l-10.49-36c-1.29-4.3-2-8.68-3-13.07.17,5.76.52,11.52.52,17.29V128H97.94V70.61h16.34l9.2,34.06c1,3.78,1.81,7.57,2.5,11.35a102.38,102.38,0,0,1,2.32-11.35l9.2-34.06h15.31V128Z"/></svg>