<svg id="Layer_1" data-name="Layer 1" xmlns="http://www.w3.org/2000/svg" viewBox="0 0 200 200"><defs><style>.cls-1{fill:#d6d6d6;}.cls-2{fill:#ededed;}</style></defs><title>partner-image_call-center</title><circle class="cls-1" cx="98.5" cy="99.5" r="91.5"/><path class="cls-2" d="M70.76,133.21c-20.76,0-27.16-14.46-27.16-32.89,0-17.55,7-34.92,27.16-34.92,13.78,0,21.92,8.54,24.35,21.63L82.69,88.59C82.11,81.31,79,75,70.76,75c-12.61,0-14,15.32-14,24.73s1.56,23.86,14,23.86c8.25,0,11.35-6.69,12.13-13.87l12.41,1.46C93.07,124.57,84.73,133.21,70.76,133.21Z"/><path class="cls-2" d="M130.22,133.21c-20.76,0-27.16-14.46-27.16-32.89,0-17.55,7-34.92,27.16-34.92,13.77,0,21.92,8.54,24.34,21.63l-12.41,1.56C141.57,81.31,138.46,75,130.22,75c-12.61,0-14,15.32-14,24.73s1.55,23.86,14,23.86c8.24,0,11.35-6.69,12.12-13.87l12.42,1.46C152.53,124.57,144.18,133.21,130.22,133.21Z"/></svg>