<?xml version="1.0" encoding="utf-8"?>
<!-- Generator: Adobe Illustrator 23.0.4, SVG Export Plug-In . SVG Version: 6.00 Build 0)  -->
<svg version="1.1" id="Layer_1" xmlns="http://www.w3.org/2000/svg" xmlns:xlink="http://www.w3.org/1999/xlink" x="0px" y="0px"
	 viewBox="0 0 566 455" style="enable-background:new 0 0 566 455;" xml:space="preserve">
<style type="text/css">
	.st0{fill:#606060;enable-background:new    ;}
	.st1{opacity:0.353;fill:#FFFFFF;enable-background:new    ;}
	.st2{opacity:0.35;fill:#FFFFFF;enable-background:new    ;}
</style>
<g transform="translate(-7525 -3451)">
	<rect x="7525" y="3451" class="st0" width="566" height="455"/>
	<circle class="st1" cx="7808" cy="3613.4" r="106"/>
	<path class="st2" d="M7946.9,3906h-277.7c0.2-6.2,0.5-12.4,0.8-19.1l0,0c0.5-10.2,1-20.7,1-31.4c0-14.8,2.1-29.6,6.4-43.8
		c4.1-13.6,10.1-26.5,17.8-38.4c7.5-11.6,16.7-22,27.3-31c10.4-8.9,22.2-16.1,34.8-21.4c14.8,8.5,31.6,13,48.6,12.9
		c17.7,0.1,35.2-4.7,50.3-13.9c3.3,1.3,6.5,2.7,9.7,4.3c11.7,5.8,22.5,13.2,32,22.1c9.7,9,18.1,19.2,25,30.4
		c7.1,11.5,12.5,24,16.2,37c3.9,13.6,5.8,27.7,5.8,41.8c0,10.8,0.5,21.3,1,31.4l0,0C7946.4,3893.5,7946.7,3899.8,7946.9,3906
		L7946.9,3906z"/>
</g>
</svg>
