<?xml version="1.0" encoding="utf-8"?>
<!-- Generator: Adobe Illustrator 23.0.4, SVG Export Plug-In . SVG Version: 6.00 Build 0)  -->
<svg version="1.1" id="Layer_1" xmlns="http://www.w3.org/2000/svg" xmlns:xlink="http://www.w3.org/1999/xlink" x="0px" y="0px"
	 viewBox="0 0 846 264" style="enable-background:new 0 0 846 264;" xml:space="preserve">
<style type="text/css">
	.st0{fill:#DBDBDB;}
	.st1{fill:#A0B227;}
	.st2{fill:#0072BC;}
	.st3{fill:none;stroke:#DBDBDB;stroke-width:2.9837;stroke-linecap:round;stroke-miterlimit:10;}
	.st4{fill:none;stroke:#DBDBDB;stroke-width:2.5941;stroke-linecap:round;stroke-miterlimit:10;}
	.st5{fill:#FFFFFF;}
	.st6{fill:none;stroke:#A0B227;stroke-width:1.1421;stroke-linecap:round;stroke-miterlimit:10;}
	.st7{fill:none;stroke:#0072BA;stroke-width:5.2786;stroke-linecap:round;stroke-miterlimit:10;}
	.st8{fill:none;stroke:#A0B227;stroke-width:1.1907;stroke-linecap:round;stroke-miterlimit:10;}
	.st9{fill:none;stroke:#DBDBDB;stroke-width:10.3244;stroke-miterlimit:10;}
	.st10{fill:#0072BA;}
	.st11{fill:none;stroke:#C1C1C1;stroke-width:0.5;stroke-miterlimit:10;}
	.st12{fill:none;stroke:#DBDBDB;stroke-width:1.6915;stroke-linecap:round;stroke-miterlimit:10;}
	.st13{fill:#E7E7E7;}
	.st14{fill:none;stroke:#DBDBDB;stroke-width:2.9404;stroke-linecap:round;stroke-miterlimit:10;}
	.st15{fill:#FFFFFF;stroke:#0072BA;stroke-width:3.7957;stroke-miterlimit:10;}
	.st16{fill:none;stroke:#A0B227;stroke-width:3.4774;stroke-linecap:round;stroke-miterlimit:10;}
	.st17{fill:none;stroke:#DBDBDB;stroke-width:0.8892;stroke-miterlimit:10;}
	.st18{fill:none;stroke:#DBDBDB;stroke-width:1.0144;stroke-miterlimit:10;}
</style>
<g>
	<g>
		<polygon class="st0" points="833.6,194.2 830.5,194.3 826.9,200.3 830.1,200.2 		"/>
		<polygon class="st0" points="819.9,194.7 823.7,200.4 826.9,200.3 823.1,194.5 		"/>
		<polygon class="st0" points="824.6,201.7 827.1,205.4 829.7,201 830.1,200.2 826.9,200.3 826.9,200.3 826.9,200.3 823.7,200.4 		
			"/>
		<g>
			<path class="st0" d="M825.5,152.3c-2.7,0.1-5,2-6,4.7c-0.4,1.1-0.6,2.4-0.6,3.7l0,0l13.8-0.4l0.1,0c-0.1-2.1-0.8-4.1-2.1-5.6
				C829.2,153,827.4,152.2,825.5,152.3"/>
			<polygon class="st0" points="818.8,160.6 819.9,194.7 823.1,194.5 822,160.5 			"/>
			<polygon class="st0" points="832.6,160.2 824.9,160.4 825.9,194.5 833.6,194.2 			"/>
		</g>
	</g>
</g>
<g>
	<g>
		<path class="st1" d="M111.7,93.1H46.2v47.3H87v19.3h65.5v-47.3h-40.8V93.1z M149.3,156.5H90.2v-16.1h21.5v-24.7h37.6V156.5z
			 M49.4,96.3h59.1v40.8H49.4V96.3z"/>
		<g>
			<path class="st2" d="M168,67.8H30.8c-4.8,0-8.8,3.9-8.8,8.8v96.9c0,4.8,3.9,8.8,8.8,8.8h53.9v13.1H74.3c-13.1,0-15,10.4-15,10.4
				h80.2c0,0-2.7-10.4-15-10.4h-10.4v-13.1H168c4.8,0,8.8-3.9,8.8-8.8V76.6C176.7,71.7,172.8,67.8,168,67.8 M30.8,74.2H168
				c1.3,0,2.3,1.1,2.3,2.3v1H28.5v-1C28.5,75.3,29.5,74.2,30.8,74.2 M168,175.8H30.8c-1.3,0-2.3-1.1-2.3-2.3V80.7h141.8v92.7
				C170.3,174.7,169.2,175.8,168,175.8"/>
		</g>
	</g>
</g>
<g>
	<line class="st3" x1="96.2" y1="225.7" x2="126.3" y2="225.7"/>
	<line class="st3" x1="131.6" y1="225.7" x2="137" y2="225.7"/>
	<line class="st4" x1="96.1" y1="232.2" x2="137.5" y2="232.2"/>
</g>
<g>
	<circle class="st5" cx="170.8" cy="81.8" r="36.2"/>
	<path class="st0" d="M188.6,65.5V106c1.9-1.3,3.5-3,5-4.6V65.5c0-4-3.4-7.4-7.4-7.4h-39.4c-1.5,1.5-2.8,3.2-4,5h43.5
		C187.5,63.2,188.6,64.3,188.6,65.5"/>
	<path class="st0" d="M231.1,134.9l-30.3-30.3c5.1-6.7,8.2-15.1,8.2-24.1c0-21.8-17.6-39.4-39.4-39.4c-18,0-33.1,12-37.9,28.5
		c-0.3,0.8-0.4,1.6-0.7,2.6c-0.5,2.7-0.9,5.5-0.9,8.5c0,1.6,0.1,3.4,0.3,5c0.1,0.8,0.3,1.6,0.4,2.6c0.8,4,2.2,7.8,4,11.3
		c0.4,0.8,0.9,1.7,1.5,2.6c2.8,4.4,6.6,8.3,10.9,11.3c1.3,0.9,2.7,1.7,4.2,2.6c5.4,2.8,11.6,4.4,18,4.4c3.5,0,6.9-0.4,10.2-1.3
		c0.8-0.3,1.7-0.5,2.6-0.8c2.8-0.9,5.7-2.3,8.2-3.9c0,0,0,0,0,0.1l30.7,30.7c1.3,1.3,3.1,2,5,2c1.7,0,3.5-0.7,5-2
		C233.8,142.1,233.8,137.6,231.1,134.9 M135.2,80.4c0-19,15.5-34.4,34.4-34.4s34.4,15.5,34.4,34.4s-15.5,34.4-34.4,34.4
		S135.2,99.4,135.2,80.4"/>
</g>
<g>
	<line class="st6" x1="225.1" y1="53.5" x2="235.1" y2="53.5"/>
	<line class="st6" x1="230.1" y1="48.5" x2="230.1" y2="58.5"/>
</g>
<g>
	<g>
		<g>
			<g>
				<path class="st2" d="M356.4,111.3h24.3c0-0.8,0-1.7,0-2.6h-24.3C356.4,109.6,356.4,110.5,356.4,111.3"/>
				<path class="st2" d="M356.4,115.9c0,0.9,0,1.6,1.1,1.6h4.4c0.8,1.1,2.1,3,2.1,3.1c0.3,0.4,0.7,0.5,1.4,0.5h6.6
					c0.6,0,1-0.2,1.3-0.6c0,0,1.3-1.9,2.1-3h4.4c1.1,0,1.1-0.7,1.1-1.7c0-0.1,0-1.2,0-2.8h-24.3
					C356.4,114.6,356.4,115.8,356.4,115.9"/>
				<path class="st2" d="M368.6,47.1c-13.4,0-24.3,11.8-24.3,24.1c0,14.3,12,18.6,12,25.9v2c0,1.1,0.2,2.1,0.6,3.1
					c-0.5,0.3-0.4,1.1-0.4,2c0,0.1,0,1.2,0,2.8h24.3c0-1.6,0-2.8,0-2.8c0-0.9,0.2-1.7-0.4-2c0.4-0.9,0.6-2,0.6-3.1v-2
					c0-8.4,12-11.9,12-25.9C392.9,58.9,382,47.1,368.6,47.1 M377.8,97.2v2c0,1.1-0.3,2.1-0.9,2.9h-16.7c-0.5-0.8-0.9-1.8-0.9-2.9v-2
					c0-4.2-2.5-7.2-5.2-10.5c-3.3-4-6.8-8.2-6.8-15.4c0-11.2,9.9-21.1,21.2-21.1c11.3,0,21.2,9.8,21.2,21.1c0,6.7-3.3,10.6-6.4,14.4
					C380.7,89,377.8,92.4,377.8,97.2"/>
				<path class="st1" d="M381.5,69.5c1.1-1.1,1.1-2.9,0-4.1c-0.6-0.6-1.3-0.8-2-0.8c-0.7,0-1.5,0.3-2.1,0.8l-11.7,11.7l-4.7-4.7
					c-1.1-1.1-2.9-1.1-4.1,0c-1.1,1.1-1.1,2.9,0,4.1l6.4,6.4l0.3,0.3c0.6,0.6,1.3,0.8,2,0.8c0.7,0,1.5-0.3,2-0.8l0.3-0.3l11.5-11.5
					L381.5,69.5z"/>
			</g>
		</g>
	</g>
	<line class="st7" x1="368.7" y1="31.8" x2="368.7" y2="42.2"/>
	<line class="st7" x1="407.7" y1="68.7" x2="397.3" y2="68.7"/>
	<line class="st7" x1="339.4" y1="68.7" x2="329" y2="68.7"/>
	<line class="st7" x1="395.8" y1="42.2" x2="388.4" y2="49.6"/>
	<line class="st7" x1="340.4" y1="42.2" x2="347.8" y2="49.6"/>
</g>
<g>
	<line class="st8" x1="184.6" y1="206.2" x2="195.1" y2="206.2"/>
	<line class="st8" x1="189.9" y1="201" x2="189.9" y2="211.4"/>
</g>
<g>
	<g>
		<polyline class="st9" points="286.8,181.3 315.5,146.5 323.4,160.4 347.5,128.7 		"/>
		<g>
			<polygon class="st0" points="348.5,146.3 346.3,130.3 330.4,132.5 336.2,124.8 352.2,122.6 354.3,138.6 			"/>
		</g>
	</g>
</g>
<g>
	<circle class="st10" cx="267.9" cy="200.7" r="44"/>
	<g>
		<g>
			<rect x="241.8" y="179.1" class="st5" width="52.2" height="42.1"/>
			<rect x="239.1" y="178.1" class="st1" width="57.7" height="3.2"/>
			<rect x="239.1" y="220.1" class="st1" width="57.7" height="3.2"/>
		</g>
		<rect x="276.8" y="183.8" class="st1" width="10.9" height="33.4"/>
		<rect x="262.2" y="192.1" class="st1" width="10.9" height="25.3"/>
		<rect x="247.6" y="201.9" class="st1" width="10.9" height="15.5"/>
	</g>
</g>
<g>
	<path class="st11" d="M262.2,72.5c-1.2,0.6-2.5,1.2-3.6,2c-1.2,0.8-2.3,1.6-3.3,2.5l2.6,7.2c-1.4,1.5-2.6,3.2-3.5,5l-7.7,0.1
		c-1,2.6-1.6,5.3-1.8,8.1l6.9,3.2c0.1,2,0.4,4.1,1.1,6l-5.4,5.5c0.6,1.2,1.2,2.5,2,3.6c0.8,1.2,1.6,2.3,2.5,3.3l7.2-2.6
		c1.5,1.4,3.2,2.6,5,3.5l0.1,7.7c2.6,1,5.3,1.6,8.1,1.8l3.2-6.9c2-0.1,4.1-0.4,6-1.1l5.5,5.4c1.2-0.6,2.5-1.2,3.6-2
		c1.2-0.8,2.3-1.6,3.3-2.5l-2.6-7.2c1.4-1.5,2.6-3.2,3.5-5l7.7-0.1c1-2.6,1.6-5.3,1.8-8.1l-6.9-3.2c-0.1-2-0.4-4.1-1.1-6l5.4-5.5
		c-0.6-1.2-1.2-2.5-2-3.6c-0.8-1.2-1.6-2.3-2.5-3.3l-7.2,2.6c-1.5-1.4-3.2-2.6-5-3.5l-0.1-7.7c-2.6-1-5.3-1.6-8.1-1.8l-3.2,6.9
		c-2,0.1-4.1,0.4-6,1.1L262.2,72.5z M285.6,92.6c3.8,6,2.1,14-3.9,17.8c-6,3.8-14,2.1-17.8-3.9c-3.8-6-2.1-14,3.9-17.8
		C273.7,84.9,281.7,86.6,285.6,92.6z"/>
</g>
<g>
	<line class="st6" x1="337.9" y1="191.2" x2="347.9" y2="191.2"/>
	<line class="st6" x1="342.9" y1="186.2" x2="342.9" y2="196.2"/>
</g>
<g>
	<g>
		<g>
			<path class="st2" d="M472.1,165.1L472.1,165.1h-10.3v-10.5c0-2.7-1.8-4.9-8-4.9H437c-5.4,0-8,3.1-8,4.9v10.5h-10.9h-2v78.3h58.1
				v-78.3H472.1z M436.3,157.6c0-0.6,0.5-1,1-1h16.3c0.6,0,1,0.5,1,1v7.5h-18.4V157.6z"/>
			<path class="st2" d="M494.4,165.1h-7.9h-2v78.3h9.9c3.4,0,6.3-2.8,6.3-6.3v-65.8C500.6,167.9,497.8,165.1,494.4,165.1"/>
			<path class="st2" d="M403.8,165.1L403.8,165.1h-7.2c-3.4,0-6.3,2.8-6.3,6.3v65.8c0,3.4,2.8,6.3,6.3,6.3h9.3v-78.3H403.8z"/>
			<polygon class="st2" points="405.8,165.1 416.1,165.1 418.1,165.1 418.1,161.8 403.8,161.8 403.8,165.1 			"/>
			<polygon class="st2" points="474.2,165.1 484.5,165.1 486.5,165.1 486.5,161.8 472.1,161.8 472.1,165.1 			"/>
		</g>
	</g>
</g>
<g>
	<line class="st12" x1="330.9" y1="215.1" x2="355.3" y2="215.1"/>
	<line class="st12" x1="330.9" y1="219.5" x2="355.3" y2="219.5"/>
	<line class="st12" x1="330.9" y1="224" x2="355.3" y2="224"/>
	<line class="st12" x1="330.9" y1="228.4" x2="355.3" y2="228.4"/>
	<line class="st12" x1="330.9" y1="232.9" x2="347.7" y2="232.9"/>
</g>
<g>
	<rect x="506.9" y="171.4" class="st13" width="8" height="2.6"/>
	<rect x="506.9" y="176.3" class="st13" width="8" height="2.6"/>
	<rect x="506.9" y="181.3" class="st13" width="8" height="2.6"/>
	<rect x="506.9" y="186.2" class="st13" width="8" height="2.6"/>
	<rect x="506.9" y="191.1" class="st0" width="12.1" height="2.6"/>
	<rect x="506.9" y="196" class="st13" width="8" height="2.6"/>
	<rect x="506.9" y="201" class="st13" width="8" height="2.6"/>
	<rect x="506.9" y="205.9" class="st13" width="8" height="2.6"/>
	<rect x="506.9" y="210.9" class="st13" width="8" height="2.6"/>
	<rect x="506.9" y="215.8" class="st0" width="12.1" height="2.6"/>
	<rect x="506.9" y="220.8" class="st13" width="8" height="2.6"/>
	<rect x="506.9" y="225.6" class="st13" width="8" height="2.6"/>
	<rect x="506.9" y="230.6" class="st13" width="8" height="2.6"/>
	<rect x="506.9" y="235.5" class="st13" width="8" height="2.6"/>
	<rect x="506.9" y="166.4" class="st0" width="12.1" height="2.6"/>
	<rect x="506.9" y="240.5" class="st0" width="12.1" height="2.6"/>
</g>
<g>
	<g>
		<g>
			<path class="st2" d="M502.2,26.4L502.2,26.4l26.7-0.1c0.6,0,1.1-0.5,1.1-1.1c0-0.6-0.5-1.1-1.1-1.1h0l-26.7,0.1
				c-0.6,0-1.1,0.5-1.1,1.1C501.1,26,501.6,26.4,502.2,26.4"/>
			<path class="st2" d="M512,40.9L512,40.9l26.7-0.1c0.6,0,1.1-0.5,1.1-1.1c0-0.6-0.5-1.1-1.1-1.1h0L512,38.8
				c-0.6,0-1.1,0.5-1.1,1.1C510.9,40.4,511.4,40.9,512,40.9"/>
			<path class="st2" d="M599.5,104.1c-10.8-32.2-6.2-56.1-6.2-56.3c0.1-0.6,0-1.3-0.5-1.8c-0.4-0.5-1-0.8-1.7-0.8h0l-8.6,0
				c0.1-7.7,1-12.2,1-12.4c0.1-0.6,0-1.3-0.5-1.8c-0.4-0.5-1-0.8-1.7-0.8h0l-8.6,0c0.1-7.5,1-11.8,1-11.9c0.1-0.6,0-1.3-0.5-1.8
				c-0.4-0.5-1-0.8-1.7-0.8h0L495,16.2c-1,0-1.9,0.7-2.1,1.7c-0.3,1.2-6.9,30.2,6.4,58.8c0.4,0.8,1.1,1.3,2,1.3h0l3,0
				c1.2,4.4,2.8,8.8,4.8,13.2c0.4,0.8,1.1,1.3,2,1.3h0l2.9,0c1.2,4.5,2.8,9.1,4.9,13.7c0.4,0.8,1.1,1.3,2,1.3h0l76.6-0.4
				c0.7,0,1.3-0.3,1.8-0.9C599.6,105.5,599.7,104.8,599.5,104.1 M522.2,103c-1.6-3.5-2.8-7.1-3.8-10.6c-0.2-0.7-0.4-1.4-0.6-2.2
				c-0.2-0.7-0.4-1.4-0.5-2.2c-0.8-3.5-1.3-6.9-1.7-10.2c-0.1-0.7-0.2-1.5-0.2-2.2c0-0.2,0-0.4,0-0.5c0-0.5-0.1-1.1-0.1-1.6
				c0-0.2,0-0.4,0-0.6c-0.1-1.7-0.2-3.3-0.2-4.9c0-0.7,0-1.5,0-2.2c0-7.5,0.9-13.3,1.4-16l53.2-0.3l2.2,0l2.2,0l4.2,0l2.2,0l2.2,0
				l6.1,0c-0.9,6.9-2.4,26.9,5.8,53.1L522.2,103z M512.4,88.1c-1.5-3.4-2.7-6.8-3.7-10.2c-0.2-0.7-0.4-1.4-0.6-2.2
				c-0.2-0.7-0.4-1.4-0.5-2.2c-4.1-17.7-2-33.5-1.1-38.6l61.8-0.3l2.2,0l2.2,0l6.1,0c-0.3,2.2-0.6,5.9-0.7,10.6l-4.7,0l-2.2,0
				l-2.2,0l-54.4,0.3c-1,0-1.9,0.7-2.1,1.7c-0.2,0.7-2.6,11.6-1.6,26.3c0,0.7,0.1,1.4,0.2,2.2c0.1,0.7,0.1,1.4,0.2,2.2
				c0.4,3.3,0.9,6.7,1.7,10.2L512.4,88.1z M502.6,73.6c-10.2-23-7-46.7-5.9-53.1l72.3-0.3c-0.3,2.2-0.6,5.6-0.7,10.2l-63.6,0.3
				c-1,0-1.9,0.7-2.1,1.7c-0.2,1-4.4,19.4,0.5,41.2L502.6,73.6z"/>
			<path class="st2" d="M548.5,56.1L548.5,56.1l-26.7,0.1c-0.6,0-1.1,0.5-1.1,1.1c0,0.6,0.5,1.1,1.1,1.1h0l26.7-0.1
				c0.6,0,1.1-0.5,1.1-1.1C549.6,56.6,549.1,56.1,548.5,56.1"/>
			<path class="st1" d="M588.2,91.3c-2.1-8.1-3.1-15.3-3.4-21c-0.2-2.6-0.2-4.9-0.1-6.9c0-0.3-0.1-0.6-0.3-0.8
				c-0.2-0.2-0.5-0.3-0.8-0.3h0h0l-2.2,0l-2.2,0l-2.7,0l-2.2,0l-2.2,0l-14.4,0.1c0,0-0.1,0-0.1,0c0,0,0,0-0.1,0
				c-0.2,0-0.4,0.1-0.5,0.3c0,0,0,0,0,0c0,0-0.1,0.1-0.1,0.1c0,0,0,0,0,0c0,0-0.1,0.1-0.1,0.1c0,0,0,0,0,0.1c0,0,0,0.1,0,0.1
				c0,0,0,0.1,0,0.1c0,0,0,0.1,0,0.1c0,0,0,0,0,0.1c-0.1,1.4-0.1,2.9-0.2,4.5c0,0.6,0,1.2,0,1.8l-7.3,0l-28,0.1c0,0,0,0,0,0
				c0,0,0,0,0,0c0,0-0.1,0-0.1,0c0,0-0.1,0-0.1,0c0,0-0.1,0-0.1,0c0,0-0.1,0-0.1,0c0,0-0.1,0-0.1,0.1c0,0-0.1,0-0.1,0
				c0,0-0.1,0.1-0.1,0.1c0,0,0,0-0.1,0.1c0,0-0.1,0.1-0.1,0.1c0,0,0,0-0.1,0.1c0,0,0,0.1-0.1,0.1c0,0,0,0.1,0,0.1c0,0,0,0.1,0,0.1
				c0,0,0,0.1,0,0.1c0,0,0,0.1,0,0.1c0,0,0,0.1,0,0.1c0,0,0,0,0,0c0,0,0,0,0,0c0,0.7,0,1.5,0.1,2.2c0,0.1,0,0.2,0,0.3
				c0,0.6,0.1,1.3,0.1,1.9c0,0.1,0,0.2,0,0.3c0.1,0.7,0.1,1.5,0.2,2.2c0.4,3.5,1,6.9,1.9,10.2c0.2,0.7,0.4,1.5,0.6,2.2
				c0.2,0.7,0.4,1.5,0.7,2.2c0.8,2.3,1.7,4.6,2.7,6.8c0.2,0.4,0.6,0.6,1,0.6h0l8.8,0c0,0,0,0,0,0c0,0,0,0,0,0l18.4-0.1c0,0,0,0,0,0
				c0,0,0,0,0,0l18.4-0.1c0,0,0,0,0,0c0,0,0,0,0,0l9.2,0c0.1,0,0.2,0,0.2,0c0,0,0,0,0,0c0.1,0,0.1,0,0.2-0.1c0,0,0,0,0,0
				c0,0,0,0,0.1,0c0,0,0.1,0,0.1-0.1c0,0,0.1,0,0.1-0.1c0,0,0,0,0.1-0.1c0,0,0.1-0.1,0.1-0.1c0,0,0,0,0.1-0.1c0,0,0-0.1,0.1-0.1
				c0,0,0-0.1,0-0.1c0,0,0-0.1,0-0.1c0,0,0-0.1,0-0.1c0,0,0-0.1,0-0.2c0,0,0,0,0,0c0,0,0,0,0,0c0-0.1,0-0.1,0-0.2c0,0,0,0,0-0.1
				c0,0,0-0.1,0-0.1c0,0,0-0.1,0-0.1c0,0,0,0,0,0c-0.8-1.7-1.5-3.4-2.1-5.1l6.2,0c0,0,0.1,0,0.1,0c0.1,0,0.2,0,0.3,0
				c0.1,0,0.2-0.1,0.3-0.1c0.3-0.2,0.5-0.5,0.6-0.8c0-0.1,0-0.1,0-0.2C588.3,91.6,588.3,91.4,588.2,91.3 M534,90.2
				c-0.2-0.7-0.4-1.4-0.6-2.2c-0.2-0.6-0.3-1.2-0.5-1.9l6.9,0c0.1,0.6,0.3,1.3,0.5,1.9c0.2,0.7,0.4,1.5,0.6,2.2
				c0.1,0.3,0.2,0.5,0.2,0.8l-6.9,0C534.1,90.7,534,90.4,534,90.2 M549.5,74.7c0-0.4,0-0.9-0.1-1.3c0-0.5-0.1-0.9-0.1-1.4l7,0
				c0,0.5,0,0.9,0.1,1.4c0,0.6,0.1,1.1,0.1,1.7c0,0.2,0,0.3,0,0.5c0,0.4,0.1,0.8,0.1,1.3l-7,0c0-0.4-0.1-0.8-0.1-1.3
				C549.5,75.3,549.5,75,549.5,74.7 M577,87.8c0.2,0.7,0.4,1.4,0.6,2.2c0.1,0.3,0.2,0.5,0.2,0.8l-6.9,0c-0.1-0.3-0.2-0.5-0.2-0.8
				c-0.2-0.7-0.4-1.4-0.6-2.2c-0.2-0.6-0.3-1.3-0.5-1.9l7,0C576.7,86.5,576.9,87.2,577,87.8 M543.2,90.1c-0.2-0.7-0.4-1.4-0.6-2.2
				c-0.2-0.6-0.3-1.2-0.5-1.9l7,0c0.1,0.6,0.3,1.3,0.5,1.9c0.2,0.7,0.4,1.5,0.6,2.2c0.1,0.3,0.2,0.5,0.2,0.8l-6.9,0
				C543.3,90.7,543.2,90.4,543.2,90.1 M540.7,79l7,0c0.2,1.6,0.5,3.3,0.8,4.9l-7,0C541.2,82.3,541,80.7,540.7,79 M558.7,75.5
				c0-0.1,0-0.2,0-0.4c-0.1-0.6-0.1-1.2-0.1-1.8c0-0.5-0.1-0.9-0.1-1.4l7,0c0,0.5,0,0.9,0.1,1.4c0,0.7,0.1,1.4,0.2,2.2l0,0
				c0,0.4,0.1,0.8,0.1,1.3l-7,0C558.8,76.4,558.8,75.9,558.7,75.5 M574.8,73c0,0.1,0,0.1,0,0.2c0,0.7,0.1,1.4,0.2,2.2
				c0,0.2,0,0.4,0.1,0.5c0,0.2,0,0.5,0.1,0.8l-7,0c0-0.4-0.1-0.8-0.1-1.1c0,0,0-0.1,0-0.1c-0.1-0.7-0.1-1.5-0.2-2.2
				c0-0.5,0-0.9-0.1-1.4l6.7,0l0.3,0C574.7,72.2,574.7,72.6,574.8,73 M576.1,83.7l-7,0c-0.3-1.6-0.6-3.3-0.8-4.9l7,0
				C575.5,80.5,575.8,82.1,576.1,83.7 M549.9,79l7,0c0.2,1.6,0.5,3.2,0.8,4.9l-7,0C550.4,82.3,550.2,80.6,549.9,79 M559.1,79l7,0
				c0.2,1.6,0.5,3.2,0.8,4.9l-7,0C559.6,82.2,559.3,80.5,559.1,79 M552.3,90.1c-0.2-0.7-0.4-1.4-0.6-2.2c-0.2-0.6-0.3-1.2-0.5-1.9
				l7,0c0.1,0.6,0.3,1.2,0.5,1.9c0.2,0.7,0.4,1.4,0.6,2.2c0.1,0.3,0.2,0.5,0.2,0.8l-6.9,0C552.5,90.6,552.4,90.3,552.3,90.1
				 M561.5,90c-0.2-0.7-0.4-1.4-0.6-2.2c-0.2-0.6-0.3-1.3-0.5-1.9l7,0c0.1,0.6,0.3,1.2,0.5,1.9c0.2,0.7,0.4,1.4,0.6,2.2
				c0.1,0.3,0.2,0.5,0.2,0.8l-6.9,0C561.7,90.6,561.6,90.3,561.5,90 M577.5,78.9l4.6,0l1.3,0c0,0,0,0,0,0c0.2,1.6,0.5,3.2,0.8,4.9
				l-0.8,0l-5.1,0C578,82.1,577.7,80.5,577.5,78.9 M582.7,71.8c0.1,1.5,0.3,3.2,0.5,4.9l-1.5,0l-2.1,0l-1.5,0l-0.8,0
				c0-0.2,0-0.4-0.1-0.6c0-0.2,0-0.4-0.1-0.6c-0.1-0.9-0.1-1.9-0.2-2.8c0-0.3,0-0.5,0-0.8l2,0l1.7,0L582.7,71.8z M523.6,84
				c-0.3-1.6-0.6-3.2-0.8-4.9l6.6,0c0.2,1.6,0.5,3.3,0.8,4.9l-6.4,0C523.7,84,523.6,84,523.6,84 M531.6,79.1l7,0
				c0.2,1.6,0.5,3.3,0.8,4.9l-7,0C532.1,82.3,531.8,80.7,531.6,79.1 M579.9,89.9c-0.2-0.7-0.4-1.4-0.6-2.2c-0.2-0.6-0.3-1.3-0.5-1.9
				l5.3,0l0.6,0c0.3,1.3,0.6,2.7,0.9,4c0.1,0.3,0.1,0.5,0.2,0.8l-5.7,0C580,90.5,580,90.2,579.9,89.9 M579.4,64.5l2.2,0l0.8,0
				c0,1.5,0,3.3,0.1,5.2l-0.1,0l-2.2,0l-1.9,0l-1.5,0c0-1.8,0-3.5,0.1-5c0,0,0-0.1,0-0.1L579.4,64.5z M572.4,64.5l2.2,0
				c0,0.1,0.1,0.2,0.1,0.4c-0.1,1.3-0.1,2.6-0.1,4c0,0.3,0,0.5,0,0.8l-0.9,0l-6.1,0c0-0.4,0-0.8,0-1.2c0-1.4,0-2.7,0.1-4L572.4,64.5
				z M558.4,68.1c0-1.2,0-2.4,0.1-3.5l7,0c-0.1,1.2-0.1,2.5-0.1,3.9c0,0.4,0,0.8,0,1.3l-7,0C558.4,69.2,558.4,68.6,558.4,68.1
				 M547.2,72c0,0.5,0,0.9,0.1,1.4c0,0.4,0,0.8,0.1,1.2c0,0.3,0.1,0.7,0.1,1c0,0.4,0.1,0.8,0.1,1.2c0,0,0,0,0,0.1l-7,0
				c0-0.2,0-0.3,0-0.5c0-0.3-0.1-0.5-0.1-0.8c0-0.5-0.1-0.9-0.1-1.4c0-0.3,0-0.5,0-0.8c0-0.5-0.1-0.9-0.1-1.4L547.2,72z M538,72
				c0,0.5,0,0.9,0.1,1.4c0,0.2,0,0.5,0,0.7c0,0.5,0.1,1,0.1,1.5c0,0.2,0,0.5,0.1,0.7c0,0.2,0,0.4,0.1,0.6l-7,0c0-0.3-0.1-0.6-0.1-1
				c0-0.1,0-0.2,0-0.3c-0.1-0.6-0.1-1.2-0.1-1.9c0-0.1,0-0.2,0-0.3c0-0.5-0.1-0.9-0.1-1.4L538,72z M522.3,75.5
				c-0.1-0.7-0.1-1.3-0.1-2c0-0.1,0-0.1,0-0.2c0-0.4,0-0.8-0.1-1.2l6.6,0c0,0.5,0,0.9,0.1,1.4c0,0.1,0,0.1,0,0.2
				c0,0.7,0.1,1.3,0.1,2c0,0.1,0,0.1,0,0.2c0,0.4,0.1,0.7,0.1,1.1l-6.6,0c0-0.4-0.1-0.9-0.1-1.3C522.4,75.6,522.4,75.6,522.3,75.5
				 M524.5,88c-0.2-0.6-0.3-1.2-0.5-1.9l6.6,0c0.1,0.6,0.3,1.3,0.5,1.9c0.2,0.7,0.4,1.5,0.6,2.2c0.1,0.3,0.2,0.5,0.2,0.8l-6.5,0
				c-0.1-0.3-0.2-0.5-0.2-0.8C524.9,89.5,524.7,88.8,524.5,88 M527.9,97.7c-0.7-1.5-1.2-3-1.8-4.5l6.5,0c0.5,1.5,1.1,3,1.7,4.5
				L527.9,97.7z M536.8,97.6c-0.7-1.5-1.3-3-1.8-4.5l6.9,0c0.5,1.5,1.1,3,1.7,4.5L536.8,97.6z M546,97.6c-0.7-1.5-1.3-3-1.8-4.5
				l6.9,0c0.5,1.5,1.1,3,1.8,4.5L546,97.6z M555.1,97.5c-0.7-1.5-1.3-3-1.8-4.5l6.9,0c0.5,1.5,1.1,3,1.7,4.5L555.1,97.5z
				 M564.3,97.5c-0.7-1.5-1.3-3-1.8-4.5l6.9,0c0.5,1.5,1.1,3,1.7,4.5L564.3,97.5z M580.3,97.4l-6.8,0c-0.7-1.5-1.3-3-1.8-4.5l6.9,0
				C579.1,94.4,579.7,95.9,580.3,97.4"/>
		</g>
	</g>
</g>
<g>
	<g>
		<g>
			<path class="st1" d="M641.3,210.1c6.7,0,12.1-5.4,12.1-12.1c0-2.8-1-5.4-2.6-7.5c-0.4-0.5-0.9-1-1.4-1.5c-2.2-2-5-3.2-8.2-3.2
				c-3.2,0-6,1.2-8.2,3.2c-0.5,0.5-0.9,0.9-1.4,1.5c-1.6,2.1-2.6,4.6-2.6,7.5C629.1,204.7,634.6,210.1,641.3,210.1 M645.5,192
				c1.6,0,2.9,1.3,2.9,2.9s-1.3,2.9-2.9,2.9c-1.6,0-2.9-1.3-2.9-2.9S643.9,192,645.5,192"/>
			<path class="st2" d="M657.1,201.2c-0.5,2.3-1.4,4.3-2.7,6.2c-0.1,0.2-0.3,0.4-0.4,0.5c-0.2,0.2-0.4,0.4-0.5,0.7
				c-0.2,0.3-0.5,0.5-0.7,0.8c0,0,0,0,0,0c-2.9,2.9-7,4.7-11.4,4.7c-4.5,0-8.5-1.8-11.4-4.7c-0.5-0.5-0.9-1-1.3-1.5
				c-0.1-0.2-0.3-0.4-0.4-0.5c-1.9-2.7-3-5.9-3-9.4c0-2.7,0.7-5.2,1.8-7.5h-21l0,21.4c0,4.6,3.8,8.4,8.4,8.4h53.9
				c4.6,0,8.4-3.8,8.4-8.4v-21.4l-21,0c1.2,2.2,1.8,4.8,1.8,7.5C657.4,199.1,657.3,200.2,657.1,201.2"/>
			<path class="st2" d="M676.6,189.1v-5c0-4.6-3.8-8.4-8.4-8.4l-10.7-0.1c-3.1,0-3.6-7.3-8-7.3H633c-4.4,0-5.1,7.3-7.7,7.3l-11,0.1
				c-4.6,0-8.4,3.8-8.4,8.4l0,5h21.9c0.2-0.2,0.3-0.5,0.5-0.7c0.8-1,1.6-1.9,2.6-2.7c2.8-2.3,6.4-3.8,10.4-3.8c4.1,0,7.8,1.5,10.6,4
				c0.5,0.4,0.9,0.9,1.4,1.3c0.3,0.4,0.7,0.8,1,1.2c0.2,0.2,0.3,0.5,0.5,0.7C654.7,189.1,676.6,189.1,676.6,189.1 M668.3,180.3
				c1.6,0,2.9,1.3,2.9,2.9c0,1.6-1.3,2.9-2.9,2.9c-1.6,0-2.9-1.3-2.9-2.9C665.5,181.5,666.8,180.3,668.3,180.3"/>
			<path class="st2" d="M655.6,190.5L655.6,190.5C655.6,190.5,655.6,190.5,655.6,190.5"/>
		</g>
	</g>
</g>
<g>
	<line class="st6" x1="549.7" y1="151.2" x2="559.7" y2="151.2"/>
	<line class="st6" x1="554.7" y1="146.2" x2="554.7" y2="156.2"/>
</g>
<g>
	<line class="st14" x1="598.9" y1="114.2" x2="555.3" y2="114.2"/>
	<line class="st14" x1="549.5" y1="114.2" x2="543.2" y2="114.2"/>
	<line class="st14" x1="598.9" y1="119.6" x2="555.3" y2="119.6"/>
	<line class="st14" x1="549.5" y1="119.6" x2="543.2" y2="119.6"/>
	<line class="st14" x1="598.9" y1="125" x2="555.3" y2="125"/>
	<line class="st14" x1="549.5" y1="125" x2="543.2" y2="125"/>
</g>
<g>
	<line class="st6" x1="462.8" y1="36.4" x2="472.8" y2="36.4"/>
	<line class="st6" x1="467.8" y1="31.4" x2="467.8" y2="41.4"/>
</g>
<g>
	<rect x="731" y="57.1" class="st15" width="73" height="35.8"/>
	<path class="st10" d="M816.7,135.9h-98.4c-8,0-14.5-6.5-14.5-14.5v-23c0-8,6.5-14.5,14.5-14.5h98.4c8,0,14.5,6.5,14.5,14.5v23
		C831.2,129.4,824.7,135.9,816.7,135.9z"/>
	<rect x="733.1" y="109.1" class="st15" width="68.7" height="57"/>
	<circle class="st5" cx="817.6" cy="96.6" r="3.7"/>
	<g>
		<line class="st16" x1="741.8" y1="119.9" x2="792.7" y2="119.9"/>
		<line class="st16" x1="741.8" y1="128.9" x2="792.7" y2="128.9"/>
		<line class="st16" x1="741.8" y1="138" x2="792.7" y2="138"/>
		<line class="st16" x1="741.8" y1="146.9" x2="792.7" y2="146.9"/>
		<line class="st16" x1="741.8" y1="156" x2="776.7" y2="156"/>
	</g>
</g>
<g>
	<line class="st3" x1="606" y1="238.9" x2="636.1" y2="238.9"/>
	<line class="st3" x1="641.4" y1="238.9" x2="646.8" y2="238.9"/>
	<line class="st4" x1="605.9" y1="245.5" x2="647.3" y2="245.5"/>
</g>
<g>
	<g>
		<g>
			<path class="st0" d="M588.5,178.9c-0.2-0.1-0.5-0.1-0.8,0c-0.1,0-1.8,1-4.7,2.3l0-4.1c0-0.3-0.2-0.5-0.4-0.7
				c-0.3-0.1-0.6-0.1-0.8,0c-0.2,0.1-19.4,12.2-44.1,8.5c0,0-0.1,0-0.1,0c0,0,0,0,0,0c0,0-0.1,0-0.1,0c0,0-0.1,0-0.1,0
				c0,0-0.1,0-0.1,0c0,0-0.1,0-0.1,0c0,0-0.1,0-0.1,0c0,0-0.1,0-0.1,0.1c0,0,0,0,0,0c0,0,0,0,0,0c-0.1,0-0.2-0.1-0.3-0.1
				c-0.2-0.1-0.5,0-0.7,0.1c0,0,0,0,0,0c-0.2,0.1-0.3,0.4-0.3,0.6l-0.3,58.4c0,0.3,0.2,0.6,0.5,0.7c19.2,8.9,35.6,9.4,39,9.4
				c0.4,0,0.6,0,0.6,0c0.4,0,0.7-0.4,0.8-0.8l0-3.1c2.4-0.3,3.9-0.7,3.9-0.7c0.4-0.1,0.6-0.4,0.6-0.8l0-3.9c2.8-0.2,4.5-0.6,4.5-0.6
				c0.4-0.1,0.6-0.4,0.6-0.8l0-4.8c1.3-0.1,2-0.1,2.1-0.2c0.4-0.1,0.7-0.4,0.7-0.8l0.3-58.4C588.9,179.3,588.8,179,588.5,178.9
				 M567.8,217.2c0,0-9.8,0.4-22.1-4.9c-0.3-0.1-0.6-0.3-0.9-0.4c-0.3-0.1-0.6-0.3-0.9-0.4l0.2-12.6c15.4,5.2,23.9,5.7,23.9,5.7
				L567.8,217.2z M579.1,248.2c-0.6,0.1-1.6,0.3-3,0.5l0,0.8l0,0.2l0.3-54.6c0-0.4-0.3-0.8-0.7-0.8c-0.1,0-5.6-0.4-15.8-2.7
				c10,1,17,0.2,19.5-0.2L579.1,248.2z M584.3,243c-0.7,0.1-1.9,0.3-3.6,0.4l0.3-52.9c0-0.2-0.1-0.5-0.3-0.6
				c-0.2-0.1-0.4-0.2-0.7-0.2c-0.1,0-7.3,1.4-18.8,0.4c8.7,0.1,16-1.1,20.2-2c0.3-0.1,0.5-0.1,0.8-0.2c0.3-0.1,0.5-0.1,0.8-0.2
				c0.6-0.2,1.2-0.3,1.6-0.4L584.3,243z M587.1,237.2c-0.3,0-0.7,0.1-1.2,0.1l0.2-51c0-0.2-0.1-0.5-0.3-0.6
				c-0.2-0.1-0.5-0.2-0.7-0.1c0,0-0.8,0.2-2.1,0.6c-0.2,0.1-0.5,0.1-0.8,0.2c-0.2,0.1-0.5,0.1-0.8,0.2c-4,0.9-11.1,2.1-19.7,2
				c8-0.9,14.9-3.1,19.7-5.1c0.3-0.1,0.5-0.2,0.8-0.3c0.3-0.1,0.5-0.2,0.8-0.3c1.9-0.8,3.4-1.5,4.3-2L587.1,237.2z"/>
		</g>
	</g>
</g>
<g>
	<g>
		<g>
			<path class="st0" d="M641.8,35.7c-0.8-0.8-2-0.8-2.8,0l-6.9,6.9v-20c0-1.1-0.9-2-2-2c-1.1,0-2,0.9-2,2v20l-6.9-6.9
				c-0.8-0.8-2-0.8-2.8,0c-0.8,0.8-0.8,2,0,2.8l10.2,10.2c0.1,0.1,0.2,0.2,0.3,0.2c0,0,0,0,0,0c0.1,0.1,0.2,0.1,0.3,0.2c0,0,0,0,0,0
				c0.1,0,0.2,0.1,0.3,0.1c0,0,0,0,0,0c0.1,0,0.2,0,0.4,0c0.1,0,0.2,0,0.4,0c0,0,0,0,0,0c0.1,0,0.2-0.1,0.3-0.1c0,0,0,0,0,0
				c0.1,0,0.2-0.1,0.3-0.2c0,0,0,0,0,0c0.1-0.1,0.2-0.2,0.3-0.2l10.2-10.2C642.6,37.7,642.6,36.5,641.8,35.7"/>
			<path class="st17" d="M651,47.1h-10.2c-1,0-1.3,1.4-1.4,1.9c-0.6,4.5-4.5,6.7-9.2,6.7c-4.6,0-8.5-2.1-9.2-6.5
				c-0.1-0.5-0.2-2-1.4-2h-10.2c-1.5,0-2.7,1.2-2.7,2.7v11.8c0,1.5,1.2,2.7,2.7,2.7H651c1.5,0,2.7-1.2,2.7-2.7V49.8
				C653.7,48.3,652.5,47.1,651,47.1"/>
		</g>
	</g>
</g>
<g>
	<line class="st6" x1="704.9" y1="70.2" x2="714.9" y2="70.2"/>
	<line class="st6" x1="709.9" y1="65.2" x2="709.9" y2="75.2"/>
</g>
<g>
	<g>
		<g>
			<path class="st0" d="M739.5,228h-3.4c-0.1,0-0.2,0-0.3-0.1c-0.1-0.1-0.1-0.2-0.1-0.3l0-0.1c0-0.9-0.7-1.7-1.7-1.7
				s-1.7,0.7-1.7,1.7c0,0.1,0,0.1,0,0.1c0,0.1,0,0.2-0.1,0.3c-0.1,0.1-0.2,0.1-0.3,0.1h-3.4c-0.1,0-0.2,0-0.3-0.1
				c-0.1-0.1-0.1-0.2-0.1-0.3c0,0,0-0.1,0-0.1c0-0.9-0.7-1.7-1.7-1.7s-1.7,0.7-1.7,1.7c0,0.1,0,0.1,0,0.1c0,0.1,0,0.2-0.1,0.3
				c-0.1,0.1-0.2,0.1-0.3,0.1H721c-0.1,0-0.2,0-0.3-0.1c-0.1-0.1-0.1-0.2-0.1-0.3c0,0,0-0.1,0-0.1c0-0.9-0.7-1.7-1.7-1.7
				c-0.9,0-1.7,0.7-1.7,1.7l0,0.1c0,0.1,0,0.2-0.1,0.3c-0.1,0.1-0.2,0.1-0.3,0.1h-3.4c-0.1,0-0.2,0-0.3-0.1
				c-0.1-0.1-0.1-0.2-0.1-0.3c0,0,0-0.1,0-0.1c0-0.9-0.7-1.6-1.5-1.7c-0.2,0-0.4-0.2-0.4-0.4v-3.3c0-0.2,0.2-0.4,0.4-0.4
				c0.9-0.1,1.5-0.8,1.5-1.6c0-0.9-0.7-1.6-1.5-1.6c-0.2,0-0.4-0.2-0.4-0.4v-3.3c0-0.2,0.2-0.4,0.4-0.4c0.9-0.1,1.5-0.8,1.5-1.6
				c0-0.9-0.7-1.6-1.5-1.6c-0.2,0-0.4-0.2-0.4-0.4v-3.3c0-0.2,0.2-0.4,0.4-0.4c0.9-0.1,1.5-0.8,1.5-1.6c0-0.9-0.7-1.6-1.5-1.6
				c-0.2,0-0.4-0.2-0.4-0.4v-3.3c0-0.2,0.2-0.4,0.4-0.4c0.9-0.1,1.5-0.8,1.5-1.6c0-0.9-0.7-1.6-1.5-1.6c-0.2,0-0.4-0.2-0.4-0.4v-3.3
				c0-0.2,0.2-0.4,0.4-0.4c0.9-0.1,1.5-0.8,1.5-1.6c0,0,0-0.1,0-0.1l0-0.1c0-0.1,0-0.2,0.1-0.3c0.1-0.1,0.2-0.1,0.3-0.1h3.5
				c0.1,0,0.2,0,0.3,0.1c0.1,0.1,0.1,0.2,0.1,0.3l0,0.1c0,0,0,0.1,0,0.1c0,0.9,0.7,1.7,1.7,1.7c0.9,0,1.7-0.7,1.7-1.7
				c0,0,0-0.1,0-0.1l0-0.1c0-0.1,0-0.2,0.1-0.3c0.1-0.1,0.2-0.1,0.3-0.1h3.5c0.1,0,0.2,0,0.3,0.1c0.1,0.1,0.1,0.2,0.1,0.3l0,0.1
				c0,0,0,0.1,0,0.1c0,0.9,0.7,1.7,1.7,1.7s1.7-0.7,1.7-1.7c0,0,0-0.1,0-0.1l0-0.1c0-0.1,0-0.2,0.1-0.3c0.1-0.1,0.2-0.1,0.3-0.1h3.5
				c0.1,0,0.2,0,0.3,0.1c0.1,0.1,0.1,0.2,0.1,0.3l0,0.1c0,0,0,0.1,0,0.1c0,0.9,0.7,1.7,1.7,1.7s1.7-0.7,1.7-1.7c0,0,0-0.1,0-0.1
				l0-0.1c0-0.1,0-0.2,0.1-0.3c0.1-0.1,0.2-0.1,0.3-0.1h3.5c0.1,0,0.2,0,0.3,0.1c0.1,0.1,0.1,0.2,0.1,0.3l0,0.1c0,0,0,0.1,0,0.1
				c0,0.9,0.7,1.7,1.7,1.7c0,0,0.1,0,0.1,0c0.1,0,0.2,0,0.3,0.1c0.1,0.1,0.1,0.2,0.1,0.3v3.4c0,0.1,0,0.2-0.1,0.3
				c-0.1,0.1-0.2,0.1-0.3,0.1l-0.1,0c0,0-0.1,0-0.1,0c-0.9,0-1.7,0.7-1.7,1.7c0,0.9,0.7,1.7,1.7,1.7c0,0,0.1,0,0.1,0l0.1,0
				c0.1,0,0.2,0,0.3,0.1c0.1,0.1,0.1,0.2,0.1,0.3v3.4c0,0.1,0,0.2-0.1,0.3c-0.1,0.1-0.2,0.1-0.3,0.1l-0.1,0c0,0-0.1,0-0.1,0
				c-0.9,0-1.7,0.7-1.7,1.7c0,0.9,0.7,1.7,1.7,1.7c0,0,0.1,0,0.1,0l0.1,0c0.1,0,0.2,0,0.3,0.1c0.1,0.1,0.1,0.2,0.1,0.3v3.4
				c0,0.1,0,0.2-0.1,0.3c-0.1,0.1-0.2,0.1-0.3,0.1l-0.1,0c0,0-0.1,0-0.1,0c-0.9,0-1.7,0.7-1.7,1.7c0,0.9,0.7,1.7,1.7,1.7
				c0,0,0.1,0,0.1,0l0.1,0c0.1,0,0.2,0,0.3,0.1c0.1,0.1,0.1,0.2,0.1,0.3v3.4c0,0.1,0,0.2-0.1,0.3c-0.1,0.1-0.2,0.1-0.3,0.1l-0.1,0
				c0,0-0.1,0-0.1,0c-0.9,0-1.7,0.7-1.7,1.7c0,0.9,0.7,1.7,1.7,1.7c0,0,0.1,0,0.1,0l0.1,0c0.1,0,0.2,0,0.3,0.1
				c0.1,0.1,0.1,0.2,0.1,0.3v3.4c0,0.1,0,0.2-0.1,0.3c-0.1,0.1-0.2,0.1-0.3,0.1c0,0-0.1,0-0.1,0l0,0c-0.9,0-1.7,0.7-1.7,1.7l0,0.1
				c0,0.1,0,0.2-0.1,0.3C739.7,227.9,739.6,228,739.5,228 M736.5,227.2h2.7c0.1-1.1,1-2.1,2.2-2.2v-2.6c-1.3-0.1-2.3-1.1-2.3-2.4
				c0-1.3,1-2.4,2.3-2.4V215c-1.3-0.1-2.3-1.1-2.3-2.4c0-1.3,1-2.4,2.3-2.4v-2.5c-1.3-0.1-2.3-1.1-2.3-2.4s1-2.4,2.3-2.4v-2.5
				c-1.3-0.1-2.3-1.1-2.3-2.4c0-1.3,1-2.4,2.3-2.4v-2.6c-1.2-0.1-2.1-1.1-2.2-2.2h-2.6c-0.1,1.3-1.2,2.3-2.4,2.3s-2.3-1-2.4-2.3H729
				c-0.1,1.3-1.2,2.3-2.4,2.3s-2.3-1-2.4-2.3h-2.6c-0.1,1.3-1.2,2.3-2.4,2.3s-2.3-1-2.4-2.3h-2.6c-0.1,1.1-0.9,1.9-1.9,2.2v2.7
				c1.1,0.3,1.9,1.2,1.9,2.4c0,1.1-0.8,2.1-1.9,2.4v2.7c1.1,0.3,1.9,1.2,1.9,2.4c0,1.1-0.8,2.1-1.9,2.4v2.7c1.1,0.3,1.9,1.2,1.9,2.4
				s-0.8,2.1-1.9,2.4v2.7c1.1,0.3,1.9,1.2,1.9,2.4c0,1.1-0.8,2.1-1.9,2.4v2.7c1,0.2,1.8,1.1,1.9,2.1h2.7c0.1-1.2,1.2-2.2,2.4-2.2
				c1.3,0,2.3,1,2.4,2.2h2.7c0.1-1.2,1.2-2.2,2.4-2.2s2.3,1,2.4,2.2h2.7c0.1-1.2,1.2-2.2,2.4-2.2C735.3,225,736.4,226,736.5,227.2"
				/>
			<path class="st18" d="M715.7,223.4h21.9v-29h-21.9V223.4z M726.7,215.4c0,0-7.4-3.1-7.4-8.2c0-2.1,1.7-3.8,3.8-3.8
				c1.7,0,3.1,1.1,3.6,2.5c0.5-1.5,1.9-2.5,3.6-2.5c2.1,0,3.8,1.7,3.8,3.8C734.1,212.3,726.7,215.4,726.7,215.4"/>
		</g>
	</g>
</g>
</svg>
