<svg xmlns="http://www.w3.org/2000/svg" viewBox="0 0 169.87 59.32"><defs><style>.a{fill:#0072bc;}.b{fill:#a3b63b;}.c{fill:#fff;}.d{fill:none;stroke:#fff;stroke-linecap:round;stroke-linejoin:round;stroke-width:3px;}</style></defs><title>SubmitButton</title><rect class="a" width="169.14" height="59.32" rx="3.65"/><path class="b" d="M176.48,103.15H130.66V43.83h45.82a4.11,4.11,0,0,1,4.11,4.11V99A4.11,4.11,0,0,1,176.48,103.15Z" transform="translate(-10.72 -43.83)"/><path class="c" d="M39.22,56.69H32.13V76H27.35V56.69h-7V52.82H39.22Z" transform="translate(-10.72 -43.83)"/><path class="c" d="M47.41,76.3A8.41,8.41,0,0,1,41.25,74a8.24,8.24,0,0,1-2.38-6.19v-.45a10.36,10.36,0,0,1,1-4.63,7.37,7.37,0,0,1,2.84-3.15,7.93,7.93,0,0,1,4.19-1.11,7.17,7.17,0,0,1,5.56,2.23,9.06,9.06,0,0,1,2,6.31v1.88h-11a4.27,4.27,0,0,0,1.34,2.71,4.11,4.11,0,0,0,2.84,1,5,5,0,0,0,4.15-1.92l2.26,2.53a7,7,0,0,1-2.8,2.28A9.13,9.13,0,0,1,47.41,76.3Zm-.53-14.14a2.84,2.84,0,0,0-2.21.93,4.69,4.69,0,0,0-1.09,2.65H50v-.37A3.42,3.42,0,0,0,49.14,63,3,3,0,0,0,46.88,62.16Z" transform="translate(-10.72 -43.83)"/><path class="c" d="M62.9,76H58.29V51.55H62.9Z" transform="translate(-10.72 -43.83)"/><path class="c" d="M72.19,76H67.58V51.55h4.61Z" transform="translate(-10.72 -43.83)"/><path class="c" d="M96.42,74.23a5.78,5.78,0,0,1-4.71,2.07,5.42,5.42,0,0,1-4.22-1.59A6.78,6.78,0,0,1,86,70.05V58.77h4.6V69.9c0,1.8.81,2.69,2.44,2.69A3.34,3.34,0,0,0,96.26,71V58.77h4.61V76H96.54Z" transform="translate(-10.72 -43.83)"/><path class="c" d="M114.5,71.23a1.46,1.46,0,0,0-.83-1.33A9.47,9.47,0,0,0,111,69q-6.13-1.29-6.14-5.22a4.72,4.72,0,0,1,1.9-3.82,7.69,7.69,0,0,1,5-1.54A8.23,8.23,0,0,1,117,60a4.84,4.84,0,0,1,2,4h-4.6a2.22,2.22,0,0,0-.64-1.63,2.66,2.66,0,0,0-2-.64,2.74,2.74,0,0,0-1.8.52,1.65,1.65,0,0,0-.64,1.34,1.4,1.4,0,0,0,.73,1.23,7,7,0,0,0,2.44.81,19.58,19.58,0,0,1,2.89.78Q119,67.75,119,71a4.48,4.48,0,0,1-2,3.81,8.68,8.68,0,0,1-5.21,1.46,9.11,9.11,0,0,1-3.84-.77,6.51,6.51,0,0,1-2.64-2.12,4.93,4.93,0,0,1-1-2.9h4.36a2.4,2.4,0,0,0,.9,1.88,3.65,3.65,0,0,0,2.26.65,3.37,3.37,0,0,0,2-.5A1.56,1.56,0,0,0,114.5,71.23Z" transform="translate(-10.72 -43.83)"/><path class="c" d="M25,91.27l2.71-8.73h2.13L25.2,96q-1.1,2.91-3.46,2.91l-.37,0-.75-.14V97.1l.54,0a2.6,2.6,0,0,0,1.58-.41,3,3,0,0,0,.93-1.49l.44-1.18L20,82.54h2.17Z" transform="translate(-10.72 -43.83)"/><path class="c" d="M30.72,88.26a6.86,6.86,0,0,1,.67-3.08,5,5,0,0,1,1.87-2.11A5.13,5.13,0,0,1,36,82.33,4.93,4.93,0,0,1,39.85,84a6.34,6.34,0,0,1,1.47,4.38v.14a6.83,6.83,0,0,1-.66,3.05,5,5,0,0,1-1.86,2.11A5.14,5.14,0,0,1,36,94.4a4.88,4.88,0,0,1-3.83-1.65,6.28,6.28,0,0,1-1.47-4.35Zm2,.23a5,5,0,0,0,.9,3.11,3,3,0,0,0,4.81,0,5.44,5.44,0,0,0,.9-3.33,5,5,0,0,0-.91-3.11A2.92,2.92,0,0,0,36,84a2.86,2.86,0,0,0-2.38,1.18A5.41,5.41,0,0,0,32.72,88.49Z" transform="translate(-10.72 -43.83)"/><path class="c" d="M50.9,93a4.25,4.25,0,0,1-3.41,1.37,3.62,3.62,0,0,1-2.84-1.08,4.64,4.64,0,0,1-1-3.2V82.54h2v7.52c0,1.77.71,2.65,2.15,2.65a3,3,0,0,0,3-1.7V82.54h2V94.18H50.94Z" transform="translate(-10.72 -43.83)"/><path class="c" d="M61.42,84.33a6.08,6.08,0,0,0-1-.08,2.62,2.62,0,0,0-2.66,1.67v8.26h-2V82.54h1.93l0,1.35a3.08,3.08,0,0,1,2.77-1.56,2.1,2.1,0,0,1,.89.15Z" transform="translate(-10.72 -43.83)"/><path class="c" d="M75.48,91.1a1.49,1.49,0,0,0-.61-1.26,6.12,6.12,0,0,0-2.12-.77,9.81,9.81,0,0,1-2.4-.77A3.35,3.35,0,0,1,69,87.22a2.51,2.51,0,0,1-.43-1.48,3,3,0,0,1,1.21-2.42,4.74,4.74,0,0,1,3.1-1,4.86,4.86,0,0,1,3.21,1A3.24,3.24,0,0,1,77.36,86h-2a1.82,1.82,0,0,0-.69-1.41A2.65,2.65,0,0,0,72.92,84a2.69,2.69,0,0,0-1.7.48,1.47,1.47,0,0,0-.62,1.23,1.21,1.21,0,0,0,.57,1.09,7.09,7.09,0,0,0,2.06.7,10.52,10.52,0,0,1,2.42.8A3.47,3.47,0,0,1,77,89.37,2.71,2.71,0,0,1,77.47,91a3,3,0,0,1-1.25,2.5A5.21,5.21,0,0,1,73,94.4a6,6,0,0,1-2.47-.49,4.09,4.09,0,0,1-1.69-1.39,3.36,3.36,0,0,1-.61-1.92h2a2,2,0,0,0,.8,1.59,3.1,3.1,0,0,0,2,.59,3.23,3.23,0,0,0,1.81-.46A1.41,1.41,0,0,0,75.48,91.1Z" transform="translate(-10.72 -43.83)"/><path class="c" d="M82.86,79.72v2.82H85v1.54H82.86v7.23a1.62,1.62,0,0,0,.29,1,1.25,1.25,0,0,0,1,.35,4.56,4.56,0,0,0,1-.13v1.61a5.87,5.87,0,0,1-1.53.21,2.47,2.47,0,0,1-2-.81,3.48,3.48,0,0,1-.68-2.29V84.08H78.75V82.54h2.12V79.72Z" transform="translate(-10.72 -43.83)"/><path class="c" d="M86.34,88.26A6.87,6.87,0,0,1,87,85.18a4.94,4.94,0,0,1,1.87-2.11,5.13,5.13,0,0,1,2.74-.74A4.92,4.92,0,0,1,95.47,84a6.34,6.34,0,0,1,1.47,4.38v.14a7,7,0,0,1-.65,3.05,5,5,0,0,1-1.86,2.11,5.19,5.19,0,0,1-2.78.75,4.9,4.9,0,0,1-3.84-1.65,6.28,6.28,0,0,1-1.47-4.35Zm2,.23a5,5,0,0,0,.9,3.11,3,3,0,0,0,4.82,0A5.51,5.51,0,0,0,95,88.26,5,5,0,0,0,94,85.15,2.9,2.9,0,0,0,91.63,84a2.84,2.84,0,0,0-2.38,1.18A5.41,5.41,0,0,0,88.34,88.49Z" transform="translate(-10.72 -43.83)"/><path class="c" d="M105,84.33a6.08,6.08,0,0,0-1-.08,2.63,2.63,0,0,0-2.66,1.67v8.26h-2V82.54h1.94l0,1.35a3.1,3.1,0,0,1,2.77-1.56,2.1,2.1,0,0,1,.89.15Z" transform="translate(-10.72 -43.83)"/><path class="c" d="M111.26,91.27,114,82.54h2.13L111.42,96q-1.1,2.91-3.46,2.91l-.37,0-.74-.14V97.1l.53,0a2.6,2.6,0,0,0,1.58-.41,2.9,2.9,0,0,0,.93-1.49l.44-1.18-4.15-11.52h2.17Z" transform="translate(-10.72 -43.83)"/><path class="c" d="M118.08,93.17a1.18,1.18,0,0,1,.3-.82,1.1,1.1,0,0,1,.87-.33,1.15,1.15,0,0,1,.89.33,1.18,1.18,0,0,1,.3.82,1.13,1.13,0,0,1-.3.81,1.14,1.14,0,0,1-.89.32,1.1,1.1,0,0,1-.87-.32A1.13,1.13,0,0,1,118.08,93.17Zm2-3.43H118.3l-.14-11.22h2.08Z" transform="translate(-10.72 -43.83)"/><polyline class="d" points="138.72 14.28 154.62 29.14 139.75 45.05"/></svg>