<svg xmlns="http://www.w3.org/2000/svg" width="105.916" height="84.233" viewBox="0 0 105.916 84.233"><path d="M18.4,38.1l.441-1.1A3.465,3.465,0,0,0,18.4,38.1Z" transform="translate(-18.106 -33.839)" fill="#fff"/><path d="M161,37a3.465,3.465,0,0,1,.441,1.1A3.465,3.465,0,0,0,161,37Z" transform="translate(-55.893 -33.839)" fill="#fff"/><path d="M24.027,116.933h93.861a6.033,6.033,0,0,0,5-2.646,5.928,5.928,0,0,0,1.029-3.381h0V38.727a5.6,5.6,0,0,0-.221-1.544.27.27,0,0,0-.074-.221l-.441-1.1a4.421,4.421,0,0,0-.662-.956,4.212,4.212,0,0,0-.809-.809c-.147-.147-.294-.221-.441-.368a5.928,5.928,0,0,0-3.381-1.029H24.027a5.928,5.928,0,0,0-3.381,1.029,1.949,1.949,0,0,0-.441.368,4.212,4.212,0,0,0-.809.809,10.753,10.753,0,0,0-.662.956,3.465,3.465,0,0,0-.441,1.1A7.379,7.379,0,0,0,18,38.727v72.178h0a6,6,0,0,0,4.41,5.807A5.732,5.732,0,0,0,24.027,116.933Zm93.567-80.484L69.745,86.724l-45.13-49.54ZM22.557,110.906V41.741L67.981,91.648a2.393,2.393,0,0,0,1.691.735h0a2.129,2.129,0,0,0,1.691-.735L119.285,41.3v69.532a1.446,1.446,0,0,1-1.4,1.4H24.027A1.356,1.356,0,0,1,22.557,110.906Z" transform="translate(-18 -32.7)" fill="#fff"/></svg>