<svg xmlns="http://www.w3.org/2000/svg" width="87.977" height="90.233" viewBox="0 0 87.977 90.233"><path d="M90.118,91.737C82.1,85.345,78.524,84.4,74.7,86.661a25.619,25.619,0,0,0-4.951,4.261c-3.7,3.7-9.149,1-17.3-7.081s-11.844-14.6-8.147-18.361A28.68,28.68,0,0,0,48.633,60.4c2.256-3.76,1.065-7.081-5.389-14.977-5.389-6.643-9.087-8.272-13.16-6.517-3.071,1.316-5.7,3.948-7.9,6.2-5.891,5.953-1.441,26.257,20.555,48,21.933,21.808,41.861,26.132,47.752,20.179,2.381-2.381,5.139-5.327,6.329-8.711C98.264,100.635,96.447,96.813,90.118,91.737Z" transform="translate(-19.816 -25.495)" fill="#fff"/><path d="M102.579,85.6a1.766,1.766,0,0,1-1.817-1.755C99.822,63.288,79.267,61.22,78.39,61.1a1.855,1.855,0,0,1,.313-3.7c.251,0,24.628,2.507,25.756,26.257A1.874,1.874,0,0,1,102.7,85.6Z" transform="translate(-41.051 -32.641)" fill="#fff"/><path d="M115.851,75.732a1.766,1.766,0,0,1-1.817-1.755C112.718,45.84,84.58,42.958,83.39,42.9a1.855,1.855,0,0,1,.313-3.7c.313,0,32.524,3.321,33.965,34.592a1.874,1.874,0,0,1-1.755,1.943Z" transform="translate(-42.918 -25.846)" fill="#fff"/><path d="M130.492,65.524a1.766,1.766,0,0,1-1.817-1.755C126.92,25.668,87.628,21.658,87.19,21.6a1.855,1.855,0,0,1,.313-3.7c.439.063,42.926,4.324,44.806,45.621a1.874,1.874,0,0,1-1.755,1.943A.061.061,0,0,1,130.492,65.524Z" transform="translate(-44.336 -17.894)" fill="#fff"/></svg>